NATS.ufo
<glyph name="exclam" format="1">
  <advance width="138"/>
  <unicode hex="0021"/>
  <outline>
    <contour>
      <point x="104" y="33" type="curve" smooth="yes" name="hr00"/>
      <point x="104" y="62"/>
      <point x="81" y="83"/>
      <point x="52" y="83" type="curve" smooth="yes"/>
      <point x="20" y="83"/>
      <point x="0" y="62"/>
      <point x="0" y="33" type="curve" smooth="yes"/>
      <point x="0" y="1"/>
      <point x="24" y="-16"/>
      <point x="52" y="-16" type="curve" smooth="yes"/>
      <point x="79" y="-16"/>
      <point x="104" y="5"/>
    </contour>
    <contour>
      <point x="82" y="477" type="line" smooth="yes"/>
      <point x="82" y="496"/>
      <point x="71" y="505"/>
      <point x="48" y="505" type="curve" smooth="yes"/>
      <point x="28" y="505"/>
      <point x="18" y="495"/>
      <point x="18" y="476" type="curve" smooth="yes"/>
      <point x="18" y="124" type="line" smooth="yes"/>
      <point x="18" y="107"/>
      <point x="28" y="99"/>
      <point x="49" y="99" type="curve" smooth="yes"/>
      <point x="71" y="99"/>
      <point x="82" y="107"/>
      <point x="82" y="122" type="curve" smooth="yes"/>
    </contour>
  </outline>
</glyph>
<glyph name="percent" format="1">
  <advance width="602"/>
  <unicode hex="0025"/>
  <outline>
    <contour>
      <point x="486" y="146" type="curve" smooth="yes" name="hr00"/>
      <point x="486" y="69"/>
      <point x="473" y="47"/>
      <point x="420" y="47" type="curve" smooth="yes"/>
      <point x="384" y="47"/>
      <point x="366" y="80"/>
      <point x="366" y="135" type="curve" smooth="yes"/>
      <point x="366" y="200"/>
      <point x="385" y="223"/>
      <point x="430" y="223" type="curve" smooth="yes"/>
      <point x="465" y="223"/>
      <point x="486" y="191"/>
    </contour>
    <contour>
      <point x="181" y="392" type="curve" smooth="yes"/>
      <point x="181" y="313"/>
      <point x="167" y="287"/>
      <point x="112" y="287" type="curve" smooth="yes"/>
      <point x="75" y="287"/>
      <point x="56" y="322"/>
      <point x="56" y="374" type="curve" smooth="yes"/>
      <point x="56" y="437"/>
      <point x="77" y="464"/>
      <point x="121" y="464" type="curve" smooth="yes"/>
      <point x="158" y="464"/>
      <point x="181" y="436"/>
    </contour>
    <contour>
      <point x="544" y="138" type="curve" smooth="yes"/>
      <point x="544" y="230"/>
      <point x="505" y="276"/>
      <point x="428" y="276" type="curve" smooth="yes"/>
      <point x="386" y="276"/>
      <point x="353" y="261"/>
      <point x="333" y="229" type="curve" smooth="yes"/>
      <point x="317" y="204"/>
      <point x="311" y="170"/>
      <point x="311" y="130" type="curve" smooth="yes"/>
      <point x="311" y="46"/>
      <point x="356" y="-6"/>
      <point x="428" y="-6" type="curve" smooth="yes"/>
      <point x="500" y="-6"/>
      <point x="544" y="45"/>
    </contour>
    <contour>
      <point x="441" y="488" type="line"/>
      <point x="443" y="494"/>
      <point x="444" y="499"/>
      <point x="444" y="504" type="curve" smooth="yes"/>
      <point x="444" y="523"/>
      <point x="435" y="532"/>
      <point x="417" y="532" type="curve" smooth="yes"/>
      <point x="406" y="532"/>
      <point x="396" y="528"/>
      <point x="390" y="517" type="curve" smooth="yes"/>
      <point x="96" y="18" type="line" smooth="yes"/>
      <point x="89" y="5"/>
      <point x="99" y="-16"/>
      <point x="123" y="-16" type="curve" smooth="yes"/>
      <point x="134" y="-16"/>
      <point x="142" y="-11"/>
      <point x="148" y="-1" type="curve" smooth="yes"/>
    </contour>
    <contour>
      <point x="235" y="380" type="curve" smooth="yes"/>
      <point x="235" y="467"/>
      <point x="189" y="517"/>
      <point x="116" y="517" type="curve" smooth="yes"/>
      <point x="75" y="517"/>
      <point x="44" y="501"/>
      <point x="23" y="469" type="curve" smooth="yes"/>
      <point x="8" y="445"/>
      <point x="0" y="413"/>
      <point x="0" y="373" type="curve" smooth="yes"/>
      <point x="0" y="285"/>
      <point x="45" y="235"/>
      <point x="116" y="235" type="curve" smooth="yes"/>
      <point x="195" y="235"/>
      <point x="235" y="283"/>
    </contour>
  </outline>
</glyph>
<glyph name="ampersand" format="1">
  <advance width="605"/>
  <unicode hex="0026"/>
  <outline>
    <contour>
      <point x="274" y="515" type="curve" smooth="yes" name="hr00"/>
      <point x="317" y="515"/>
      <point x="349" y="483"/>
      <point x="349" y="448" type="curve" smooth="yes"/>
      <point x="349" y="431"/>
      <point x="342" y="415"/>
      <point x="328" y="400" type="curve"/>
      <point x="315" y="389"/>
      <point x="292" y="377"/>
      <point x="261" y="364" type="curve"/>
      <point x="228" y="393" type="line"/>
      <point x="209" y="414"/>
      <point x="199" y="433"/>
      <point x="199" y="452" type="curve" smooth="yes"/>
      <point x="199" y="485"/>
      <point x="230" y="515"/>
    </contour>
    <contour>
      <point x="374" y="161" type="line"/>
      <point x="358" y="132"/>
      <point x="343" y="110"/>
      <point x="329" y="95" type="curve" smooth="yes"/>
      <point x="304" y="70"/>
      <point x="275" y="57"/>
      <point x="243" y="57" type="curve" smooth="yes"/>
      <point x="214" y="57"/>
      <point x="188" y="67"/>
      <point x="165" y="88" type="curve" smooth="yes"/>
      <point x="142" y="109"/>
      <point x="130" y="135"/>
      <point x="130" y="167" type="curve" smooth="yes"/>
      <point x="130" y="200"/>
      <point x="143" y="230"/>
      <point x="188" y="261" type="curve" smooth="yes"/>
      <point x="200" y="269"/>
      <point x="229" y="283"/>
      <point x="241" y="288" type="curve"/>
    </contour>
    <contour>
      <point x="408" y="223" type="line"/>
      <point x="313" y="314" type="line"/>
      <point x="333" y="321"/>
      <point x="353" y="333"/>
      <point x="373" y="351" type="curve" smooth="yes"/>
      <point x="404" y="377"/>
      <point x="419" y="408"/>
      <point x="419" y="445" type="curve" smooth="yes"/>
      <point x="419" y="484"/>
      <point x="405" y="516"/>
      <point x="376" y="542" type="curve" smooth="yes"/>
      <point x="347" y="568"/>
      <point x="314" y="581"/>
      <point x="275" y="581" type="curve" smooth="yes"/>
      <point x="234" y="581"/>
      <point x="200" y="568"/>
      <point x="171" y="543" type="curve" smooth="yes"/>
      <point x="143" y="518"/>
      <point x="129" y="488"/>
      <point x="129" y="451" type="curve" smooth="yes"/>
      <point x="129" y="425"/>
      <point x="136" y="401"/>
      <point x="151" y="380" type="curve" smooth="yes"/>
      <point x="160" y="367"/>
      <point x="173" y="352"/>
      <point x="190" y="337" type="curve"/>
      <point x="155" y="321"/>
      <point x="127" y="301"/>
      <point x="104" y="277" type="curve" smooth="yes"/>
      <point x="75" y="246"/>
      <point x="60" y="210"/>
      <point x="60" y="169" type="curve" smooth="yes"/>
      <point x="60" y="122"/>
      <point x="77" y="83"/>
      <point x="112" y="48" type="curve" smooth="yes"/>
      <point x="150" y="10"/>
      <point x="195" y="-9"/>
      <point x="249" y="-9" type="curve" smooth="yes"/>
      <point x="298" y="-9"/>
      <point x="338" y="10"/>
      <point x="374" y="44" type="curve" smooth="yes"/>
      <point x="392" y="62"/>
      <point x="410" y="84"/>
      <point x="425" y="113" type="curve"/>
      <point x="557" y="-11" type="line"/>
      <point x="607" y="36" type="line"/>
      <point x="459" y="174" type="line"/>
      <point x="569" y="377" type="line"/>
      <point x="491" y="377" type="line"/>
    </contour>
  </outline>
</glyph>
<glyph name="parenleft" format="1">
  <advance width="188"/>
  <unicode hex="0028"/>
  <outline>
    <contour>
      <point x="193" y="-97" type="curve" name="hr00"/>
      <point x="168" y="-73"/>
      <point x="144" y="-50"/>
      <point x="122" y="-27" type="curve"/>
      <point x="102" y="4"/>
      <point x="92" y="58"/>
      <point x="92" y="133" type="curve" smooth="yes"/>
      <point x="92" y="321" type="line" smooth="yes"/>
      <point x="92" y="405"/>
      <point x="114" y="468"/>
      <point x="141" y="495" type="curve" smooth="yes"/>
      <point x="150" y="503"/>
      <point x="161" y="511"/>
      <point x="176" y="518" type="curve"/>
      <point x="187" y="525"/>
      <point x="193" y="533"/>
      <point x="193" y="544" type="curve" smooth="yes"/>
      <point x="193" y="561"/>
      <point x="184" y="570"/>
      <point x="165" y="570" type="curve" smooth="yes"/>
      <point x="142" y="570"/>
      <point x="95" y="542"/>
      <point x="70" y="494" type="curve" smooth="yes"/>
      <point x="46" y="446"/>
      <point x="34" y="378"/>
      <point x="34" y="298" type="curve" smooth="yes"/>
      <point x="34" y="151" type="line" smooth="yes"/>
      <point x="34" y="87"/>
      <point x="43" y="5"/>
      <point x="68" y="-44" type="curve" smooth="yes"/>
      <point x="81" y="-69"/>
      <point x="99" y="-90"/>
      <point x="122" y="-106" type="curve" smooth="yes"/>
      <point x="139" y="-118"/>
      <point x="153" y="-124"/>
      <point x="165" y="-124" type="curve" smooth="yes"/>
      <point x="184" y="-124"/>
      <point x="193" y="-115"/>
    </contour>
  </outline>
</glyph>
<glyph name="parenright" format="1">
  <advance width="189"/>
  <unicode hex="0029"/>
  <outline>
    <contour>
      <point x="171" y="298" type="line" smooth="yes" name="hr00"/>
      <point x="171" y="383"/>
      <point x="158" y="446"/>
      <point x="134" y="490" type="curve" smooth="yes"/>
      <point x="120" y="516"/>
      <point x="103" y="538"/>
      <point x="82" y="554" type="curve" smooth="yes"/>
      <point x="66" y="565"/>
      <point x="52" y="570"/>
      <point x="41" y="570" type="curve" smooth="yes"/>
      <point x="21" y="570"/>
      <point x="11" y="561"/>
      <point x="11" y="544" type="curve" smooth="yes"/>
      <point x="11" y="533"/>
      <point x="18" y="523"/>
      <point x="32" y="515" type="curve" smooth="yes"/>
      <point x="46" y="508"/>
      <point x="57" y="501"/>
      <point x="64" y="495" type="curve" smooth="yes"/>
      <point x="91" y="468"/>
      <point x="114" y="398"/>
      <point x="114" y="321" type="curve" smooth="yes"/>
      <point x="114" y="133" type="line" smooth="yes"/>
      <point x="114" y="41"/>
      <point x="97" y="-19"/>
      <point x="62" y="-50" type="curve" smooth="yes"/>
      <point x="28" y="-80"/>
      <point x="11" y="-97"/>
      <point x="11" y="-100" type="curve" smooth="yes"/>
      <point x="11" y="-116"/>
      <point x="21" y="-124"/>
      <point x="40" y="-124" type="curve" smooth="yes"/>
      <point x="55" y="-124"/>
      <point x="74" y="-113"/>
      <point x="97" y="-91" type="curve" smooth="yes"/>
      <point x="114" y="-76"/>
      <point x="128" y="-59"/>
      <point x="138" y="-40" type="curve" smooth="yes"/>
      <point x="163" y="7"/>
      <point x="171" y="84"/>
      <point x="171" y="151" type="curve" smooth="yes"/>
    </contour>
  </outline>
</glyph>
<glyph name="plus" format="1">
  <advance width="514"/>
  <unicode hex="002B"/>
  <outline>
    <contour>
      <point x="469" y="266" type="line" name="hr00"/>
      <point x="300" y="266" type="line"/>
      <point x="300" y="441" type="line"/>
      <point x="230" y="441" type="line"/>
      <point x="230" y="266" type="line"/>
      <point x="61" y="266" type="line"/>
      <point x="61" y="192" type="line"/>
      <point x="230" y="192" type="line"/>
      <point x="230" y="11" type="line"/>
      <point x="300" y="11" type="line"/>
      <point x="300" y="192" type="line"/>
      <point x="469" y="192" type="line"/>
    </contour>
  </outline>
</glyph>
<glyph name="comma" format="1">
  <advance width="186"/>
  <unicode hex="002C"/>
  <outline>
    <contour>
      <point x="126" y="28" type="curve" smooth="yes" name="hr00"/>
      <point x="126" y="61"/>
      <point x="109" y="77"/>
      <point x="75" y="77" type="curve" smooth="yes"/>
      <point x="44" y="77"/>
      <point x="29" y="62"/>
      <point x="29" y="33" type="curve" smooth="yes"/>
      <point x="29" y="0"/>
      <point x="42" y="-16"/>
      <point x="69" y="-13" type="curve"/>
      <point x="68" y="-20"/>
      <point x="63" y="-29"/>
      <point x="53" y="-40" type="curve"/>
      <point x="30" y="-61"/>
      <point x="19" y="-73"/>
      <point x="19" y="-76" type="curve" smooth="yes"/>
      <point x="19" y="-96"/>
      <point x="42" y="-109"/>
      <point x="58" y="-98" type="curve"/>
      <point x="105" y="-73"/>
      <point x="126" y="-27"/>
    </contour>
  </outline>
</glyph>
<glyph name="hyphen" format="1">
  <advance width="410"/>
  <unicode hex="002D"/>
  <outline>
    <contour>
      <point x="58" y="243" type="line" smooth="yes" name="hr00"/>
      <point x="37" y="243"/>
      <point x="27" y="233"/>
      <point x="27" y="212" type="curve" smooth="yes"/>
      <point x="27" y="195"/>
      <point x="36" y="186"/>
      <point x="54" y="186" type="curve" smooth="yes"/>
      <point x="347" y="186" type="line" smooth="yes"/>
      <point x="362" y="186"/>
      <point x="370" y="195"/>
      <point x="370" y="214" type="curve" smooth="yes"/>
      <point x="370" y="233"/>
      <point x="364" y="243"/>
      <point x="351" y="243" type="curve" smooth="yes"/>
    </contour>
  </outline>
</glyph>
<glyph name="period" format="1">
  <advance width="176"/>
  <unicode hex="002E"/>
  <outline>
    <contour>
      <point x="140" y="33" type="curve" smooth="yes" name="hr00"/>
      <point x="140" y="62"/>
      <point x="117" y="83"/>
      <point x="88" y="83" type="curve" smooth="yes"/>
      <point x="56" y="83"/>
      <point x="36" y="62"/>
      <point x="36" y="33" type="curve" smooth="yes"/>
      <point x="36" y="1"/>
      <point x="60" y="-16"/>
      <point x="88" y="-16" type="curve" smooth="yes"/>
      <point x="115" y="-16"/>
      <point x="140" y="5"/>
    </contour>
  </outline>
</glyph>
<glyph name="slash" format="1">
  <advance width="196"/>
  <unicode hex="002F"/>
  <outline>
    <contour>
      <point x="227" y="531" type="line" name="hr00"/>
      <point x="227" y="549"/>
      <point x="216" y="558"/>
      <point x="194" y="558" type="curve" smooth="yes"/>
      <point x="175" y="558"/>
      <point x="165" y="549"/>
      <point x="165" y="531" type="curve"/>
      <point x="-46" y="-109" type="line"/>
      <point x="-46" y="-126"/>
      <point x="-36" y="-134"/>
      <point x="-15" y="-134" type="curve" smooth="yes"/>
      <point x="6" y="-134"/>
      <point x="16" y="-127"/>
      <point x="16" y="-113" type="curve"/>
    </contour>
  </outline>
</glyph>
<glyph name="zero" format="1">
  <advance width="505"/>
  <unicode hex="0030"/>
  <outline>
    <contour>
      <point x="401" y="272" type="curve" smooth="yes" name="hr00"/>
      <point x="401" y="183"/>
      <point x="389" y="121"/>
      <point x="365" y="88" type="curve" smooth="yes"/>
      <point x="342" y="55"/>
      <point x="301" y="39"/>
      <point x="243" y="39" type="curve" smooth="yes"/>
      <point x="186" y="39"/>
      <point x="144" y="59"/>
      <point x="122" y="98" type="curve" smooth="yes"/>
      <point x="102" y="133"/>
      <point x="93" y="190"/>
      <point x="93" y="269" type="curve" smooth="yes"/>
      <point x="93" y="360"/>
      <point x="104" y="425"/>
      <point x="126" y="463" type="curve" smooth="yes"/>
      <point x="149" y="501"/>
      <point x="188" y="520"/>
      <point x="243" y="520" type="curve" smooth="yes"/>
      <point x="298" y="520"/>
      <point x="338" y="502"/>
      <point x="363" y="465" type="curve" smooth="yes"/>
      <point x="388" y="429"/>
      <point x="401" y="365"/>
    </contour>
    <contour>
      <point x="463" y="281" type="curve" smooth="yes"/>
      <point x="463" y="480"/>
      <point x="391" y="580"/>
      <point x="246" y="580" type="curve" smooth="yes"/>
      <point x="102" y="580"/>
      <point x="27" y="490"/>
      <point x="27" y="277" type="curve" smooth="yes"/>
      <point x="27" y="168"/>
      <point x="47" y="90"/>
      <point x="86" y="45" type="curve" smooth="yes"/>
      <point x="121" y="4"/>
      <point x="175" y="-16"/>
      <point x="246" y="-16" type="curve" smooth="yes"/>
      <point x="391" y="-16"/>
      <point x="463" y="83"/>
    </contour>
  </outline>
</glyph>
<glyph name="one" format="1">
  <advance width="284"/>
  <unicode hex="0031"/>
  <outline>
    <contour>
      <point x="205" y="542" type="line" smooth="yes" name="hr00"/>
      <point x="205" y="559"/>
      <point x="196" y="568"/>
      <point x="179" y="568" type="curve" smooth="yes"/>
      <point x="162" y="568"/>
      <point x="152" y="560"/>
      <point x="148" y="543" type="curve" smooth="yes"/>
      <point x="138" y="502" type="line"/>
      <point x="129" y="479"/>
      <point x="102" y="468"/>
      <point x="74" y="468" type="curve" smooth="yes"/>
      <point x="55" y="468"/>
      <point x="45" y="460"/>
      <point x="45" y="444" type="curve" smooth="yes"/>
      <point x="45" y="419"/>
      <point x="56" y="407"/>
      <point x="78" y="407" type="curve" smooth="yes"/>
      <point x="145" y="407" type="line"/>
      <point x="145" y="16" type="line" smooth="yes"/>
      <point x="145" y="-5"/>
      <point x="156" y="-17"/>
      <point x="179" y="-16" type="curve" smooth="yes"/>
      <point x="196" y="-16"/>
      <point x="205" y="-6"/>
      <point x="205" y="12" type="curve" smooth="yes"/>
    </contour>
  </outline>
</glyph>
<glyph name="two" format="1">
  <advance width="536"/>
  <unicode hex="0032"/>
  <outline>
    <contour>
      <point x="497" y="16" type="curve" smooth="yes" name="hr00"/>
      <point x="497" y="37"/>
      <point x="485" y="47"/>
      <point x="460" y="47" type="curve" smooth="yes"/>
      <point x="95" y="47" type="line"/>
      <point x="95" y="106"/>
      <point x="113" y="149"/>
      <point x="148" y="176" type="curve" smooth="yes"/>
      <point x="171" y="194"/>
      <point x="216" y="208"/>
      <point x="278" y="224" type="curve" smooth="yes"/>
      <point x="344" y="241"/>
      <point x="389" y="258"/>
      <point x="413" y="274" type="curve" smooth="yes"/>
      <point x="458" y="304"/>
      <point x="479" y="350"/>
      <point x="479" y="409" type="curve" smooth="yes"/>
      <point x="479" y="459"/>
      <point x="458" y="499"/>
      <point x="416" y="529" type="curve" smooth="yes"/>
      <point x="381" y="554"/>
      <point x="336" y="566"/>
      <point x="281" y="566" type="curve" smooth="yes"/>
      <point x="206" y="566"/>
      <point x="152" y="555"/>
      <point x="120" y="534" type="curve" smooth="yes"/>
      <point x="69" y="499"/>
      <point x="43" y="443"/>
      <point x="43" y="365" type="curve" smooth="yes"/>
      <point x="43" y="341"/>
      <point x="53" y="329"/>
      <point x="74" y="329" type="curve" smooth="yes"/>
      <point x="95" y="329"/>
      <point x="105" y="339"/>
      <point x="105" y="359" type="curve" smooth="yes"/>
      <point x="105" y="405"/>
      <point x="115" y="440"/>
      <point x="136" y="463" type="curve" smooth="yes"/>
      <point x="163" y="494"/>
      <point x="210" y="509"/>
      <point x="276" y="509" type="curve" smooth="yes"/>
      <point x="373" y="509"/>
      <point x="421" y="474"/>
      <point x="421" y="403" type="curve" smooth="yes"/>
      <point x="421" y="366"/>
      <point x="403" y="339"/>
      <point x="369" y="317" type="curve" smooth="yes"/>
      <point x="350" y="305"/>
      <point x="312" y="290"/>
      <point x="251" y="275" type="curve" smooth="yes"/>
      <point x="191" y="260"/>
      <point x="151" y="247"/>
      <point x="131" y="236" type="curve" smooth="yes"/>
      <point x="62" y="196"/>
      <point x="26" y="127"/>
      <point x="28" y="29" type="curve" smooth="yes"/>
      <point x="29" y="-16" type="line"/>
      <point x="468" y="-16" type="line" smooth="yes"/>
      <point x="487" y="-16"/>
      <point x="497" y="-5"/>
    </contour>
  </outline>
</glyph>
<glyph name="three" format="1">
  <advance width="503"/>
  <unicode hex="0033"/>
  <outline>
    <contour>
      <point x="463" y="169" type="curve" smooth="yes" name="hr00"/>
      <point x="463" y="244"/>
      <point x="436" y="292"/>
      <point x="382" y="313" type="curve"/>
      <point x="425" y="342"/>
      <point x="446" y="382"/>
      <point x="446" y="434" type="curve" smooth="yes"/>
      <point x="446" y="533"/>
      <point x="368" y="581"/>
      <point x="253" y="581" type="curve" smooth="yes"/>
      <point x="218" y="581"/>
      <point x="187" y="578"/>
      <point x="159" y="572" type="curve"/>
      <point x="126" y="560"/>
      <point x="97" y="539"/>
      <point x="73" y="508" type="curve" smooth="yes"/>
      <point x="50" y="478"/>
      <point x="38" y="445"/>
      <point x="38" y="409" type="curve" smooth="yes"/>
      <point x="38" y="384"/>
      <point x="49" y="371"/>
      <point x="70" y="371" type="curve" smooth="yes"/>
      <point x="87" y="371"/>
      <point x="96" y="380"/>
      <point x="100" y="397" type="curve" smooth="yes"/>
      <point x="110" y="442" type="line"/>
      <point x="129" y="497"/>
      <point x="178" y="525"/>
      <point x="255" y="525" type="curve" smooth="yes"/>
      <point x="334" y="525"/>
      <point x="384" y="491"/>
      <point x="384" y="428" type="curve" smooth="yes"/>
      <point x="384" y="400"/>
      <point x="371" y="377"/>
      <point x="346" y="360" type="curve" smooth="yes"/>
      <point x="323" y="343"/>
      <point x="297" y="334"/>
      <point x="267" y="334" type="curve" smooth="yes"/>
      <point x="202" y="334" type="line" smooth="yes"/>
      <point x="181" y="334"/>
      <point x="170" y="323"/>
      <point x="170" y="300" type="curve" smooth="yes"/>
      <point x="170" y="281"/>
      <point x="178" y="271"/>
      <point x="195" y="271" type="curve" smooth="yes"/>
      <point x="291" y="271" type="line" smooth="yes"/>
      <point x="363" y="271"/>
      <point x="399" y="237"/>
      <point x="399" y="169" type="curve" smooth="yes"/>
      <point x="399" y="86"/>
      <point x="345" y="45"/>
      <point x="236" y="45" type="curve" smooth="yes"/>
      <point x="140" y="45"/>
      <point x="89" y="92"/>
      <point x="89" y="187" type="curve"/>
      <point x="86" y="204"/>
      <point x="77" y="213"/>
      <point x="60" y="213" type="curve" smooth="yes"/>
      <point x="38" y="213"/>
      <point x="27" y="201"/>
      <point x="27" y="178" type="curve" smooth="yes"/>
      <point x="27" y="128"/>
      <point x="44" y="85"/>
      <point x="78" y="48" type="curve" smooth="yes"/>
      <point x="116" y="5"/>
      <point x="168" y="-16"/>
      <point x="233" y="-16" type="curve" smooth="yes"/>
      <point x="380" y="-16"/>
      <point x="463" y="56"/>
    </contour>
  </outline>
</glyph>
<glyph name="four" format="1">
  <advance width="520"/>
  <unicode hex="0034"/>
  <outline>
    <contour>
      <point x="111" y="194" type="line" name="hr00"/>
      <point x="327" y="472" type="line"/>
      <point x="327" y="194" type="line"/>
    </contour>
    <contour>
      <point x="390" y="194" type="line"/>
      <point x="390" y="530" type="line" smooth="yes"/>
      <point x="390" y="553"/>
      <point x="379" y="564"/>
      <point x="356" y="564" type="curve" smooth="yes"/>
      <point x="336" y="564"/>
      <point x="316" y="554"/>
      <point x="298" y="532" type="curve" smooth="yes"/>
      <point x="40" y="205" type="line" smooth="yes"/>
      <point x="32" y="194"/>
      <point x="27" y="182"/>
      <point x="27" y="167" type="curve" smooth="yes"/>
      <point x="27" y="144"/>
      <point x="40" y="132"/>
      <point x="65" y="132" type="curve" smooth="yes"/>
      <point x="327" y="132" type="line"/>
      <point x="327" y="8" type="line" smooth="yes"/>
      <point x="327" y="-8"/>
      <point x="338" y="-16"/>
      <point x="359" y="-16" type="curve" smooth="yes"/>
      <point x="380" y="-16"/>
      <point x="390" y="-7"/>
      <point x="390" y="11" type="curve" smooth="yes"/>
      <point x="390" y="132" type="line"/>
      <point x="445" y="132" type="line" smooth="yes"/>
      <point x="468" y="132"/>
      <point x="479" y="144"/>
      <point x="479" y="167" type="curve"/>
      <point x="476" y="185"/>
      <point x="467" y="194"/>
      <point x="451" y="194" type="curve" smooth="yes"/>
    </contour>
  </outline>
</glyph>
<glyph name="five" format="1">
  <advance width="507"/>
  <unicode hex="0035"/>
  <outline>
    <contour>
      <point x="469" y="184" type="curve" smooth="yes" name="hr00"/>
      <point x="469" y="331"/>
      <point x="400" y="404"/>
      <point x="261" y="404" type="curve" smooth="yes"/>
      <point x="189" y="404"/>
      <point x="138" y="391"/>
      <point x="107" y="365" type="curve"/>
      <point x="125" y="498" type="line"/>
      <point x="408" y="498" type="line" smooth="yes"/>
      <point x="430" y="498"/>
      <point x="441" y="508"/>
      <point x="441" y="528" type="curve" smooth="yes"/>
      <point x="441" y="548"/>
      <point x="429" y="558"/>
      <point x="406" y="558" type="curve" smooth="yes"/>
      <point x="68" y="558" type="line"/>
      <point x="35" y="311" type="line" smooth="yes"/>
      <point x="31" y="281"/>
      <point x="44" y="265"/>
      <point x="73" y="266" type="curve" smooth="yes"/>
      <point x="85" y="266"/>
      <point x="95" y="272"/>
      <point x="104" y="283" type="curve" smooth="yes"/>
      <point x="117" y="298"/>
      <point x="126" y="307"/>
      <point x="132" y="311" type="curve" smooth="yes"/>
      <point x="161" y="334"/>
      <point x="200" y="343"/>
      <point x="253" y="343" type="curve" smooth="yes"/>
      <point x="358" y="343"/>
      <point x="410" y="292"/>
      <point x="410" y="190" type="curve" smooth="yes"/>
      <point x="410" y="99"/>
      <point x="342" y="39"/>
      <point x="234" y="39" type="curve" smooth="yes"/>
      <point x="165" y="39"/>
      <point x="118" y="65"/>
      <point x="102" y="121" type="curve" smooth="yes"/>
      <point x="89" y="165" type="line"/>
      <point x="81" y="178"/>
      <point x="70" y="184"/>
      <point x="57" y="184" type="curve" smooth="yes"/>
      <point x="38" y="184"/>
      <point x="28" y="173"/>
      <point x="28" y="152" type="curve" smooth="yes"/>
      <point x="28" y="106"/>
      <point x="47" y="66"/>
      <point x="84" y="33" type="curve" smooth="yes"/>
      <point x="121" y="0"/>
      <point x="171" y="-16"/>
      <point x="233" y="-16" type="curve" smooth="yes"/>
      <point x="302" y="-16"/>
      <point x="364" y="1"/>
      <point x="403" y="33" type="curve" smooth="yes"/>
      <point x="448" y="69"/>
      <point x="469" y="120"/>
    </contour>
  </outline>
</glyph>
<glyph name="six" format="1">
  <advance width="507"/>
  <unicode hex="0036"/>
  <outline>
    <contour>
      <point x="406" y="181" type="curve" smooth="yes" name="hr00"/>
      <point x="406" y="92"/>
      <point x="347" y="39"/>
      <point x="251" y="39" type="curve" smooth="yes"/>
      <point x="151" y="39"/>
      <point x="101" y="85"/>
      <point x="101" y="178" type="curve" smooth="yes"/>
      <point x="101" y="217"/>
      <point x="107" y="245"/>
      <point x="119" y="262" type="curve" smooth="yes"/>
      <point x="148" y="304"/>
      <point x="196" y="325"/>
      <point x="264" y="325" type="curve" smooth="yes"/>
      <point x="311" y="325"/>
      <point x="346" y="311"/>
      <point x="370" y="282" type="curve" smooth="yes"/>
      <point x="394" y="254"/>
      <point x="406" y="220"/>
    </contour>
    <contour>
      <point x="466" y="180" type="curve" smooth="yes"/>
      <point x="466" y="241"/>
      <point x="448" y="291"/>
      <point x="412" y="328" type="curve" smooth="yes"/>
      <point x="376" y="365"/>
      <point x="330" y="384"/>
      <point x="275" y="384" type="curve" smooth="yes"/>
      <point x="178" y="384"/>
      <point x="115" y="359"/>
      <point x="86" y="310" type="curve"/>
      <point x="86" y="448"/>
      <point x="144" y="517"/>
      <point x="259" y="517" type="curve" smooth="yes"/>
      <point x="305" y="517"/>
      <point x="338" y="508"/>
      <point x="358" y="490" type="curve"/>
      <point x="366" y="481"/>
      <point x="374" y="462"/>
      <point x="384" y="433" type="curve" smooth="yes"/>
      <point x="392" y="410"/>
      <point x="406" y="398"/>
      <point x="421" y="398" type="curve" smooth="yes"/>
      <point x="439" y="399"/>
      <point x="448" y="409"/>
      <point x="448" y="426" type="curve" smooth="yes"/>
      <point x="448" y="461"/>
      <point x="433" y="494"/>
      <point x="403" y="523" type="curve" smooth="yes"/>
      <point x="368" y="557"/>
      <point x="321" y="574"/>
      <point x="264" y="574" type="curve" smooth="yes"/>
      <point x="185" y="574"/>
      <point x="126" y="551"/>
      <point x="89" y="505" type="curve" smooth="yes"/>
      <point x="48" y="452"/>
      <point x="27" y="378"/>
      <point x="27" y="281" type="curve" smooth="yes"/>
      <point x="27" y="83"/>
      <point x="97" y="-16"/>
      <point x="236" y="-16" type="curve" smooth="yes"/>
      <point x="389" y="-16"/>
      <point x="466" y="49"/>
    </contour>
  </outline>
</glyph>
<glyph name="seven" format="1">
  <advance width="509"/>
  <unicode hex="0037"/>
  <outline>
    <contour>
      <point x="457" y="470" type="curve" smooth="yes" name="hr00"/>
      <point x="465" y="478"/>
      <point x="469" y="489"/>
      <point x="469" y="504" type="curve" smooth="yes"/>
      <point x="469" y="530"/>
      <point x="458" y="543"/>
      <point x="437" y="543" type="curve" smooth="yes"/>
      <point x="51" y="543" type="line" smooth="yes"/>
      <point x="35" y="543"/>
      <point x="27" y="533"/>
      <point x="27" y="513" type="curve" smooth="yes"/>
      <point x="27" y="493"/>
      <point x="37" y="483"/>
      <point x="57" y="483" type="curve" smooth="yes"/>
      <point x="388" y="483" type="line"/>
      <point x="283" y="362"/>
      <point x="207" y="208"/>
      <point x="165" y="20" type="curve" smooth="yes"/>
      <point x="160" y="-4"/>
      <point x="172" y="-17"/>
      <point x="198" y="-16" type="curve" smooth="yes"/>
      <point x="217" y="-16"/>
      <point x="227" y="-7"/>
      <point x="229" y="8" type="curve" smooth="yes"/>
      <point x="240" y="91"/>
      <point x="270" y="180"/>
      <point x="320" y="274" type="curve" smooth="yes"/>
      <point x="363" y="355"/>
      <point x="410" y="419"/>
    </contour>
  </outline>
</glyph>
<glyph name="eight" format="1">
  <advance width="505"/>
  <unicode hex="0038"/>
  <outline>
    <contour>
      <point x="403" y="170" type="curve" smooth="yes" name="hr00"/>
      <point x="403" y="94"/>
      <point x="346" y="44"/>
      <point x="242" y="44" type="curve" smooth="yes"/>
      <point x="200" y="44"/>
      <point x="165" y="55"/>
      <point x="136" y="78" type="curve" smooth="yes"/>
      <point x="107" y="101"/>
      <point x="93" y="128"/>
      <point x="93" y="160" type="curve" smooth="yes"/>
      <point x="93" y="203"/>
      <point x="104" y="233"/>
      <point x="126" y="251" type="curve"/>
      <point x="151" y="267"/>
      <point x="190" y="275"/>
      <point x="241" y="275" type="curve" smooth="yes"/>
      <point x="296" y="275"/>
      <point x="333" y="271"/>
      <point x="354" y="263" type="curve" smooth="yes"/>
      <point x="387" y="250"/>
      <point x="403" y="219"/>
    </contour>
    <contour>
      <point x="382" y="424" type="curve" smooth="yes"/>
      <point x="382" y="363"/>
      <point x="335" y="333"/>
      <point x="242" y="333" type="curve" smooth="yes"/>
      <point x="155" y="333"/>
      <point x="111" y="364"/>
      <point x="111" y="426" type="curve" smooth="yes"/>
      <point x="111" y="481"/>
      <point x="158" y="524"/>
      <point x="258" y="524" type="curve" smooth="yes"/>
      <point x="341" y="524"/>
      <point x="382" y="491"/>
    </contour>
    <contour>
      <point x="463" y="170" type="curve" smooth="yes"/>
      <point x="463" y="243"/>
      <point x="438" y="292"/>
      <point x="389" y="317" type="curve"/>
      <point x="427" y="342"/>
      <point x="446" y="379"/>
      <point x="446" y="428" type="curve" smooth="yes"/>
      <point x="446" y="529"/>
      <point x="368" y="580"/>
      <point x="251" y="580" type="curve" smooth="yes"/>
      <point x="118" y="580"/>
      <point x="51" y="526"/>
      <point x="51" y="418" type="curve" smooth="yes"/>
      <point x="51" y="371"/>
      <point x="70" y="335"/>
      <point x="107" y="309" type="curve"/>
      <point x="54" y="285"/>
      <point x="27" y="239"/>
      <point x="27" y="172" type="curve" smooth="yes"/>
      <point x="27" y="56"/>
      <point x="109" y="-16"/>
      <point x="242" y="-16" type="curve" smooth="yes"/>
      <point x="375" y="-16"/>
      <point x="463" y="57"/>
    </contour>
  </outline>
</glyph>
<glyph name="nine" format="1">
  <advance width="513"/>
  <unicode hex="0039"/>
  <outline>
    <contour>
      <point x="399" y="371" type="curve" smooth="yes" name="hr00"/>
      <point x="399" y="287"/>
      <point x="337" y="235"/>
      <point x="233" y="235" type="curve" smooth="yes"/>
      <point x="135" y="235"/>
      <point x="86" y="284"/>
      <point x="86" y="381" type="curve" smooth="yes"/>
      <point x="86" y="424"/>
      <point x="100" y="459"/>
      <point x="127" y="486" type="curve" smooth="yes"/>
      <point x="152" y="512"/>
      <point x="189" y="525"/>
      <point x="238" y="525" type="curve" smooth="yes"/>
      <point x="345" y="525"/>
      <point x="399" y="474"/>
    </contour>
    <contour>
      <point x="471" y="303" type="curve" smooth="yes"/>
      <point x="471" y="488"/>
      <point x="395" y="581"/>
      <point x="242" y="581" type="curve" smooth="yes"/>
      <point x="101" y="581"/>
      <point x="27" y="495"/>
      <point x="27" y="374" type="curve" smooth="yes"/>
      <point x="27" y="327"/>
      <point x="39" y="284"/>
      <point x="66" y="248" type="curve" smooth="yes"/>
      <point x="102" y="200"/>
      <point x="155" y="177"/>
      <point x="221" y="177" type="curve" smooth="yes"/>
      <point x="324" y="177"/>
      <point x="387" y="200"/>
      <point x="410" y="247" type="curve"/>
      <point x="410" y="204"/>
      <point x="396" y="145"/>
      <point x="370" y="105" type="curve" smooth="yes"/>
      <point x="342" y="61"/>
      <point x="298" y="39"/>
      <point x="242" y="39" type="curve" smooth="yes"/>
      <point x="163" y="39"/>
      <point x="117" y="68"/>
      <point x="104" y="126" type="curve" smooth="yes"/>
      <point x="99" y="150"/>
      <point x="87" y="162"/>
      <point x="68" y="162" type="curve" smooth="yes"/>
      <point x="51" y="162"/>
      <point x="42" y="151"/>
      <point x="42" y="130" type="curve" smooth="yes"/>
      <point x="42" y="101"/>
      <point x="56" y="73"/>
      <point x="82" y="44" type="curve" smooth="yes"/>
      <point x="119" y="5"/>
      <point x="167" y="-16"/>
      <point x="230" y="-16" type="curve" smooth="yes"/>
      <point x="309" y="-16"/>
      <point x="368" y="6"/>
      <point x="406" y="51" type="curve" smooth="yes"/>
      <point x="450" y="103"/>
      <point x="471" y="187"/>
    </contour>
  </outline>
</glyph>
<glyph name="colon" format="1">
  <advance width="153"/>
  <unicode hex="003A"/>
  <outline>
    <contour>
      <point x="140" y="33" type="curve" smooth="yes" name="hr00"/>
      <point x="140" y="62"/>
      <point x="117" y="83"/>
      <point x="88" y="83" type="curve" smooth="yes"/>
      <point x="56" y="83"/>
      <point x="36" y="62"/>
      <point x="36" y="33" type="curve" smooth="yes"/>
      <point x="36" y="1"/>
      <point x="60" y="-16"/>
      <point x="88" y="-16" type="curve" smooth="yes"/>
      <point x="115" y="-16"/>
      <point x="140" y="5"/>
    </contour>
    <contour>
      <point x="140" y="345" type="curve" smooth="yes"/>
      <point x="140" y="370"/>
      <point x="117" y="394"/>
      <point x="88" y="394" type="curve" smooth="yes"/>
      <point x="53" y="394"/>
      <point x="36" y="378"/>
      <point x="36" y="345" type="curve" smooth="yes"/>
      <point x="36" y="313"/>
      <point x="60" y="294"/>
      <point x="88" y="294" type="curve" smooth="yes"/>
      <point x="115" y="294"/>
      <point x="140" y="317"/>
    </contour>
  </outline>
</glyph>
<glyph name="semicolon" format="1">
  <advance width="144"/>
  <unicode hex="003B"/>
  <outline>
    <contour>
      <point x="135" y="28" type="curve" smooth="yes" name="hr00"/>
      <point x="135" y="61"/>
      <point x="118" y="77"/>
      <point x="84" y="77" type="curve" smooth="yes"/>
      <point x="53" y="77"/>
      <point x="38" y="62"/>
      <point x="38" y="33" type="curve" smooth="yes"/>
      <point x="38" y="0"/>
      <point x="51" y="-16"/>
      <point x="78" y="-13" type="curve"/>
      <point x="77" y="-20"/>
      <point x="72" y="-29"/>
      <point x="62" y="-40" type="curve"/>
      <point x="39" y="-61"/>
      <point x="28" y="-73"/>
      <point x="28" y="-76" type="curve" smooth="yes"/>
      <point x="28" y="-96"/>
      <point x="51" y="-109"/>
      <point x="67" y="-98" type="curve"/>
      <point x="114" y="-73"/>
      <point x="135" y="-27"/>
    </contour>
    <contour>
      <point x="140" y="345" type="curve" smooth="yes"/>
      <point x="140" y="370"/>
      <point x="120" y="394"/>
      <point x="89" y="394" type="curve" smooth="yes"/>
      <point x="55" y="394"/>
      <point x="38" y="378"/>
      <point x="38" y="345" type="curve" smooth="yes"/>
      <point x="38" y="313"/>
      <point x="61" y="294"/>
      <point x="89" y="294" type="curve" smooth="yes"/>
      <point x="117" y="294"/>
      <point x="140" y="317"/>
    </contour>
  </outline>
</glyph>
<glyph name="equal" format="1">
  <advance width="441"/>
  <unicode hex="003D"/>
  <outline>
    <contour>
      <point x="58" y="152" type="line" smooth="yes" name="hr00"/>
      <point x="37" y="152"/>
      <point x="27" y="141"/>
      <point x="27" y="120" type="curve" smooth="yes"/>
      <point x="27" y="104"/>
      <point x="36" y="96"/>
      <point x="54" y="96" type="curve" smooth="yes"/>
      <point x="373" y="96" type="line" smooth="yes"/>
      <point x="389" y="96"/>
      <point x="397" y="105"/>
      <point x="397" y="124" type="curve" smooth="yes"/>
      <point x="397" y="143"/>
      <point x="391" y="152"/>
      <point x="378" y="152" type="curve" smooth="yes"/>
    </contour>
    <contour>
      <point x="58" y="333" type="line" smooth="yes"/>
      <point x="37" y="333"/>
      <point x="27" y="323"/>
      <point x="27" y="303" type="curve" smooth="yes"/>
      <point x="27" y="286"/>
      <point x="36" y="278"/>
      <point x="54" y="278" type="curve" smooth="yes"/>
      <point x="373" y="278" type="line" smooth="yes"/>
      <point x="389" y="278"/>
      <point x="397" y="287"/>
      <point x="397" y="306" type="curve" smooth="yes"/>
      <point x="397" y="324"/>
      <point x="391" y="333"/>
      <point x="378" y="333" type="curve" smooth="yes"/>
    </contour>
  </outline>
</glyph>
<glyph name="question" format="1">
  <advance width="475"/>
  <unicode hex="003F"/>
  <outline>
    <contour>
      <point x="299" y="28" type="curve" smooth="yes" name="hr00"/>
      <point x="299" y="59"/>
      <point x="284" y="75"/>
      <point x="254" y="75" type="curve" smooth="yes"/>
      <point x="223" y="75"/>
      <point x="207" y="59"/>
      <point x="207" y="28" type="curve" smooth="yes"/>
      <point x="207" y="-1"/>
      <point x="222" y="-16"/>
      <point x="253" y="-16" type="curve" smooth="yes"/>
      <point x="280" y="-16"/>
      <point x="299" y="1"/>
    </contour>
    <contour>
      <point x="457" y="419" type="curve" smooth="yes"/>
      <point x="457" y="467"/>
      <point x="443" y="505"/>
      <point x="416" y="534" type="curve" smooth="yes"/>
      <point x="381" y="573"/>
      <point x="326" y="592"/>
      <point x="250" y="592" type="curve" smooth="yes"/>
      <point x="122" y="592"/>
      <point x="51" y="507"/>
      <point x="51" y="379" type="curve" smooth="yes"/>
      <point x="51" y="360"/>
      <point x="61" y="337"/>
      <point x="78" y="337" type="curve" smooth="yes"/>
      <point x="100" y="337"/>
      <point x="111" y="349"/>
      <point x="111" y="372" type="curve" smooth="yes"/>
      <point x="111" y="471"/>
      <point x="151" y="530"/>
      <point x="258" y="530" type="curve" smooth="yes"/>
      <point x="361" y="530"/>
      <point x="402" y="493"/>
      <point x="402" y="408" type="curve" smooth="yes"/>
      <point x="402" y="373"/>
      <point x="387" y="347"/>
      <point x="358" y="331" type="curve" smooth="yes"/>
      <point x="341" y="321"/>
      <point x="315" y="307"/>
      <point x="278" y="290" type="curve"/>
      <point x="243" y="262"/>
      <point x="223" y="203"/>
      <point x="223" y="139" type="curve" smooth="yes"/>
      <point x="223" y="120"/>
      <point x="233" y="103"/>
      <point x="253" y="103" type="curve" smooth="yes"/>
      <point x="274" y="103"/>
      <point x="285" y="114"/>
      <point x="285" y="136" type="curve"/>
      <point x="282" y="168" type="line"/>
      <point x="282" y="213"/>
      <point x="311" y="247"/>
      <point x="369" y="269" type="curve" smooth="yes"/>
      <point x="428" y="291"/>
      <point x="457" y="341"/>
    </contour>
  </outline>
</glyph>
<glyph name="KaHalanth" format="1">
  <advance width="508"/>
  <unicode hex="0953"/>
  <outline>
    <contour>
      <point x="321" y="431" type="line" name="hr00"/>
      <point x="175" y="431" type="line" smooth="yes"/>
      <point x="170" y="431"/>
      <point x="166" y="433"/>
      <point x="163" y="436" type="curve" smooth="yes"/>
      <point x="160" y="441"/>
      <point x="158" y="445"/>
      <point x="158" y="450" type="curve" smooth="yes"/>
      <point x="158" y="459"/>
      <point x="161" y="466"/>
      <point x="166" y="471" type="curve" smooth="yes"/>
      <point x="172" y="477"/>
      <point x="179" y="480"/>
      <point x="188" y="480" type="curve" smooth="yes"/>
      <point x="388" y="480" type="line"/>
      <point x="388" y="540" type="line"/>
      <point x="188" y="540" type="line" smooth="yes"/>
      <point x="179" y="540"/>
      <point x="172" y="543"/>
      <point x="166" y="548" type="curve" smooth="yes"/>
      <point x="161" y="553"/>
      <point x="158" y="558"/>
      <point x="158" y="565" type="curve" smooth="yes"/>
      <point x="158" y="572"/>
      <point x="161" y="577"/>
      <point x="166" y="581" type="curve" smooth="yes"/>
      <point x="172" y="586"/>
      <point x="179" y="589"/>
      <point x="188" y="589" type="curve" smooth="yes"/>
      <point x="473" y="589" type="line"/>
      <point x="473" y="650" type="line"/>
      <point x="163" y="650" type="line" smooth="yes"/>
      <point x="144" y="650"/>
      <point x="129" y="643"/>
      <point x="116" y="629" type="curve" smooth="yes"/>
      <point x="103" y="615"/>
      <point x="96" y="598"/>
      <point x="96" y="578" type="curve" smooth="yes"/>
      <point x="96" y="567"/>
      <point x="99" y="556"/>
      <point x="106" y="545" type="curve" smooth="yes"/>
      <point x="112" y="534"/>
      <point x="121" y="525"/>
      <point x="133" y="516" type="curve"/>
      <point x="121" y="509"/>
      <point x="112" y="499"/>
      <point x="106" y="488" type="curve" smooth="yes"/>
      <point x="99" y="476"/>
      <point x="96" y="463"/>
      <point x="96" y="450" type="curve" smooth="yes"/>
      <point x="96" y="430"/>
      <point x="104" y="413"/>
      <point x="119" y="398" type="curve" smooth="yes"/>
      <point x="120" y="396"/>
      <point x="122" y="395"/>
      <point x="123" y="394" type="curve"/>
      <point x="85" y="369"/>
      <point x="66" y="339"/>
      <point x="66" y="304" type="curve" smooth="yes"/>
      <point x="66" y="277"/>
      <point x="79" y="254"/>
      <point x="104" y="235" type="curve" smooth="yes"/>
      <point x="129" y="216"/>
      <point x="159" y="206"/>
      <point x="194" y="206" type="curve" smooth="yes"/>
      <point x="345" y="206" type="line" smooth="yes"/>
      <point x="368" y="206"/>
      <point x="388" y="200"/>
      <point x="405" y="189" type="curve" smooth="yes"/>
      <point x="422" y="177"/>
      <point x="430" y="163"/>
      <point x="430" y="146" type="curve" smooth="yes"/>
      <point x="430" y="122"/>
      <point x="415" y="103"/>
      <point x="384" y="89" type="curve" smooth="yes"/>
      <point x="353" y="75"/>
      <point x="312" y="68"/>
      <point x="260" y="68" type="curve" smooth="yes"/>
      <point x="213" y="68"/>
      <point x="173" y="75"/>
      <point x="140" y="90" type="curve" smooth="yes"/>
      <point x="107" y="106"/>
      <point x="90" y="125"/>
      <point x="90" y="146" type="curve"/>
      <point x="30" y="146" type="line"/>
      <point x="30" y="101"/>
      <point x="51" y="63"/>
      <point x="93" y="35" type="curve" smooth="yes"/>
      <point x="135" y="7"/>
      <point x="191" y="-6"/>
      <point x="260" y="-6" type="curve" smooth="yes"/>
      <point x="333" y="-6"/>
      <point x="390" y="7"/>
      <point x="430" y="34" type="curve" smooth="yes"/>
      <point x="471" y="61"/>
      <point x="491" y="98"/>
      <point x="491" y="146" type="curve" smooth="yes"/>
      <point x="491" y="183"/>
      <point x="478" y="212"/>
      <point x="453" y="235" type="curve" smooth="yes"/>
      <point x="428" y="257"/>
      <point x="394" y="268"/>
      <point x="351" y="268" type="curve" smooth="yes"/>
      <point x="200" y="268" type="line" smooth="yes"/>
      <point x="180" y="268"/>
      <point x="163" y="272"/>
      <point x="148" y="280" type="curve" smooth="yes"/>
      <point x="133" y="289"/>
      <point x="126" y="299"/>
      <point x="126" y="310" type="curve" smooth="yes"/>
      <point x="126" y="325"/>
      <point x="139" y="338"/>
      <point x="165" y="348" type="curve" smooth="yes"/>
      <point x="191" y="359"/>
      <point x="222" y="364"/>
      <point x="259" y="364" type="curve" smooth="yes"/>
      <point x="295" y="364"/>
      <point x="326" y="358"/>
      <point x="351" y="346" type="curve" smooth="yes"/>
      <point x="376" y="335"/>
      <point x="391" y="321"/>
      <point x="394" y="304" type="curve"/>
      <point x="455" y="304" type="line"/>
      <point x="455" y="339"/>
      <point x="436" y="369"/>
      <point x="399" y="394" type="curve" smooth="yes"/>
      <point x="376" y="409"/>
      <point x="350" y="419"/>
      <point x="321" y="425" type="curve"/>
    </contour>
  </outline>
</glyph>
<glyph name="Arasunna" format="1">
  <advance width="287"/>
  <unicode hex="0C01"/>
  <outline>
    <contour>
      <point x="276" y="0" type="line" name="hr00"/>
      <point x="276" y="61" type="line"/>
      <point x="233" y="61" type="line" smooth="yes"/>
      <point x="195" y="61"/>
      <point x="163" y="76"/>
      <point x="136" y="105" type="curve" smooth="yes"/>
      <point x="108" y="135"/>
      <point x="94" y="171"/>
      <point x="94" y="213" type="curve" smooth="yes"/>
      <point x="94" y="254"/>
      <point x="106" y="290"/>
      <point x="133" y="320" type="curve" smooth="yes"/>
      <point x="159" y="349"/>
      <point x="191" y="364"/>
      <point x="228" y="364" type="curve" smooth="yes"/>
      <point x="252" y="364" type="line"/>
      <point x="252" y="425" type="line"/>
      <point x="209" y="425" type="line" smooth="yes"/>
      <point x="161" y="425"/>
      <point x="118" y="404"/>
      <point x="84" y="363" type="curve" smooth="yes"/>
      <point x="49" y="321"/>
      <point x="33" y="271"/>
      <point x="33" y="213" type="curve" smooth="yes"/>
      <point x="33" y="154"/>
      <point x="50" y="104"/>
      <point x="84" y="63" type="curve" smooth="yes"/>
      <point x="119" y="21"/>
      <point x="161" y="0"/>
      <point x="209" y="0" type="curve" smooth="yes"/>
    </contour>
  </outline>
</glyph>
<glyph name="Anusvara" format="1">
  <advance width="530"/>
  <unicode hex="0C02"/>
  <outline>
    <contour>
      <point x="268" y="61" type="curve" smooth="yes" name="hr00"/>
      <point x="219" y="61"/>
      <point x="178" y="76"/>
      <point x="143" y="105" type="curve" smooth="yes"/>
      <point x="108" y="135"/>
      <point x="91" y="171"/>
      <point x="91" y="213" type="curve" smooth="yes"/>
      <point x="91" y="256"/>
      <point x="108" y="293"/>
      <point x="143" y="324" type="curve" smooth="yes"/>
      <point x="178" y="355"/>
      <point x="219" y="370"/>
      <point x="268" y="370" type="curve" smooth="yes"/>
      <point x="316" y="370"/>
      <point x="358" y="355"/>
      <point x="393" y="324" type="curve" smooth="yes"/>
      <point x="427" y="293"/>
      <point x="444" y="256"/>
      <point x="444" y="213" type="curve" smooth="yes"/>
      <point x="444" y="171"/>
      <point x="427" y="134"/>
      <point x="393" y="105" type="curve" smooth="yes"/>
      <point x="358" y="75"/>
      <point x="316" y="61"/>
    </contour>
    <contour>
      <point x="268" y="0" type="curve" smooth="yes"/>
      <point x="333" y="0"/>
      <point x="388" y="21"/>
      <point x="435" y="63" type="curve" smooth="yes"/>
      <point x="481" y="104"/>
      <point x="504" y="154"/>
      <point x="504" y="213" type="curve" smooth="yes"/>
      <point x="504" y="271"/>
      <point x="481" y="322"/>
      <point x="435" y="363" type="curve" smooth="yes"/>
      <point x="388" y="405"/>
      <point x="333" y="425"/>
      <point x="268" y="425" type="curve" smooth="yes"/>
      <point x="202" y="425"/>
      <point x="146" y="404"/>
      <point x="100" y="363" type="curve" smooth="yes"/>
      <point x="53" y="321"/>
      <point x="30" y="271"/>
      <point x="30" y="213" type="curve" smooth="yes"/>
      <point x="30" y="154"/>
      <point x="53" y="105"/>
      <point x="100" y="63" type="curve" smooth="yes"/>
      <point x="146" y="22"/>
      <point x="202" y="0"/>
    </contour>
  </outline>
</glyph>
<glyph name="Visarga" format="1">
  <advance width="298"/>
  <unicode hex="0C03"/>
  <outline>
    <contour>
      <point x="150" y="304" type="curve" smooth="yes" name="hr00"/>
      <point x="135" y="304"/>
      <point x="123" y="307"/>
      <point x="113" y="313" type="curve"/>
      <point x="102" y="318"/>
      <point x="96" y="325"/>
      <point x="96" y="334" type="curve" smooth="yes"/>
      <point x="96" y="342"/>
      <point x="102" y="349"/>
      <point x="113" y="355" type="curve" smooth="yes"/>
      <point x="123" y="361"/>
      <point x="135" y="364"/>
      <point x="150" y="364" type="curve" smooth="yes"/>
      <point x="165" y="364"/>
      <point x="178" y="361"/>
      <point x="189" y="355" type="curve" smooth="yes"/>
      <point x="200" y="349"/>
      <point x="205" y="342"/>
      <point x="205" y="334" type="curve" smooth="yes"/>
      <point x="205" y="325"/>
      <point x="200" y="318"/>
      <point x="189" y="313" type="curve" smooth="yes"/>
      <point x="178" y="307"/>
      <point x="165" y="304"/>
    </contour>
    <contour>
      <point x="150" y="243" type="curve" smooth="yes"/>
      <point x="183" y="243"/>
      <point x="210" y="251"/>
      <point x="233" y="269" type="curve" smooth="yes"/>
      <point x="255" y="286"/>
      <point x="266" y="309"/>
      <point x="266" y="334" type="curve" smooth="yes"/>
      <point x="266" y="359"/>
      <point x="256" y="381"/>
      <point x="233" y="399" type="curve" smooth="yes"/>
      <point x="211" y="417"/>
      <point x="183" y="425"/>
      <point x="150" y="425" type="curve" smooth="yes"/>
      <point x="119" y="425"/>
      <point x="92" y="417"/>
      <point x="69" y="399" type="curve" smooth="yes"/>
      <point x="46" y="381"/>
      <point x="35" y="359"/>
      <point x="35" y="334" type="curve" smooth="yes"/>
      <point x="35" y="309"/>
      <point x="46" y="287"/>
      <point x="69" y="269" type="curve" smooth="yes"/>
      <point x="92" y="252"/>
      <point x="119" y="243"/>
    </contour>
    <contour>
      <point x="150" y="61" type="curve" smooth="yes"/>
      <point x="135" y="61"/>
      <point x="123" y="64"/>
      <point x="113" y="70" type="curve" smooth="yes"/>
      <point x="102" y="76"/>
      <point x="96" y="83"/>
      <point x="96" y="91" type="curve" smooth="yes"/>
      <point x="96" y="100"/>
      <point x="102" y="107"/>
      <point x="113" y="113" type="curve" smooth="yes"/>
      <point x="123" y="118"/>
      <point x="135" y="121"/>
      <point x="150" y="121" type="curve" smooth="yes"/>
      <point x="165" y="121"/>
      <point x="178" y="118"/>
      <point x="189" y="113" type="curve" smooth="yes"/>
      <point x="200" y="107"/>
      <point x="205" y="100"/>
      <point x="205" y="91" type="curve" smooth="yes"/>
      <point x="205" y="83"/>
      <point x="200" y="76"/>
      <point x="189" y="70" type="curve" smooth="yes"/>
      <point x="178" y="64"/>
      <point x="165" y="61"/>
    </contour>
    <contour>
      <point x="150" y="0" type="curve" smooth="yes"/>
      <point x="183" y="0"/>
      <point x="211" y="8"/>
      <point x="233" y="26" type="curve" smooth="yes"/>
      <point x="256" y="44"/>
      <point x="266" y="66"/>
      <point x="266" y="91" type="curve" smooth="yes"/>
      <point x="266" y="116"/>
      <point x="255" y="138"/>
      <point x="233" y="156" type="curve" smooth="yes"/>
      <point x="210" y="174"/>
      <point x="183" y="183"/>
      <point x="150" y="183" type="curve" smooth="yes"/>
      <point x="119" y="183"/>
      <point x="92" y="174"/>
      <point x="69" y="156" type="curve" smooth="yes"/>
      <point x="46" y="138"/>
      <point x="35" y="116"/>
      <point x="35" y="91" type="curve" smooth="yes"/>
      <point x="35" y="66"/>
      <point x="46" y="44"/>
      <point x="69" y="26" type="curve" smooth="yes"/>
      <point x="92" y="8"/>
      <point x="119" y="0"/>
    </contour>
  </outline>
</glyph>
<glyph name="uni0C05" format="1">
  <advance width="630"/>
  <unicode hex="0C05"/>
  <outline>
    <contour>
      <point x="188" y="279" type="curve" smooth="yes" name="hr00"/>
      <point x="175" y="279"/>
      <point x="163" y="283"/>
      <point x="154" y="291" type="curve" smooth="yes"/>
      <point x="145" y="300"/>
      <point x="140" y="310"/>
      <point x="140" y="321" type="curve" smooth="yes"/>
      <point x="140" y="334"/>
      <point x="145" y="346"/>
      <point x="154" y="356" type="curve" smooth="yes"/>
      <point x="163" y="365"/>
      <point x="175" y="370"/>
      <point x="188" y="370" type="curve" smooth="yes"/>
      <point x="201" y="370"/>
      <point x="213" y="365"/>
      <point x="223" y="356" type="curve"/>
      <point x="232" y="346"/>
      <point x="236" y="334"/>
      <point x="236" y="321" type="curve" smooth="yes"/>
      <point x="236" y="310"/>
      <point x="232" y="300"/>
      <point x="223" y="291" type="curve"/>
      <point x="213" y="283"/>
      <point x="201" y="279"/>
    </contour>
    <contour>
      <point x="340" y="0" type="curve" smooth="yes"/>
      <point x="415" y="0"/>
      <point x="480" y="24"/>
      <point x="533" y="71" type="curve" smooth="yes"/>
      <point x="586" y="119"/>
      <point x="613" y="176"/>
      <point x="613" y="243" type="curve" smooth="yes"/>
      <point x="613" y="293"/>
      <point x="596" y="336"/>
      <point x="563" y="371" type="curve" smooth="yes"/>
      <point x="530" y="407"/>
      <point x="490" y="425"/>
      <point x="443" y="425" type="curve" smooth="yes"/>
      <point x="408" y="425"/>
      <point x="378" y="414"/>
      <point x="353" y="391" type="curve" smooth="yes"/>
      <point x="328" y="369"/>
      <point x="315" y="342"/>
      <point x="315" y="310" type="curve" smooth="yes"/>
      <point x="315" y="285"/>
      <point x="320" y="262"/>
      <point x="331" y="241" type="curve" smooth="yes"/>
      <point x="342" y="220"/>
      <point x="357" y="205"/>
      <point x="376" y="194" type="curve"/>
      <point x="188" y="194" type="line"/>
      <point x="188" y="134" type="line"/>
      <point x="443" y="134" type="line"/>
      <point x="443" y="219" type="line"/>
      <point x="421" y="224"/>
      <point x="403" y="234"/>
      <point x="390" y="250" type="curve" smooth="yes"/>
      <point x="377" y="266"/>
      <point x="370" y="284"/>
      <point x="370" y="304" type="curve" smooth="yes"/>
      <point x="370" y="322"/>
      <point x="377" y="337"/>
      <point x="391" y="350" type="curve" smooth="yes"/>
      <point x="406" y="363"/>
      <point x="423" y="370"/>
      <point x="443" y="370" type="curve" smooth="yes"/>
      <point x="473" y="370"/>
      <point x="499" y="356"/>
      <point x="520" y="329" type="curve" smooth="yes"/>
      <point x="542" y="302"/>
      <point x="553" y="270"/>
      <point x="553" y="231" type="curve" smooth="yes"/>
      <point x="553" y="183"/>
      <point x="530" y="141"/>
      <point x="483" y="106" type="curve" smooth="yes"/>
      <point x="437" y="72"/>
      <point x="381" y="55"/>
      <point x="315" y="55" type="curve" smooth="yes"/>
      <point x="257" y="55"/>
      <point x="205" y="71"/>
      <point x="159" y="106" type="curve" smooth="yes"/>
      <point x="114" y="140"/>
      <point x="91" y="181"/>
      <point x="91" y="225" type="curve" smooth="yes"/>
      <point x="91" y="237"/>
      <point x="92" y="246"/>
      <point x="93" y="253" type="curve" smooth="yes"/>
      <point x="94" y="260"/>
      <point x="95" y="265"/>
      <point x="98" y="268" type="curve"/>
      <point x="105" y="253"/>
      <point x="117" y="241"/>
      <point x="134" y="233" type="curve" smooth="yes"/>
      <point x="151" y="224"/>
      <point x="171" y="219"/>
      <point x="194" y="219" type="curve" smooth="yes"/>
      <point x="222" y="219"/>
      <point x="248" y="229"/>
      <point x="268" y="250" type="curve" smooth="yes"/>
      <point x="289" y="272"/>
      <point x="298" y="298"/>
      <point x="298" y="328" type="curve" smooth="yes"/>
      <point x="298" y="356"/>
      <point x="289" y="380"/>
      <point x="268" y="401" type="curve" smooth="yes"/>
      <point x="247" y="422"/>
      <point x="222" y="431"/>
      <point x="194" y="431" type="curve" smooth="yes"/>
      <point x="145" y="431"/>
      <point x="105" y="414"/>
      <point x="75" y="380" type="curve" smooth="yes"/>
      <point x="45" y="346"/>
      <point x="30" y="300"/>
      <point x="30" y="243" type="curve" smooth="yes"/>
      <point x="30" y="170"/>
      <point x="58" y="111"/>
      <point x="115" y="66" type="curve" smooth="yes"/>
      <point x="171" y="22"/>
      <point x="246" y="0"/>
    </contour>
  </outline>
</glyph>
<glyph name="AA" format="1">
  <advance width="600"/>
  <unicode hex="0C06"/>
  <outline>
    <contour>
      <point x="468" y="274" type="curve" smooth="yes" name="hr00"/>
      <point x="455" y="274"/>
      <point x="443" y="279"/>
      <point x="433" y="288" type="curve" smooth="yes"/>
      <point x="424" y="297"/>
      <point x="419" y="308"/>
      <point x="419" y="321" type="curve" smooth="yes"/>
      <point x="419" y="333"/>
      <point x="424" y="343"/>
      <point x="433" y="351" type="curve" smooth="yes"/>
      <point x="443" y="360"/>
      <point x="455" y="364"/>
      <point x="468" y="364" type="curve" smooth="yes"/>
      <point x="481" y="364"/>
      <point x="493" y="360"/>
      <point x="503" y="351" type="curve" smooth="yes"/>
      <point x="512" y="343"/>
      <point x="516" y="333"/>
      <point x="516" y="321" type="curve" smooth="yes"/>
      <point x="516" y="308"/>
      <point x="512" y="297"/>
      <point x="503" y="288" type="curve" smooth="yes"/>
      <point x="493" y="279"/>
      <point x="481" y="274"/>
    </contour>
    <contour>
      <point x="188" y="279" type="curve" smooth="yes"/>
      <point x="173" y="279"/>
      <point x="160" y="283"/>
      <point x="150" y="291" type="curve" smooth="yes"/>
      <point x="139" y="300"/>
      <point x="134" y="310"/>
      <point x="134" y="321" type="curve" smooth="yes"/>
      <point x="134" y="334"/>
      <point x="139" y="346"/>
      <point x="150" y="356" type="curve" smooth="yes"/>
      <point x="160" y="365"/>
      <point x="173" y="370"/>
      <point x="188" y="370" type="curve" smooth="yes"/>
      <point x="201" y="370"/>
      <point x="213" y="365"/>
      <point x="223" y="356" type="curve"/>
      <point x="232" y="346"/>
      <point x="236" y="334"/>
      <point x="236" y="321" type="curve" smooth="yes"/>
      <point x="236" y="310"/>
      <point x="232" y="300"/>
      <point x="223" y="291" type="curve"/>
      <point x="213" y="283"/>
      <point x="201" y="279"/>
    </contour>
    <contour>
      <point x="334" y="0" type="curve" smooth="yes"/>
      <point x="409" y="0"/>
      <point x="469" y="13"/>
      <point x="515" y="40" type="curve" smooth="yes"/>
      <point x="560" y="67"/>
      <point x="583" y="102"/>
      <point x="583" y="146" type="curve" smooth="yes"/>
      <point x="583" y="165"/>
      <point x="580" y="183"/>
      <point x="573" y="199" type="curve" smooth="yes"/>
      <point x="567" y="214"/>
      <point x="558" y="226"/>
      <point x="546" y="236" type="curve"/>
      <point x="556" y="246"/>
      <point x="564" y="259"/>
      <point x="569" y="274" type="curve" smooth="yes"/>
      <point x="574" y="288"/>
      <point x="576" y="304"/>
      <point x="576" y="321" type="curve" smooth="yes"/>
      <point x="576" y="350"/>
      <point x="565" y="375"/>
      <point x="543" y="395" type="curve" smooth="yes"/>
      <point x="520" y="416"/>
      <point x="493" y="425"/>
      <point x="461" y="425" type="curve" smooth="yes"/>
      <point x="433" y="425"/>
      <point x="409" y="415"/>
      <point x="388" y="396" type="curve" smooth="yes"/>
      <point x="368" y="377"/>
      <point x="358" y="355"/>
      <point x="358" y="328" type="curve" smooth="yes"/>
      <point x="358" y="307"/>
      <point x="363" y="287"/>
      <point x="373" y="270" type="curve" smooth="yes"/>
      <point x="383" y="253"/>
      <point x="396" y="240"/>
      <point x="413" y="231" type="curve"/>
      <point x="261" y="231" type="line"/>
      <point x="261" y="170" type="line"/>
      <point x="425" y="170" type="line" smooth="yes"/>
      <point x="441" y="170"/>
      <point x="455" y="172"/>
      <point x="468" y="176" type="curve"/>
      <point x="480" y="181"/>
      <point x="490" y="187"/>
      <point x="498" y="194" type="curve"/>
      <point x="505" y="191"/>
      <point x="511" y="185"/>
      <point x="516" y="176" type="curve" smooth="yes"/>
      <point x="521" y="169"/>
      <point x="523" y="160"/>
      <point x="523" y="151" type="curve" smooth="yes"/>
      <point x="523" y="122"/>
      <point x="504" y="99"/>
      <point x="466" y="81" type="curve" smooth="yes"/>
      <point x="428" y="64"/>
      <point x="378" y="55"/>
      <point x="315" y="55" type="curve" smooth="yes"/>
      <point x="254" y="55"/>
      <point x="201" y="72"/>
      <point x="158" y="105" type="curve" smooth="yes"/>
      <point x="113" y="138"/>
      <point x="91" y="178"/>
      <point x="91" y="225" type="curve" smooth="yes"/>
      <point x="91" y="234"/>
      <point x="92" y="242"/>
      <point x="93" y="249" type="curve" smooth="yes"/>
      <point x="94" y="255"/>
      <point x="96" y="259"/>
      <point x="98" y="261" type="curve"/>
      <point x="103" y="248"/>
      <point x="115" y="237"/>
      <point x="133" y="230" type="curve" smooth="yes"/>
      <point x="150" y="223"/>
      <point x="171" y="219"/>
      <point x="194" y="219" type="curve" smooth="yes"/>
      <point x="222" y="219"/>
      <point x="248" y="229"/>
      <point x="268" y="250" type="curve" smooth="yes"/>
      <point x="289" y="272"/>
      <point x="298" y="298"/>
      <point x="298" y="328" type="curve" smooth="yes"/>
      <point x="298" y="356"/>
      <point x="289" y="380"/>
      <point x="268" y="401" type="curve" smooth="yes"/>
      <point x="247" y="422"/>
      <point x="222" y="431"/>
      <point x="194" y="431" type="curve" smooth="yes"/>
      <point x="145" y="431"/>
      <point x="105" y="414"/>
      <point x="75" y="380" type="curve" smooth="yes"/>
      <point x="45" y="346"/>
      <point x="30" y="300"/>
      <point x="30" y="243" type="curve" smooth="yes"/>
      <point x="30" y="170"/>
      <point x="58" y="111"/>
      <point x="113" y="66" type="curve" smooth="yes"/>
      <point x="168" y="22"/>
      <point x="242" y="0"/>
    </contour>
  </outline>
</glyph>
<glyph name="uni0C07" format="1">
  <advance width="557"/>
  <unicode hex="0C07"/>
  <outline>
    <contour>
      <point x="274" y="61" type="curve" smooth="yes" name="hr00"/>
      <point x="221" y="61"/>
      <point x="178" y="68"/>
      <point x="146" y="83" type="curve" smooth="yes"/>
      <point x="114" y="97"/>
      <point x="98" y="116"/>
      <point x="98" y="140" type="curve" smooth="yes"/>
      <point x="98" y="155"/>
      <point x="107" y="168"/>
      <point x="124" y="178" type="curve" smooth="yes"/>
      <point x="142" y="189"/>
      <point x="164" y="194"/>
      <point x="189" y="194" type="curve" smooth="yes"/>
      <point x="255" y="194" type="line" smooth="yes"/>
      <point x="287" y="194"/>
      <point x="314" y="183"/>
      <point x="336" y="165" type="curve" smooth="yes"/>
      <point x="359" y="146"/>
      <point x="370" y="125"/>
      <point x="370" y="98" type="curve" smooth="yes"/>
      <point x="370" y="73" type="line"/>
      <point x="353" y="65"/>
      <point x="321" y="61"/>
    </contour>
    <contour>
      <point x="273" y="0" type="line" smooth="yes"/>
      <point x="328" y="0"/>
      <point x="361" y="3"/>
      <point x="370" y="10" type="curve"/>
      <point x="370" y="-61" type="line"/>
      <point x="431" y="-61" type="line"/>
      <point x="431" y="30" type="line"/>
      <point x="464" y="46"/>
      <point x="491" y="73"/>
      <point x="510" y="110" type="curve" smooth="yes"/>
      <point x="530" y="147"/>
      <point x="540" y="189"/>
      <point x="540" y="236" type="curve" smooth="yes"/>
      <point x="540" y="289"/>
      <point x="523" y="333"/>
      <point x="489" y="370" type="curve" smooth="yes"/>
      <point x="454" y="407"/>
      <point x="412" y="425"/>
      <point x="364" y="425" type="curve" smooth="yes"/>
      <point x="341" y="425"/>
      <point x="320" y="422"/>
      <point x="301" y="413" type="curve" smooth="yes"/>
      <point x="283" y="405"/>
      <point x="270" y="391"/>
      <point x="261" y="376" type="curve"/>
      <point x="253" y="391"/>
      <point x="240" y="405"/>
      <point x="223" y="413" type="curve" smooth="yes"/>
      <point x="205" y="422"/>
      <point x="185" y="425"/>
      <point x="164" y="425" type="curve" smooth="yes"/>
      <point x="127" y="425"/>
      <point x="96" y="414"/>
      <point x="69" y="390" type="curve" smooth="yes"/>
      <point x="43" y="367"/>
      <point x="30" y="337"/>
      <point x="30" y="304" type="curve"/>
      <point x="91" y="304" type="line"/>
      <point x="91" y="321"/>
      <point x="98" y="335"/>
      <point x="111" y="346" type="curve" smooth="yes"/>
      <point x="124" y="358"/>
      <point x="139" y="364"/>
      <point x="158" y="364" type="curve" smooth="yes"/>
      <point x="179" y="364"/>
      <point x="195" y="359"/>
      <point x="206" y="348" type="curve" smooth="yes"/>
      <point x="219" y="336"/>
      <point x="225" y="322"/>
      <point x="225" y="304" type="curve"/>
      <point x="285" y="304" type="line"/>
      <point x="285" y="322"/>
      <point x="292" y="337"/>
      <point x="306" y="348" type="curve" smooth="yes"/>
      <point x="321" y="359"/>
      <point x="340" y="364"/>
      <point x="364" y="364" type="curve" smooth="yes"/>
      <point x="397" y="364"/>
      <point x="424" y="351"/>
      <point x="446" y="326" type="curve" smooth="yes"/>
      <point x="469" y="301"/>
      <point x="480" y="271"/>
      <point x="480" y="236" type="curve" smooth="yes"/>
      <point x="480" y="207"/>
      <point x="476" y="181"/>
      <point x="468" y="158" type="curve" smooth="yes"/>
      <point x="459" y="135"/>
      <point x="447" y="117"/>
      <point x="431" y="104" type="curve"/>
      <point x="431" y="150"/>
      <point x="412" y="187"/>
      <point x="375" y="214" type="curve" smooth="yes"/>
      <point x="338" y="241"/>
      <point x="288" y="255"/>
      <point x="225" y="255" type="curve" smooth="yes"/>
      <point x="168" y="255"/>
      <point x="122" y="244"/>
      <point x="88" y="223" type="curve" smooth="yes"/>
      <point x="53" y="200"/>
      <point x="36" y="171"/>
      <point x="36" y="134" type="curve" smooth="yes"/>
      <point x="36" y="93"/>
      <point x="57" y="61"/>
      <point x="98" y="36" type="curve" smooth="yes"/>
      <point x="139" y="12"/>
      <point x="193" y="0"/>
      <point x="261" y="0" type="curve" smooth="yes"/>
    </contour>
  </outline>
</glyph>
<glyph name="II" format="1">
  <advance width="847"/>
  <unicode hex="0C08"/>
  <outline>
    <contour>
      <point x="715" y="61" type="curve" smooth="yes" name="hr00"/>
      <point x="702" y="61"/>
      <point x="690" y="66"/>
      <point x="680" y="75" type="curve" smooth="yes"/>
      <point x="671" y="84"/>
      <point x="666" y="96"/>
      <point x="666" y="109" type="curve" smooth="yes"/>
      <point x="666" y="122"/>
      <point x="670" y="136"/>
      <point x="678" y="149" type="curve" smooth="yes"/>
      <point x="685" y="162"/>
      <point x="696" y="173"/>
      <point x="709" y="183" type="curve" smooth="yes"/>
      <point x="717" y="188"/>
      <point x="727" y="198"/>
      <point x="739" y="213" type="curve"/>
      <point x="749" y="201"/>
      <point x="756" y="188"/>
      <point x="761" y="175" type="curve" smooth="yes"/>
      <point x="766" y="162"/>
      <point x="769" y="148"/>
      <point x="769" y="134" type="curve" smooth="yes"/>
      <point x="769" y="114"/>
      <point x="763" y="97"/>
      <point x="753" y="83" type="curve" smooth="yes"/>
      <point x="742" y="68"/>
      <point x="730" y="61"/>
    </contour>
    <contour>
      <point x="168" y="304" type="line"/>
      <point x="177" y="324"/>
      <point x="194" y="341"/>
      <point x="220" y="353" type="curve" smooth="yes"/>
      <point x="246" y="365"/>
      <point x="276" y="370"/>
      <point x="311" y="370" type="curve" smooth="yes"/>
      <point x="351" y="370"/>
      <point x="385" y="365"/>
      <point x="414" y="353" type="curve" smooth="yes"/>
      <point x="443" y="341"/>
      <point x="462" y="324"/>
      <point x="471" y="304" type="curve"/>
    </contour>
    <contour>
      <point x="325" y="61" type="curve" smooth="yes"/>
      <point x="275" y="61"/>
      <point x="232" y="75"/>
      <point x="196" y="104" type="curve" smooth="yes"/>
      <point x="161" y="132"/>
      <point x="144" y="166"/>
      <point x="144" y="206" type="curve" smooth="yes"/>
      <point x="144" y="224"/>
      <point x="145" y="236"/>
      <point x="148" y="243" type="curve"/>
      <point x="489" y="243" type="line"/>
      <point x="493" y="226"/>
      <point x="495" y="214"/>
      <point x="495" y="206" type="curve" smooth="yes"/>
      <point x="495" y="166"/>
      <point x="478" y="132"/>
      <point x="445" y="104" type="curve" smooth="yes"/>
      <point x="412" y="75"/>
      <point x="372" y="61"/>
    </contour>
    <contour>
      <point x="331" y="0" type="curve" smooth="yes"/>
      <point x="394" y="0"/>
      <point x="447" y="22"/>
      <point x="490" y="63" type="curve" smooth="yes"/>
      <point x="534" y="105"/>
      <point x="556" y="154"/>
      <point x="556" y="213" type="curve" smooth="yes"/>
      <point x="556" y="243" type="line"/>
      <point x="660" y="243" type="line" smooth="yes"/>
      <point x="667" y="243"/>
      <point x="675" y="241"/>
      <point x="684" y="236" type="curve"/>
      <point x="659" y="219"/>
      <point x="639" y="200"/>
      <point x="626" y="178" type="curve" smooth="yes"/>
      <point x="612" y="155"/>
      <point x="605" y="132"/>
      <point x="605" y="109" type="curve" smooth="yes"/>
      <point x="605" y="79"/>
      <point x="616" y="53"/>
      <point x="639" y="31" type="curve" smooth="yes"/>
      <point x="662" y="10"/>
      <point x="689" y="0"/>
      <point x="721" y="0" type="curve" smooth="yes"/>
      <point x="751" y="0"/>
      <point x="777" y="13"/>
      <point x="799" y="38" type="curve" smooth="yes"/>
      <point x="820" y="63"/>
      <point x="830" y="93"/>
      <point x="830" y="128" type="curve" smooth="yes"/>
      <point x="830" y="156"/>
      <point x="825" y="181"/>
      <point x="815" y="204" type="curve" smooth="yes"/>
      <point x="806" y="227"/>
      <point x="792" y="244"/>
      <point x="775" y="255" type="curve"/>
      <point x="784" y="265"/>
      <point x="790" y="276"/>
      <point x="794" y="288" type="curve" smooth="yes"/>
      <point x="798" y="300"/>
      <point x="800" y="313"/>
      <point x="800" y="328" type="curve" smooth="yes"/>
      <point x="800" y="355"/>
      <point x="790" y="377"/>
      <point x="771" y="396" type="curve" smooth="yes"/>
      <point x="752" y="415"/>
      <point x="730" y="425"/>
      <point x="703" y="425" type="curve" smooth="yes"/>
      <point x="676" y="425"/>
      <point x="653" y="417"/>
      <point x="634" y="400" type="curve" smooth="yes"/>
      <point x="615" y="383"/>
      <point x="605" y="363"/>
      <point x="605" y="340" type="curve"/>
      <point x="666" y="340" type="line"/>
      <point x="666" y="347"/>
      <point x="669" y="352"/>
      <point x="675" y="356" type="curve" smooth="yes"/>
      <point x="681" y="361"/>
      <point x="688" y="364"/>
      <point x="696" y="364" type="curve" smooth="yes"/>
      <point x="708" y="364"/>
      <point x="718" y="361"/>
      <point x="726" y="354" type="curve" smooth="yes"/>
      <point x="735" y="347"/>
      <point x="739" y="338"/>
      <point x="739" y="328" type="curve" smooth="yes"/>
      <point x="739" y="319"/>
      <point x="738" y="311"/>
      <point x="735" y="304" type="curve"/>
      <point x="734" y="297"/>
      <point x="731" y="290"/>
      <point x="726" y="285" type="curve"/>
      <point x="719" y="291"/>
      <point x="709" y="296"/>
      <point x="696" y="299" type="curve" smooth="yes"/>
      <point x="684" y="302"/>
      <point x="670" y="304"/>
      <point x="654" y="304" type="curve" smooth="yes"/>
      <point x="544" y="304" type="line"/>
      <point x="531" y="341"/>
      <point x="507" y="369"/>
      <point x="474" y="391" type="curve" smooth="yes"/>
      <point x="441" y="413"/>
      <point x="403" y="425"/>
      <point x="361" y="425" type="curve"/>
      <point x="361" y="468" type="line" smooth="yes"/>
      <point x="361" y="476"/>
      <point x="365" y="483"/>
      <point x="373" y="489" type="curve" smooth="yes"/>
      <point x="380" y="495"/>
      <point x="389" y="498"/>
      <point x="399" y="498" type="curve" smooth="yes"/>
      <point x="544" y="498" type="line"/>
      <point x="544" y="559" type="line"/>
      <point x="356" y="559" type="line" smooth="yes"/>
      <point x="341" y="559"/>
      <point x="329" y="554"/>
      <point x="318" y="543" type="curve" smooth="yes"/>
      <point x="307" y="532"/>
      <point x="301" y="519"/>
      <point x="301" y="504" type="curve" smooth="yes"/>
      <point x="301" y="425" type="line"/>
      <point x="253" y="425" type="line" smooth="yes"/>
      <point x="243" y="425"/>
      <point x="234" y="428"/>
      <point x="226" y="433" type="curve" smooth="yes"/>
      <point x="219" y="437"/>
      <point x="216" y="442"/>
      <point x="216" y="449" type="curve" smooth="yes"/>
      <point x="216" y="498" type="line"/>
      <point x="155" y="498" type="line"/>
      <point x="155" y="431" type="line" smooth="yes"/>
      <point x="155" y="426"/>
      <point x="157" y="421"/>
      <point x="161" y="416" type="curve" smooth="yes"/>
      <point x="166" y="411"/>
      <point x="173" y="406"/>
      <point x="180" y="401" type="curve"/>
      <point x="161" y="393"/>
      <point x="144" y="381"/>
      <point x="130" y="364" type="curve" smooth="yes"/>
      <point x="115" y="347"/>
      <point x="104" y="327"/>
      <point x="95" y="304" type="curve"/>
      <point x="10" y="304" type="line"/>
      <point x="10" y="243" type="line"/>
      <point x="83" y="243" type="line"/>
      <point x="83" y="200" type="line" smooth="yes"/>
      <point x="83" y="145"/>
      <point x="107" y="98"/>
      <point x="155" y="59" type="curve" smooth="yes"/>
      <point x="204" y="20"/>
      <point x="263" y="0"/>
    </contour>
  </outline>
</glyph>
<glyph name="uni0C09" format="1">
  <advance width="622"/>
  <unicode hex="0C09"/>
  <outline>
    <contour>
      <point x="240" y="0" type="curve" smooth="yes" name="hr00"/>
      <point x="265" y="0"/>
      <point x="288" y="6"/>
      <point x="308" y="15" type="curve" smooth="yes"/>
      <point x="329" y="25"/>
      <point x="345" y="38"/>
      <point x="356" y="55" type="curve"/>
      <point x="368" y="38"/>
      <point x="384" y="24"/>
      <point x="404" y="15" type="curve" smooth="yes"/>
      <point x="425" y="5"/>
      <point x="447" y="0"/>
      <point x="471" y="0" type="curve" smooth="yes"/>
      <point x="508" y="0"/>
      <point x="540" y="14"/>
      <point x="566" y="41" type="curve" smooth="yes"/>
      <point x="593" y="69"/>
      <point x="605" y="102"/>
      <point x="605" y="140" type="curve" smooth="yes"/>
      <point x="605" y="183" type="line"/>
      <point x="544" y="183" type="line"/>
      <point x="544" y="134" type="line" smooth="yes"/>
      <point x="544" y="114"/>
      <point x="536" y="97"/>
      <point x="521" y="83" type="curve" smooth="yes"/>
      <point x="506" y="68"/>
      <point x="487" y="61"/>
      <point x="465" y="61" type="curve" smooth="yes"/>
      <point x="444" y="61"/>
      <point x="425" y="68"/>
      <point x="409" y="83" type="curve" smooth="yes"/>
      <point x="394" y="97"/>
      <point x="386" y="114"/>
      <point x="386" y="134" type="curve" smooth="yes"/>
      <point x="386" y="183" type="line"/>
      <point x="325" y="183" type="line"/>
      <point x="325" y="140" type="line" smooth="yes"/>
      <point x="325" y="119"/>
      <point x="319" y="100"/>
      <point x="303" y="84" type="curve" smooth="yes"/>
      <point x="287" y="68"/>
      <point x="268" y="61"/>
      <point x="246" y="61" type="curve" smooth="yes"/>
      <point x="218" y="61"/>
      <point x="194" y="72"/>
      <point x="174" y="95" type="curve" smooth="yes"/>
      <point x="154" y="118"/>
      <point x="144" y="145"/>
      <point x="144" y="176" type="curve" smooth="yes"/>
      <point x="144" y="191"/>
      <point x="145" y="205"/>
      <point x="146" y="216" type="curve"/>
      <point x="149" y="227"/>
      <point x="152" y="236"/>
      <point x="155" y="243" type="curve"/>
      <point x="556" y="243" type="line"/>
      <point x="556" y="304" type="line"/>
      <point x="180" y="304" type="line"/>
      <point x="189" y="322"/>
      <point x="203" y="337"/>
      <point x="224" y="348" type="curve" smooth="yes"/>
      <point x="245" y="359"/>
      <point x="268" y="364"/>
      <point x="295" y="364" type="curve" smooth="yes"/>
      <point x="556" y="364" type="line"/>
      <point x="556" y="425" type="line"/>
      <point x="410" y="425" type="line"/>
      <point x="410" y="559" type="line"/>
      <point x="350" y="559" type="line"/>
      <point x="350" y="425" type="line"/>
      <point x="301" y="425" type="line" smooth="yes"/>
      <point x="260" y="425"/>
      <point x="221" y="414"/>
      <point x="186" y="393" type="curve" smooth="yes"/>
      <point x="151" y="371"/>
      <point x="125" y="341"/>
      <point x="106" y="304" type="curve"/>
      <point x="10" y="304" type="line"/>
      <point x="10" y="243" type="line"/>
      <point x="93" y="243" type="line"/>
      <point x="86" y="224"/>
      <point x="83" y="198"/>
      <point x="83" y="164" type="curve" smooth="yes"/>
      <point x="83" y="119"/>
      <point x="98" y="80"/>
      <point x="129" y="48" type="curve" smooth="yes"/>
      <point x="160" y="16"/>
      <point x="197" y="0"/>
    </contour>
  </outline>
</glyph>
<glyph name="UU" format="1">
  <advance width="902"/>
  <unicode hex="0C0A"/>
  <outline>
    <contour>
      <point x="770" y="61" type="curve" smooth="yes" name="hr00"/>
      <point x="757" y="61"/>
      <point x="745" y="67"/>
      <point x="735" y="78" type="curve" smooth="yes"/>
      <point x="726" y="88"/>
      <point x="721" y="100"/>
      <point x="721" y="115" type="curve" smooth="yes"/>
      <point x="721" y="124"/>
      <point x="725" y="133"/>
      <point x="733" y="144" type="curve" smooth="yes"/>
      <point x="740" y="154"/>
      <point x="751" y="165"/>
      <point x="764" y="176" type="curve" smooth="yes"/>
      <point x="781" y="191"/>
      <point x="791" y="201"/>
      <point x="794" y="206" type="curve"/>
      <point x="804" y="195"/>
      <point x="811" y="182"/>
      <point x="816" y="169" type="curve" smooth="yes"/>
      <point x="821" y="156"/>
      <point x="824" y="142"/>
      <point x="824" y="128" type="curve" smooth="yes"/>
      <point x="824" y="109"/>
      <point x="819" y="94"/>
      <point x="808" y="81" type="curve" smooth="yes"/>
      <point x="798" y="68"/>
      <point x="785" y="61"/>
    </contour>
    <contour>
      <point x="240" y="0" type="curve" smooth="yes"/>
      <point x="265" y="0"/>
      <point x="288" y="6"/>
      <point x="308" y="15" type="curve" smooth="yes"/>
      <point x="329" y="25"/>
      <point x="345" y="38"/>
      <point x="356" y="55" type="curve"/>
      <point x="368" y="38"/>
      <point x="384" y="24"/>
      <point x="404" y="15" type="curve" smooth="yes"/>
      <point x="425" y="5"/>
      <point x="447" y="0"/>
      <point x="471" y="0" type="curve" smooth="yes"/>
      <point x="508" y="0"/>
      <point x="540" y="14"/>
      <point x="566" y="41" type="curve" smooth="yes"/>
      <point x="593" y="69"/>
      <point x="605" y="102"/>
      <point x="605" y="140" type="curve" smooth="yes"/>
      <point x="605" y="183" type="line"/>
      <point x="544" y="183" type="line"/>
      <point x="544" y="134" type="line" smooth="yes"/>
      <point x="544" y="114"/>
      <point x="536" y="97"/>
      <point x="521" y="83" type="curve" smooth="yes"/>
      <point x="506" y="68"/>
      <point x="487" y="61"/>
      <point x="465" y="61" type="curve" smooth="yes"/>
      <point x="444" y="61"/>
      <point x="425" y="68"/>
      <point x="409" y="83" type="curve" smooth="yes"/>
      <point x="394" y="97"/>
      <point x="386" y="114"/>
      <point x="386" y="134" type="curve" smooth="yes"/>
      <point x="386" y="183" type="line"/>
      <point x="325" y="183" type="line"/>
      <point x="325" y="140" type="line" smooth="yes"/>
      <point x="325" y="119"/>
      <point x="319" y="100"/>
      <point x="303" y="84" type="curve" smooth="yes"/>
      <point x="287" y="68"/>
      <point x="268" y="61"/>
      <point x="246" y="61" type="curve" smooth="yes"/>
      <point x="218" y="61"/>
      <point x="194" y="72"/>
      <point x="174" y="95" type="curve" smooth="yes"/>
      <point x="154" y="118"/>
      <point x="144" y="145"/>
      <point x="144" y="176" type="curve" smooth="yes"/>
      <point x="144" y="191"/>
      <point x="145" y="205"/>
      <point x="146" y="216" type="curve"/>
      <point x="149" y="227"/>
      <point x="152" y="236"/>
      <point x="155" y="243" type="curve"/>
      <point x="751" y="243" type="line"/>
      <point x="750" y="240"/>
      <point x="746" y="236"/>
      <point x="739" y="231" type="curve" smooth="yes"/>
      <point x="715" y="213" type="line" smooth="yes"/>
      <point x="697" y="199"/>
      <point x="684" y="181"/>
      <point x="675" y="164" type="curve" smooth="yes"/>
      <point x="665" y="145"/>
      <point x="660" y="127"/>
      <point x="660" y="109" type="curve" smooth="yes"/>
      <point x="660" y="80"/>
      <point x="671" y="56"/>
      <point x="693" y="36" type="curve" smooth="yes"/>
      <point x="714" y="16"/>
      <point x="740" y="6"/>
      <point x="770" y="6" type="curve" smooth="yes"/>
      <point x="802" y="6"/>
      <point x="829" y="18"/>
      <point x="851" y="41" type="curve" smooth="yes"/>
      <point x="874" y="66"/>
      <point x="885" y="95"/>
      <point x="885" y="128" type="curve" smooth="yes"/>
      <point x="885" y="155"/>
      <point x="880" y="181"/>
      <point x="870" y="204" type="curve" smooth="yes"/>
      <point x="861" y="227"/>
      <point x="847" y="246"/>
      <point x="830" y="261" type="curve"/>
      <point x="839" y="271"/>
      <point x="845" y="282"/>
      <point x="849" y="294" type="curve" smooth="yes"/>
      <point x="853" y="307"/>
      <point x="855" y="320"/>
      <point x="855" y="334" type="curve" smooth="yes"/>
      <point x="855" y="359"/>
      <point x="846" y="381"/>
      <point x="826" y="399" type="curve" smooth="yes"/>
      <point x="807" y="417"/>
      <point x="785" y="425"/>
      <point x="758" y="425" type="curve" smooth="yes"/>
      <point x="731" y="425"/>
      <point x="708" y="417"/>
      <point x="689" y="400" type="curve" smooth="yes"/>
      <point x="670" y="383"/>
      <point x="660" y="363"/>
      <point x="660" y="340" type="curve"/>
      <point x="721" y="340" type="line"/>
      <point x="721" y="349"/>
      <point x="724" y="356"/>
      <point x="731" y="361" type="curve" smooth="yes"/>
      <point x="739" y="367"/>
      <point x="748" y="370"/>
      <point x="758" y="370" type="curve" smooth="yes"/>
      <point x="766" y="370"/>
      <point x="773" y="367"/>
      <point x="779" y="360" type="curve" smooth="yes"/>
      <point x="785" y="353"/>
      <point x="788" y="344"/>
      <point x="788" y="334" type="curve" smooth="yes"/>
      <point x="788" y="320"/>
      <point x="784" y="306"/>
      <point x="775" y="291" type="curve"/>
      <point x="757" y="300"/>
      <point x="733" y="304"/>
      <point x="703" y="304" type="curve" smooth="yes"/>
      <point x="180" y="304" type="line"/>
      <point x="189" y="322"/>
      <point x="203" y="337"/>
      <point x="224" y="348" type="curve" smooth="yes"/>
      <point x="245" y="359"/>
      <point x="268" y="364"/>
      <point x="295" y="364" type="curve" smooth="yes"/>
      <point x="556" y="364" type="line"/>
      <point x="556" y="425" type="line"/>
      <point x="471" y="425" type="line"/>
      <point x="471" y="559" type="line"/>
      <point x="410" y="559" type="line"/>
      <point x="410" y="425" type="line"/>
      <point x="350" y="425" type="line"/>
      <point x="350" y="559" type="line"/>
      <point x="289" y="559" type="line"/>
      <point x="289" y="424" type="line"/>
      <point x="249" y="421"/>
      <point x="213" y="409"/>
      <point x="180" y="388" type="curve" smooth="yes"/>
      <point x="147" y="366"/>
      <point x="123" y="338"/>
      <point x="106" y="304" type="curve"/>
      <point x="10" y="304" type="line"/>
      <point x="10" y="243" type="line"/>
      <point x="93" y="243" type="line"/>
      <point x="86" y="224"/>
      <point x="83" y="198"/>
      <point x="83" y="164" type="curve" smooth="yes"/>
      <point x="83" y="119"/>
      <point x="98" y="80"/>
      <point x="129" y="48" type="curve" smooth="yes"/>
      <point x="160" y="16"/>
      <point x="197" y="0"/>
    </contour>
  </outline>
</glyph>
<glyph name="Ru" format="1">
  <advance width="1205"/>
  <unicode hex="0C0B"/>
  <outline>
    <contour>
      <point x="188" y="0" type="curve" smooth="yes" name="hr00"/>
      <point x="215" y="0"/>
      <point x="239" y="6"/>
      <point x="260" y="15" type="curve" smooth="yes"/>
      <point x="282" y="25"/>
      <point x="299" y="38"/>
      <point x="310" y="55" type="curve"/>
      <point x="322" y="38"/>
      <point x="338" y="24"/>
      <point x="358" y="15" type="curve" smooth="yes"/>
      <point x="379" y="5"/>
      <point x="401" y="0"/>
      <point x="425" y="0" type="curve" smooth="yes"/>
      <point x="452" y="0"/>
      <point x="477" y="10"/>
      <point x="501" y="29" type="curve" smooth="yes"/>
      <point x="526" y="48"/>
      <point x="544" y="74"/>
      <point x="556" y="105" type="curve"/>
      <point x="565" y="74"/>
      <point x="583" y="49"/>
      <point x="610" y="29" type="curve" smooth="yes"/>
      <point x="637" y="10"/>
      <point x="669" y="0"/>
      <point x="704" y="0" type="curve" smooth="yes"/>
      <point x="737" y="0"/>
      <point x="768" y="12"/>
      <point x="796" y="33" type="curve" smooth="yes"/>
      <point x="825" y="55"/>
      <point x="847" y="82"/>
      <point x="861" y="118" type="curve"/>
      <point x="869" y="83"/>
      <point x="887" y="55"/>
      <point x="914" y="33" type="curve" smooth="yes"/>
      <point x="942" y="11"/>
      <point x="974" y="0"/>
      <point x="1011" y="0" type="curve" smooth="yes"/>
      <point x="1060" y="0"/>
      <point x="1101" y="21"/>
      <point x="1136" y="63" type="curve" smooth="yes"/>
      <point x="1171" y="104"/>
      <point x="1188" y="154"/>
      <point x="1188" y="213" type="curve" smooth="yes"/>
      <point x="1188" y="271"/>
      <point x="1171" y="321"/>
      <point x="1136" y="363" type="curve" smooth="yes"/>
      <point x="1101" y="404"/>
      <point x="1060" y="425"/>
      <point x="1011" y="425" type="curve" smooth="yes"/>
      <point x="969" y="425" type="line"/>
      <point x="969" y="364" type="line"/>
      <point x="993" y="364" type="line" smooth="yes"/>
      <point x="1030" y="364"/>
      <point x="1062" y="350"/>
      <point x="1088" y="320" type="curve" smooth="yes"/>
      <point x="1114" y="291"/>
      <point x="1126" y="254"/>
      <point x="1126" y="213" type="curve" smooth="yes"/>
      <point x="1126" y="171"/>
      <point x="1115" y="135"/>
      <point x="1091" y="105" type="curve" smooth="yes"/>
      <point x="1068" y="76"/>
      <point x="1038" y="61"/>
      <point x="1005" y="61" type="curve" smooth="yes"/>
      <point x="985" y="61"/>
      <point x="964" y="72"/>
      <point x="941" y="95" type="curve" smooth="yes"/>
      <point x="919" y="118"/>
      <point x="898" y="149"/>
      <point x="879" y="188" type="curve"/>
      <point x="880" y="213" type="line" smooth="yes"/>
      <point x="882" y="271"/>
      <point x="864" y="321"/>
      <point x="829" y="363" type="curve" smooth="yes"/>
      <point x="795" y="404"/>
      <point x="752" y="425"/>
      <point x="704" y="425" type="curve" smooth="yes"/>
      <point x="661" y="425" type="line"/>
      <point x="661" y="364" type="line"/>
      <point x="685" y="364" type="line" smooth="yes"/>
      <point x="722" y="364"/>
      <point x="754" y="349"/>
      <point x="780" y="320" type="curve" smooth="yes"/>
      <point x="807" y="290"/>
      <point x="819" y="254"/>
      <point x="819" y="213" type="curve" smooth="yes"/>
      <point x="819" y="171"/>
      <point x="808" y="135"/>
      <point x="784" y="105" type="curve" smooth="yes"/>
      <point x="761" y="76"/>
      <point x="731" y="61"/>
      <point x="698" y="61" type="curve" smooth="yes"/>
      <point x="678" y="61"/>
      <point x="657" y="73"/>
      <point x="635" y="94" type="curve" smooth="yes"/>
      <point x="612" y="116"/>
      <point x="592" y="143"/>
      <point x="575" y="180" type="curve"/>
      <point x="576" y="206" type="line" smooth="yes"/>
      <point x="578" y="266"/>
      <point x="561" y="318"/>
      <point x="529" y="361" type="curve" smooth="yes"/>
      <point x="497" y="404"/>
      <point x="458" y="425"/>
      <point x="413" y="425" type="curve" smooth="yes"/>
      <point x="364" y="425" type="line"/>
      <point x="364" y="364" type="line"/>
      <point x="413" y="364" type="line" smooth="yes"/>
      <point x="441" y="364"/>
      <point x="466" y="349"/>
      <point x="486" y="320" type="curve" smooth="yes"/>
      <point x="507" y="290"/>
      <point x="516" y="254"/>
      <point x="516" y="213" type="curve" smooth="yes"/>
      <point x="516" y="167"/>
      <point x="507" y="130"/>
      <point x="490" y="103" type="curve" smooth="yes"/>
      <point x="472" y="75"/>
      <point x="448" y="61"/>
      <point x="419" y="61" type="curve" smooth="yes"/>
      <point x="399" y="61"/>
      <point x="383" y="68"/>
      <point x="368" y="83" type="curve" smooth="yes"/>
      <point x="353" y="98"/>
      <point x="346" y="114"/>
      <point x="346" y="134" type="curve" smooth="yes"/>
      <point x="346" y="183" type="line"/>
      <point x="285" y="183" type="line"/>
      <point x="285" y="151" type="line" smooth="yes"/>
      <point x="285" y="126"/>
      <point x="275" y="105"/>
      <point x="256" y="88" type="curve" smooth="yes"/>
      <point x="237" y="70"/>
      <point x="215" y="61"/>
      <point x="188" y="61" type="curve" smooth="yes"/>
      <point x="161" y="61"/>
      <point x="139" y="68"/>
      <point x="120" y="83" type="curve" smooth="yes"/>
      <point x="101" y="97"/>
      <point x="91" y="114"/>
      <point x="91" y="134" type="curve" smooth="yes"/>
      <point x="91" y="152"/>
      <point x="99" y="169"/>
      <point x="114" y="185" type="curve" smooth="yes"/>
      <point x="128" y="201"/>
      <point x="147" y="213"/>
      <point x="170" y="219" type="curve" smooth="yes"/>
      <point x="197" y="227"/>
      <point x="219" y="240"/>
      <point x="236" y="260" type="curve" smooth="yes"/>
      <point x="253" y="281"/>
      <point x="261" y="303"/>
      <point x="261" y="328" type="curve" smooth="yes"/>
      <point x="261" y="355"/>
      <point x="250" y="377"/>
      <point x="229" y="396" type="curve" smooth="yes"/>
      <point x="207" y="415"/>
      <point x="181" y="425"/>
      <point x="151" y="425" type="curve" smooth="yes"/>
      <point x="121" y="425"/>
      <point x="95" y="415"/>
      <point x="74" y="396" type="curve" smooth="yes"/>
      <point x="53" y="377"/>
      <point x="43" y="355"/>
      <point x="43" y="328" type="curve" smooth="yes"/>
      <point x="43" y="304" type="line"/>
      <point x="103" y="304" type="line"/>
      <point x="103" y="321" type="line" smooth="yes"/>
      <point x="103" y="334"/>
      <point x="107" y="346"/>
      <point x="116" y="356" type="curve"/>
      <point x="126" y="365"/>
      <point x="138" y="370"/>
      <point x="151" y="370" type="curve" smooth="yes"/>
      <point x="164" y="370"/>
      <point x="176" y="366"/>
      <point x="186" y="358" type="curve"/>
      <point x="195" y="349"/>
      <point x="200" y="339"/>
      <point x="200" y="328" type="curve" smooth="yes"/>
      <point x="200" y="312"/>
      <point x="194" y="298"/>
      <point x="181" y="285" type="curve" smooth="yes"/>
      <point x="169" y="272"/>
      <point x="153" y="264"/>
      <point x="134" y="261" type="curve" smooth="yes"/>
      <point x="104" y="256"/>
      <point x="78" y="242"/>
      <point x="59" y="218" type="curve" smooth="yes"/>
      <point x="39" y="193"/>
      <point x="30" y="165"/>
      <point x="30" y="134" type="curve" smooth="yes"/>
      <point x="30" y="97"/>
      <point x="45" y="66"/>
      <point x="76" y="39" type="curve" smooth="yes"/>
      <point x="107" y="13"/>
      <point x="145" y="0"/>
    </contour>
  </outline>
</glyph>
<glyph name="Lu" format="1">
  <advance width="752"/>
  <unicode hex="0C0C"/>
  <outline>
    <contour>
      <point x="30" y="298" type="curve" smooth="yes" name="hr00"/>
      <point x="30" y="272"/>
      <point x="36" y="250"/>
      <point x="49" y="231" type="curve"/>
      <point x="115" y="231" type="line"/>
      <point x="108" y="239"/>
      <point x="102" y="249"/>
      <point x="98" y="260" type="curve" smooth="yes"/>
      <point x="93" y="271"/>
      <point x="91" y="283"/>
      <point x="91" y="298" type="curve" smooth="yes"/>
      <point x="91" y="319"/>
      <point x="100" y="338"/>
      <point x="118" y="354" type="curve" smooth="yes"/>
      <point x="136" y="369"/>
      <point x="158" y="376"/>
      <point x="183" y="376" type="curve" smooth="yes"/>
      <point x="206" y="376"/>
      <point x="226" y="368"/>
      <point x="243" y="351" type="curve" smooth="yes"/>
      <point x="260" y="334"/>
      <point x="268" y="314"/>
      <point x="268" y="291" type="curve" smooth="yes"/>
      <point x="268" y="255" type="line"/>
      <point x="328" y="255" type="line"/>
      <point x="328" y="291" type="line" smooth="yes"/>
      <point x="328" y="314"/>
      <point x="337" y="334"/>
      <point x="356" y="351" type="curve" smooth="yes"/>
      <point x="375" y="368"/>
      <point x="398" y="376"/>
      <point x="425" y="376" type="curve" smooth="yes"/>
      <point x="452" y="376"/>
      <point x="475" y="369"/>
      <point x="494" y="355" type="curve" smooth="yes"/>
      <point x="513" y="341"/>
      <point x="523" y="324"/>
      <point x="523" y="304" type="curve" smooth="yes"/>
      <point x="523" y="284"/>
      <point x="515" y="262"/>
      <point x="499" y="239" type="curve" smooth="yes"/>
      <point x="483" y="216"/>
      <point x="460" y="193"/>
      <point x="431" y="170" type="curve" smooth="yes"/>
      <point x="402" y="147"/>
      <point x="380" y="122"/>
      <point x="364" y="95" type="curve" smooth="yes"/>
      <point x="348" y="68"/>
      <point x="340" y="40"/>
      <point x="340" y="13" type="curve" smooth="yes"/>
      <point x="340" y="-32"/>
      <point x="355" y="-71"/>
      <point x="388" y="-104" type="curve" smooth="yes"/>
      <point x="420" y="-136"/>
      <point x="459" y="-151"/>
      <point x="504" y="-151" type="curve" smooth="yes"/>
      <point x="568" y="-151"/>
      <point x="623" y="-116"/>
      <point x="668" y="-46" type="curve" smooth="yes"/>
      <point x="713" y="24"/>
      <point x="735" y="108"/>
      <point x="735" y="206" type="curve" smooth="yes"/>
      <point x="735" y="303"/>
      <point x="723" y="376"/>
      <point x="699" y="425" type="curve"/>
      <point x="638" y="425" type="line"/>
      <point x="662" y="371"/>
      <point x="674" y="298"/>
      <point x="674" y="206" type="curve" smooth="yes"/>
      <point x="674" y="124"/>
      <point x="657" y="54"/>
      <point x="624" y="-4" type="curve" smooth="yes"/>
      <point x="591" y="-62"/>
      <point x="551" y="-91"/>
      <point x="504" y="-91" type="curve" smooth="yes"/>
      <point x="475" y="-91"/>
      <point x="451" y="-81"/>
      <point x="431" y="-62" type="curve" smooth="yes"/>
      <point x="411" y="-43"/>
      <point x="401" y="-21"/>
      <point x="401" y="6" type="curve" smooth="yes"/>
      <point x="401" y="28"/>
      <point x="409" y="51"/>
      <point x="425" y="76" type="curve" smooth="yes"/>
      <point x="441" y="101"/>
      <point x="464" y="123"/>
      <point x="493" y="146" type="curve" smooth="yes"/>
      <point x="521" y="168"/>
      <point x="543" y="193"/>
      <point x="559" y="219" type="curve" smooth="yes"/>
      <point x="575" y="246"/>
      <point x="583" y="272"/>
      <point x="583" y="298" type="curve" smooth="yes"/>
      <point x="583" y="336"/>
      <point x="567" y="369"/>
      <point x="536" y="396" type="curve" smooth="yes"/>
      <point x="505" y="424"/>
      <point x="468" y="438"/>
      <point x="425" y="438" type="curve" smooth="yes"/>
      <point x="398" y="438"/>
      <point x="373" y="433"/>
      <point x="351" y="423" type="curve" smooth="yes"/>
      <point x="330" y="413"/>
      <point x="314" y="400"/>
      <point x="304" y="383" type="curve"/>
      <point x="294" y="400"/>
      <point x="277" y="413"/>
      <point x="254" y="423" type="curve" smooth="yes"/>
      <point x="230" y="433"/>
      <point x="202" y="438"/>
      <point x="170" y="438" type="curve" smooth="yes"/>
      <point x="129" y="438"/>
      <point x="97" y="425"/>
      <point x="70" y="398" type="curve" smooth="yes"/>
      <point x="43" y="371"/>
      <point x="30" y="339"/>
    </contour>
  </outline>
</glyph>
<glyph name="uni0C0E" format="1">
  <advance width="563"/>
  <unicode hex="0C0E"/>
  <outline>
    <contour>
      <point x="164" y="55" type="curve" smooth="yes" name="hr00"/>
      <point x="144" y="55"/>
      <point x="127" y="62"/>
      <point x="113" y="76" type="curve" smooth="yes"/>
      <point x="98" y="91"/>
      <point x="91" y="108"/>
      <point x="91" y="128" type="curve" smooth="yes"/>
      <point x="91" y="146"/>
      <point x="98" y="161"/>
      <point x="113" y="174" type="curve" smooth="yes"/>
      <point x="127" y="187"/>
      <point x="144" y="194"/>
      <point x="164" y="194" type="curve" smooth="yes"/>
      <point x="182" y="194"/>
      <point x="198" y="187"/>
      <point x="211" y="174" type="curve" smooth="yes"/>
      <point x="224" y="161"/>
      <point x="231" y="146"/>
      <point x="231" y="128" type="curve" smooth="yes"/>
      <point x="231" y="108"/>
      <point x="224" y="91"/>
      <point x="211" y="76" type="curve" smooth="yes"/>
      <point x="198" y="62"/>
      <point x="182" y="55"/>
    </contour>
    <contour>
      <point x="164" y="0" type="curve" smooth="yes"/>
      <point x="182" y="0"/>
      <point x="199" y="4"/>
      <point x="216" y="11" type="curve" smooth="yes"/>
      <point x="233" y="19"/>
      <point x="248" y="30"/>
      <point x="261" y="43" type="curve"/>
      <point x="270" y="30"/>
      <point x="286" y="19"/>
      <point x="308" y="11" type="curve" smooth="yes"/>
      <point x="329" y="4"/>
      <point x="354" y="0"/>
      <point x="383" y="0" type="curve" smooth="yes"/>
      <point x="428" y="0"/>
      <point x="466" y="22"/>
      <point x="499" y="66" type="curve" smooth="yes"/>
      <point x="530" y="109"/>
      <point x="546" y="162"/>
      <point x="546" y="225" type="curve" smooth="yes"/>
      <point x="546" y="287"/>
      <point x="527" y="340"/>
      <point x="488" y="384" type="curve" smooth="yes"/>
      <point x="449" y="427"/>
      <point x="401" y="449"/>
      <point x="346" y="449" type="curve" smooth="yes"/>
      <point x="285" y="449" type="line"/>
      <point x="285" y="389" type="line"/>
      <point x="328" y="389" type="line" smooth="yes"/>
      <point x="370" y="389"/>
      <point x="406" y="372"/>
      <point x="435" y="339" type="curve" smooth="yes"/>
      <point x="465" y="306"/>
      <point x="480" y="266"/>
      <point x="480" y="219" type="curve" smooth="yes"/>
      <point x="480" y="176"/>
      <point x="470" y="139"/>
      <point x="450" y="108" type="curve" smooth="yes"/>
      <point x="429" y="77"/>
      <point x="405" y="61"/>
      <point x="376" y="61" type="curve" smooth="yes"/>
      <point x="354" y="61"/>
      <point x="335" y="64"/>
      <point x="318" y="71" type="curve" smooth="yes"/>
      <point x="301" y="78"/>
      <point x="290" y="87"/>
      <point x="285" y="98" type="curve"/>
      <point x="289" y="107"/>
      <point x="291" y="119"/>
      <point x="291" y="134" type="curve" smooth="yes"/>
      <point x="291" y="165"/>
      <point x="279" y="192"/>
      <point x="254" y="215" type="curve" smooth="yes"/>
      <point x="229" y="238"/>
      <point x="199" y="249"/>
      <point x="164" y="249" type="curve" smooth="yes"/>
      <point x="127" y="249"/>
      <point x="96" y="238"/>
      <point x="69" y="214" type="curve" smooth="yes"/>
      <point x="43" y="191"/>
      <point x="30" y="161"/>
      <point x="30" y="128" type="curve" smooth="yes"/>
      <point x="30" y="93"/>
      <point x="43" y="63"/>
      <point x="69" y="38" type="curve" smooth="yes"/>
      <point x="96" y="13"/>
      <point x="127" y="0"/>
    </contour>
  </outline>
</glyph>
<glyph name="AI" format="1">
  <advance width="582"/>
  <unicode hex="0C10"/>
  <outline>
    <contour>
      <point x="406" y="0" type="curve" smooth="yes" name="hr00"/>
      <point x="451" y="0"/>
      <point x="488" y="21"/>
      <point x="519" y="63" type="curve" smooth="yes"/>
      <point x="550" y="104"/>
      <point x="565" y="154"/>
      <point x="565" y="213" type="curve" smooth="yes"/>
      <point x="565" y="271"/>
      <point x="548" y="321"/>
      <point x="515" y="363" type="curve" smooth="yes"/>
      <point x="482" y="404"/>
      <point x="442" y="425"/>
      <point x="395" y="425" type="curve" smooth="yes"/>
      <point x="370" y="425"/>
      <point x="348" y="421"/>
      <point x="328" y="413" type="curve" smooth="yes"/>
      <point x="308" y="404"/>
      <point x="294" y="391"/>
      <point x="285" y="376" type="curve"/>
      <point x="277" y="391"/>
      <point x="263" y="404"/>
      <point x="243" y="413" type="curve" smooth="yes"/>
      <point x="224" y="421"/>
      <point x="201" y="425"/>
      <point x="176" y="425" type="curve" smooth="yes"/>
      <point x="139" y="425"/>
      <point x="107" y="414"/>
      <point x="81" y="390" type="curve" smooth="yes"/>
      <point x="55" y="367"/>
      <point x="43" y="337"/>
      <point x="43" y="304" type="curve"/>
      <point x="103" y="304" type="line"/>
      <point x="103" y="321"/>
      <point x="110" y="335"/>
      <point x="124" y="346" type="curve" smooth="yes"/>
      <point x="139" y="358"/>
      <point x="156" y="364"/>
      <point x="176" y="364" type="curve" smooth="yes"/>
      <point x="198" y="364"/>
      <point x="216" y="359"/>
      <point x="229" y="348" type="curve" smooth="yes"/>
      <point x="242" y="337"/>
      <point x="249" y="322"/>
      <point x="249" y="304" type="curve"/>
      <point x="310" y="304" type="line"/>
      <point x="310" y="322"/>
      <point x="317" y="337"/>
      <point x="331" y="348" type="curve" smooth="yes"/>
      <point x="346" y="359"/>
      <point x="365" y="364"/>
      <point x="389" y="364" type="curve" smooth="yes"/>
      <point x="420" y="364"/>
      <point x="447" y="349"/>
      <point x="470" y="320" type="curve" smooth="yes"/>
      <point x="493" y="290"/>
      <point x="504" y="254"/>
      <point x="504" y="213" type="curve" smooth="yes"/>
      <point x="504" y="171"/>
      <point x="494" y="135"/>
      <point x="475" y="105" type="curve" smooth="yes"/>
      <point x="456" y="76"/>
      <point x="433" y="61"/>
      <point x="406" y="61" type="curve" smooth="yes"/>
      <point x="383" y="61"/>
      <point x="363" y="69"/>
      <point x="346" y="84" type="curve" smooth="yes"/>
      <point x="329" y="100"/>
      <point x="321" y="119"/>
      <point x="321" y="140" type="curve" smooth="yes"/>
      <point x="321" y="183" type="line"/>
      <point x="261" y="183" type="line"/>
      <point x="261" y="146" type="line" smooth="yes"/>
      <point x="261" y="123"/>
      <point x="252" y="103"/>
      <point x="235" y="86" type="curve" smooth="yes"/>
      <point x="217" y="69"/>
      <point x="195" y="61"/>
      <point x="170" y="61" type="curve" smooth="yes"/>
      <point x="149" y="61"/>
      <point x="130" y="68"/>
      <point x="114" y="83" type="curve" smooth="yes"/>
      <point x="99" y="97"/>
      <point x="91" y="114"/>
      <point x="91" y="134" type="curve" smooth="yes"/>
      <point x="91" y="147"/>
      <point x="96" y="159"/>
      <point x="105" y="169" type="curve"/>
      <point x="115" y="178"/>
      <point x="127" y="183"/>
      <point x="140" y="183" type="curve" smooth="yes"/>
      <point x="147" y="183"/>
      <point x="152" y="180"/>
      <point x="156" y="175" type="curve" smooth="yes"/>
      <point x="161" y="170"/>
      <point x="164" y="165"/>
      <point x="164" y="158" type="curve"/>
      <point x="225" y="158" type="line"/>
      <point x="225" y="181"/>
      <point x="216" y="201"/>
      <point x="199" y="218" type="curve" smooth="yes"/>
      <point x="180" y="236"/>
      <point x="159" y="243"/>
      <point x="134" y="243" type="curve" smooth="yes"/>
      <point x="105" y="243"/>
      <point x="81" y="232"/>
      <point x="60" y="211" type="curve" smooth="yes"/>
      <point x="40" y="190"/>
      <point x="30" y="164"/>
      <point x="30" y="134" type="curve" smooth="yes"/>
      <point x="30" y="97"/>
      <point x="43" y="66"/>
      <point x="68" y="39" type="curve" smooth="yes"/>
      <point x="93" y="13"/>
      <point x="123" y="0"/>
      <point x="158" y="0" type="curve" smooth="yes"/>
      <point x="189" y="0"/>
      <point x="217" y="5"/>
      <point x="241" y="15" type="curve" smooth="yes"/>
      <point x="264" y="25"/>
      <point x="281" y="38"/>
      <point x="291" y="55" type="curve"/>
      <point x="303" y="38"/>
      <point x="319" y="24"/>
      <point x="339" y="15" type="curve" smooth="yes"/>
      <point x="360" y="5"/>
      <point x="382" y="0"/>
    </contour>
  </outline>
</glyph>
<glyph name="OO" format="1">
  <advance width="600"/>
  <unicode hex="0C13"/>
  <outline>
    <contour>
      <point x="176" y="0" type="curve" smooth="yes" name="hr00"/>
      <point x="208" y="0"/>
      <point x="236" y="5"/>
      <point x="260" y="15" type="curve" smooth="yes"/>
      <point x="283" y="25"/>
      <point x="300" y="38"/>
      <point x="310" y="55" type="curve"/>
      <point x="320" y="38"/>
      <point x="337" y="25"/>
      <point x="360" y="15" type="curve" smooth="yes"/>
      <point x="384" y="5"/>
      <point x="412" y="0"/>
      <point x="443" y="0" type="curve" smooth="yes"/>
      <point x="484" y="0"/>
      <point x="516" y="13"/>
      <point x="543" y="40" type="curve" smooth="yes"/>
      <point x="570" y="67"/>
      <point x="583" y="99"/>
      <point x="583" y="140" type="curve" smooth="yes"/>
      <point x="583" y="153"/>
      <point x="581" y="166"/>
      <point x="578" y="178" type="curve" smooth="yes"/>
      <point x="575" y="189"/>
      <point x="571" y="199"/>
      <point x="565" y="206" type="curve"/>
      <point x="498" y="206" type="line"/>
      <point x="506" y="198"/>
      <point x="512" y="188"/>
      <point x="516" y="176" type="curve"/>
      <point x="521" y="165"/>
      <point x="523" y="153"/>
      <point x="523" y="140" type="curve" smooth="yes"/>
      <point x="523" y="119"/>
      <point x="514" y="100"/>
      <point x="496" y="84" type="curve" smooth="yes"/>
      <point x="478" y="69"/>
      <point x="456" y="61"/>
      <point x="431" y="61" type="curve" smooth="yes"/>
      <point x="408" y="61"/>
      <point x="388" y="69"/>
      <point x="371" y="86" type="curve" smooth="yes"/>
      <point x="354" y="103"/>
      <point x="346" y="123"/>
      <point x="346" y="146" type="curve" smooth="yes"/>
      <point x="346" y="183" type="line"/>
      <point x="285" y="183" type="line"/>
      <point x="285" y="146" type="line" smooth="yes"/>
      <point x="285" y="123"/>
      <point x="275" y="103"/>
      <point x="256" y="86" type="curve" smooth="yes"/>
      <point x="237" y="69"/>
      <point x="215" y="61"/>
      <point x="188" y="61" type="curve" smooth="yes"/>
      <point x="161" y="61"/>
      <point x="139" y="68"/>
      <point x="120" y="83" type="curve" smooth="yes"/>
      <point x="101" y="97"/>
      <point x="91" y="114"/>
      <point x="91" y="134" type="curve" smooth="yes"/>
      <point x="91" y="154"/>
      <point x="99" y="172"/>
      <point x="115" y="189" type="curve" smooth="yes"/>
      <point x="131" y="206"/>
      <point x="151" y="218"/>
      <point x="176" y="225" type="curve" smooth="yes"/>
      <point x="203" y="232"/>
      <point x="226" y="246"/>
      <point x="243" y="266" type="curve" smooth="yes"/>
      <point x="261" y="287"/>
      <point x="268" y="310"/>
      <point x="268" y="334" type="curve" smooth="yes"/>
      <point x="268" y="359"/>
      <point x="261" y="380"/>
      <point x="246" y="399" type="curve" smooth="yes"/>
      <point x="231" y="416"/>
      <point x="214" y="425"/>
      <point x="194" y="425" type="curve"/>
      <point x="194" y="474" type="line" smooth="yes"/>
      <point x="194" y="481"/>
      <point x="196" y="486"/>
      <point x="201" y="490" type="curve" smooth="yes"/>
      <point x="206" y="495"/>
      <point x="212" y="498"/>
      <point x="219" y="498" type="curve" smooth="yes"/>
      <point x="268" y="498" type="line"/>
      <point x="268" y="559" type="line"/>
      <point x="194" y="559" type="line" smooth="yes"/>
      <point x="177" y="559"/>
      <point x="163" y="553"/>
      <point x="151" y="541" type="curve" smooth="yes"/>
      <point x="140" y="529"/>
      <point x="134" y="515"/>
      <point x="134" y="498" type="curve" smooth="yes"/>
      <point x="134" y="425" type="line"/>
      <point x="109" y="425"/>
      <point x="87" y="415"/>
      <point x="69" y="396" type="curve" smooth="yes"/>
      <point x="52" y="377"/>
      <point x="43" y="355"/>
      <point x="43" y="328" type="curve" smooth="yes"/>
      <point x="43" y="304" type="line"/>
      <point x="103" y="304" type="line"/>
      <point x="103" y="316" type="line" smooth="yes"/>
      <point x="103" y="329"/>
      <point x="108" y="341"/>
      <point x="119" y="350" type="curve" smooth="yes"/>
      <point x="130" y="359"/>
      <point x="143" y="364"/>
      <point x="158" y="364" type="curve" smooth="yes"/>
      <point x="171" y="364"/>
      <point x="183" y="361"/>
      <point x="193" y="354" type="curve" smooth="yes"/>
      <point x="202" y="347"/>
      <point x="206" y="338"/>
      <point x="206" y="328" type="curve" smooth="yes"/>
      <point x="206" y="315"/>
      <point x="200" y="302"/>
      <point x="188" y="291" type="curve" smooth="yes"/>
      <point x="175" y="279"/>
      <point x="159" y="273"/>
      <point x="140" y="268" type="curve" smooth="yes"/>
      <point x="107" y="259"/>
      <point x="81" y="243"/>
      <point x="61" y="220" type="curve" smooth="yes"/>
      <point x="40" y="196"/>
      <point x="30" y="169"/>
      <point x="30" y="140" type="curve" smooth="yes"/>
      <point x="30" y="102"/>
      <point x="44" y="69"/>
      <point x="73" y="41" type="curve" smooth="yes"/>
      <point x="102" y="14"/>
      <point x="136" y="0"/>
    </contour>
  </outline>
</glyph>
<glyph name="AU" format="1">
  <advance width="800"/>
  <unicode hex="0C14"/>
  <outline>
    <contour>
      <point x="661" y="243" type="curve" smooth="yes" name="hr00"/>
      <point x="648" y="243"/>
      <point x="636" y="248"/>
      <point x="626" y="259" type="curve" smooth="yes"/>
      <point x="617" y="270"/>
      <point x="613" y="283"/>
      <point x="613" y="298" type="curve" smooth="yes"/>
      <point x="613" y="311"/>
      <point x="617" y="323"/>
      <point x="626" y="333" type="curve"/>
      <point x="636" y="342"/>
      <point x="648" y="346"/>
      <point x="661" y="346" type="curve" smooth="yes"/>
      <point x="674" y="346"/>
      <point x="686" y="342"/>
      <point x="696" y="333" type="curve"/>
      <point x="705" y="323"/>
      <point x="710" y="311"/>
      <point x="710" y="298" type="curve" smooth="yes"/>
      <point x="710" y="283"/>
      <point x="705" y="270"/>
      <point x="696" y="259" type="curve" smooth="yes"/>
      <point x="686" y="248"/>
      <point x="674" y="243"/>
    </contour>
    <contour>
      <point x="170" y="0" type="curve" smooth="yes"/>
      <point x="203" y="0"/>
      <point x="231" y="6"/>
      <point x="255" y="15" type="curve" smooth="yes"/>
      <point x="280" y="25"/>
      <point x="299" y="38"/>
      <point x="310" y="55" type="curve"/>
      <point x="322" y="38"/>
      <point x="340" y="24"/>
      <point x="363" y="15" type="curve" smooth="yes"/>
      <point x="386" y="5"/>
      <point x="413" y="0"/>
      <point x="443" y="0" type="curve" smooth="yes"/>
      <point x="481" y="0"/>
      <point x="513" y="13"/>
      <point x="539" y="38" type="curve" smooth="yes"/>
      <point x="564" y="63"/>
      <point x="576" y="95"/>
      <point x="576" y="134" type="curve" smooth="yes"/>
      <point x="576" y="150"/>
      <point x="574" y="164"/>
      <point x="571" y="176" type="curve"/>
      <point x="569" y="189"/>
      <point x="565" y="199"/>
      <point x="559" y="206" type="curve"/>
      <point x="491" y="206" type="line"/>
      <point x="500" y="198"/>
      <point x="506" y="189"/>
      <point x="510" y="179" type="curve" smooth="yes"/>
      <point x="514" y="168"/>
      <point x="516" y="157"/>
      <point x="516" y="146" type="curve" smooth="yes"/>
      <point x="516" y="123"/>
      <point x="508" y="103"/>
      <point x="491" y="86" type="curve" smooth="yes"/>
      <point x="474" y="69"/>
      <point x="454" y="61"/>
      <point x="431" y="61" type="curve" smooth="yes"/>
      <point x="408" y="61"/>
      <point x="388" y="69"/>
      <point x="371" y="86" type="curve" smooth="yes"/>
      <point x="354" y="103"/>
      <point x="346" y="123"/>
      <point x="346" y="146" type="curve" smooth="yes"/>
      <point x="346" y="183" type="line"/>
      <point x="285" y="183" type="line"/>
      <point x="285" y="146" type="line" smooth="yes"/>
      <point x="285" y="123"/>
      <point x="275" y="103"/>
      <point x="256" y="86" type="curve" smooth="yes"/>
      <point x="237" y="69"/>
      <point x="215" y="61"/>
      <point x="188" y="61" type="curve" smooth="yes"/>
      <point x="161" y="61"/>
      <point x="139" y="68"/>
      <point x="120" y="83" type="curve" smooth="yes"/>
      <point x="101" y="97"/>
      <point x="91" y="114"/>
      <point x="91" y="134" type="curve" smooth="yes"/>
      <point x="91" y="153"/>
      <point x="98" y="171"/>
      <point x="111" y="186" type="curve" smooth="yes"/>
      <point x="124" y="202"/>
      <point x="142" y="213"/>
      <point x="164" y="219" type="curve" smooth="yes"/>
      <point x="193" y="227"/>
      <point x="216" y="241"/>
      <point x="234" y="259" type="curve" smooth="yes"/>
      <point x="251" y="277"/>
      <point x="261" y="295"/>
      <point x="261" y="316" type="curve" smooth="yes"/>
      <point x="261" y="336"/>
      <point x="258" y="354"/>
      <point x="251" y="369" type="curve" smooth="yes"/>
      <point x="244" y="384"/>
      <point x="236" y="394"/>
      <point x="225" y="401" type="curve"/>
      <point x="232" y="407"/>
      <point x="238" y="413"/>
      <point x="243" y="419" type="curve"/>
      <point x="247" y="426"/>
      <point x="249" y="432"/>
      <point x="249" y="438" type="curve" smooth="yes"/>
      <point x="249" y="442"/>
      <point x="248" y="446"/>
      <point x="245" y="450" type="curve"/>
      <point x="244" y="454"/>
      <point x="241" y="458"/>
      <point x="236" y="461" type="curve"/>
      <point x="601" y="461" type="line" smooth="yes"/>
      <point x="626" y="461"/>
      <point x="647" y="455"/>
      <point x="665" y="443" type="curve" smooth="yes"/>
      <point x="684" y="430"/>
      <point x="695" y="414"/>
      <point x="698" y="395" type="curve"/>
      <point x="695" y="397"/>
      <point x="689" y="399"/>
      <point x="681" y="400" type="curve" smooth="yes"/>
      <point x="674" y="401"/>
      <point x="665" y="401"/>
      <point x="655" y="401" type="curve" smooth="yes"/>
      <point x="627" y="401"/>
      <point x="603" y="392"/>
      <point x="583" y="373" type="curve" smooth="yes"/>
      <point x="563" y="354"/>
      <point x="553" y="331"/>
      <point x="553" y="304" type="curve" smooth="yes"/>
      <point x="553" y="272"/>
      <point x="565" y="245"/>
      <point x="588" y="223" type="curve" smooth="yes"/>
      <point x="612" y="200"/>
      <point x="641" y="189"/>
      <point x="674" y="189" type="curve" smooth="yes"/>
      <point x="704" y="189"/>
      <point x="730" y="201"/>
      <point x="751" y="226" type="curve" smooth="yes"/>
      <point x="772" y="251"/>
      <point x="783" y="281"/>
      <point x="783" y="316" type="curve" smooth="yes"/>
      <point x="783" y="373"/>
      <point x="766" y="422"/>
      <point x="730" y="463" type="curve" smooth="yes"/>
      <point x="695" y="503"/>
      <point x="651" y="523"/>
      <point x="601" y="523" type="curve" smooth="yes"/>
      <point x="43" y="523" type="line"/>
      <point x="43" y="461" type="line"/>
      <point x="164" y="461" type="line" smooth="yes"/>
      <point x="169" y="461"/>
      <point x="173" y="459"/>
      <point x="178" y="456" type="curve" smooth="yes"/>
      <point x="181" y="453"/>
      <point x="183" y="449"/>
      <point x="183" y="444" type="curve" smooth="yes"/>
      <point x="183" y="439"/>
      <point x="180" y="434"/>
      <point x="174" y="430" type="curve"/>
      <point x="167" y="427"/>
      <point x="160" y="425"/>
      <point x="151" y="425" type="curve" smooth="yes"/>
      <point x="121" y="425"/>
      <point x="95" y="415"/>
      <point x="74" y="396" type="curve" smooth="yes"/>
      <point x="53" y="377"/>
      <point x="43" y="355"/>
      <point x="43" y="328" type="curve" smooth="yes"/>
      <point x="43" y="304" type="line"/>
      <point x="103" y="304" type="line"/>
      <point x="103" y="316" type="line" smooth="yes"/>
      <point x="103" y="329"/>
      <point x="108" y="341"/>
      <point x="119" y="350" type="curve" smooth="yes"/>
      <point x="130" y="359"/>
      <point x="143" y="364"/>
      <point x="158" y="364" type="curve" smooth="yes"/>
      <point x="169" y="364"/>
      <point x="179" y="361"/>
      <point x="188" y="354" type="curve" smooth="yes"/>
      <point x="196" y="347"/>
      <point x="200" y="338"/>
      <point x="200" y="328" type="curve" smooth="yes"/>
      <point x="200" y="315"/>
      <point x="195" y="302"/>
      <point x="184" y="291" type="curve" smooth="yes"/>
      <point x="172" y="280"/>
      <point x="157" y="272"/>
      <point x="140" y="268" type="curve" smooth="yes"/>
      <point x="107" y="259"/>
      <point x="81" y="243"/>
      <point x="61" y="220" type="curve" smooth="yes"/>
      <point x="40" y="196"/>
      <point x="30" y="169"/>
      <point x="30" y="140" type="curve" smooth="yes"/>
      <point x="30" y="102"/>
      <point x="43" y="69"/>
      <point x="71" y="41" type="curve" smooth="yes"/>
      <point x="99" y="13"/>
      <point x="132" y="0"/>
    </contour>
  </outline>
</glyph>
<glyph name="Ka" format="1">
  <advance width="582"/>
  <unicode hex="0C15"/>
  <outline>
    <contour>
      <point x="383" y="480" type="line" smooth="yes" name="hr00"/>
      <point x="383" y="487"/>
      <point x="385" y="492"/>
      <point x="390" y="496" type="curve" smooth="yes"/>
      <point x="395" y="501"/>
      <point x="401" y="504"/>
      <point x="408" y="504" type="curve" smooth="yes"/>
      <point x="565" y="504" type="line"/>
      <point x="565" y="565" type="line"/>
      <point x="383" y="565" type="line" smooth="yes"/>
      <point x="366" y="565"/>
      <point x="352" y="559"/>
      <point x="340" y="548" type="curve"/>
      <point x="329" y="535"/>
      <point x="323" y="521"/>
      <point x="323" y="504" type="curve" smooth="yes"/>
      <point x="323" y="431" type="line"/>
      <point x="211" y="431" type="line"/>
      <point x="206" y="432"/>
      <point x="202" y="435"/>
      <point x="199" y="438" type="curve" smooth="yes"/>
      <point x="196" y="442"/>
      <point x="194" y="446"/>
      <point x="194" y="450" type="curve" smooth="yes"/>
      <point x="194" y="504" type="line"/>
      <point x="133" y="504" type="line"/>
      <point x="133" y="444" type="line" smooth="yes"/>
      <point x="133" y="430"/>
      <point x="138" y="418"/>
      <point x="148" y="407" type="curve"/>
      <point x="139" y="403"/>
      <point x="131" y="399"/>
      <point x="124" y="394" type="curve" smooth="yes"/>
      <point x="85" y="369"/>
      <point x="66" y="339"/>
      <point x="66" y="304" type="curve" smooth="yes"/>
      <point x="66" y="277"/>
      <point x="79" y="254"/>
      <point x="104" y="235" type="curve" smooth="yes"/>
      <point x="129" y="216"/>
      <point x="159" y="206"/>
      <point x="194" y="206" type="curve" smooth="yes"/>
      <point x="345" y="206" type="line" smooth="yes"/>
      <point x="368" y="206"/>
      <point x="388" y="200"/>
      <point x="405" y="189" type="curve" smooth="yes"/>
      <point x="422" y="177"/>
      <point x="430" y="163"/>
      <point x="430" y="146" type="curve" smooth="yes"/>
      <point x="430" y="122"/>
      <point x="415" y="103"/>
      <point x="384" y="89" type="curve" smooth="yes"/>
      <point x="353" y="75"/>
      <point x="312" y="68"/>
      <point x="260" y="68" type="curve" smooth="yes"/>
      <point x="213" y="68"/>
      <point x="173" y="75"/>
      <point x="140" y="90" type="curve" smooth="yes"/>
      <point x="107" y="106"/>
      <point x="90" y="125"/>
      <point x="90" y="146" type="curve"/>
      <point x="30" y="146" type="line"/>
      <point x="30" y="102"/>
      <point x="51" y="67"/>
      <point x="93" y="40" type="curve" smooth="yes"/>
      <point x="135" y="13"/>
      <point x="191" y="0"/>
      <point x="260" y="0" type="curve" smooth="yes"/>
      <point x="333" y="0"/>
      <point x="390" y="14"/>
      <point x="430" y="39" type="curve" smooth="yes"/>
      <point x="471" y="65"/>
      <point x="491" y="99"/>
      <point x="491" y="146" type="curve" smooth="yes"/>
      <point x="491" y="183"/>
      <point x="478" y="212"/>
      <point x="453" y="235" type="curve" smooth="yes"/>
      <point x="428" y="257"/>
      <point x="394" y="268"/>
      <point x="351" y="268" type="curve" smooth="yes"/>
      <point x="200" y="268" type="line" smooth="yes"/>
      <point x="180" y="268"/>
      <point x="163" y="272"/>
      <point x="148" y="280" type="curve" smooth="yes"/>
      <point x="133" y="289"/>
      <point x="126" y="299"/>
      <point x="126" y="310" type="curve" smooth="yes"/>
      <point x="126" y="325"/>
      <point x="139" y="338"/>
      <point x="165" y="348" type="curve" smooth="yes"/>
      <point x="191" y="359"/>
      <point x="222" y="364"/>
      <point x="259" y="364" type="curve" smooth="yes"/>
      <point x="295" y="364"/>
      <point x="326" y="358"/>
      <point x="351" y="346" type="curve" smooth="yes"/>
      <point x="376" y="335"/>
      <point x="391" y="321"/>
      <point x="394" y="304" type="curve"/>
      <point x="455" y="304" type="line"/>
      <point x="455" y="339"/>
      <point x="438" y="372"/>
      <point x="399" y="394" type="curve" smooth="yes"/>
      <point x="383" y="403" type="line"/>
    </contour>
  </outline>
</glyph>
<glyph name="Kha" format="1">
  <advance width="582"/>
  <unicode hex="0C16"/>
  <outline>
    <contour>
      <point x="321" y="-122" type="line" name="hr00"/>
      <point x="321" y="0" type="line"/>
      <point x="261" y="0" type="line"/>
      <point x="261" y="-122" type="line"/>
    </contour>
    <contour>
      <point x="69" y="39" type="curve" smooth="yes"/>
      <point x="96" y="12"/>
      <point x="127" y="0"/>
      <point x="164" y="0" type="curve" smooth="yes"/>
      <point x="187" y="0"/>
      <point x="209" y="6"/>
      <point x="230" y="18" type="curve" smooth="yes"/>
      <point x="251" y="29"/>
      <point x="267" y="45"/>
      <point x="279" y="66" type="curve"/>
      <point x="293" y="45"/>
      <point x="311" y="29"/>
      <point x="334" y="18" type="curve" smooth="yes"/>
      <point x="357" y="6"/>
      <point x="381" y="0"/>
      <point x="406" y="0" type="curve" smooth="yes"/>
      <point x="455" y="0"/>
      <point x="493" y="20"/>
      <point x="521" y="60" type="curve" smooth="yes"/>
      <point x="550" y="100"/>
      <point x="565" y="153"/>
      <point x="565" y="219" type="curve" smooth="yes"/>
      <point x="565" y="285"/>
      <point x="548" y="341"/>
      <point x="514" y="386" type="curve" smooth="yes"/>
      <point x="479" y="433"/>
      <point x="437" y="456"/>
      <point x="389" y="456" type="curve" smooth="yes"/>
      <point x="351" y="456" type="line"/>
      <point x="351" y="395" type="line"/>
      <point x="383" y="395" type="line" smooth="yes"/>
      <point x="416" y="395"/>
      <point x="445" y="377"/>
      <point x="469" y="341" type="curve" smooth="yes"/>
      <point x="492" y="306"/>
      <point x="504" y="263"/>
      <point x="504" y="213" type="curve" smooth="yes"/>
      <point x="504" y="171"/>
      <point x="495" y="135"/>
      <point x="474" y="105" type="curve" smooth="yes"/>
      <point x="454" y="76"/>
      <point x="429" y="61"/>
      <point x="400" y="61" type="curve" smooth="yes"/>
      <point x="379" y="61"/>
      <point x="359" y="69"/>
      <point x="340" y="84" type="curve" smooth="yes"/>
      <point x="323" y="98"/>
      <point x="311" y="117"/>
      <point x="304" y="140" type="curve"/>
      <point x="308" y="149"/>
      <point x="310" y="176"/>
      <point x="310" y="219" type="curve" smooth="yes"/>
      <point x="310" y="282"/>
      <point x="297" y="332"/>
      <point x="270" y="369" type="curve" smooth="yes"/>
      <point x="243" y="406"/>
      <point x="208" y="425"/>
      <point x="164" y="425" type="curve" smooth="yes"/>
      <point x="127" y="425"/>
      <point x="96" y="416"/>
      <point x="69" y="394" type="curve" smooth="yes"/>
      <point x="43" y="373"/>
      <point x="30" y="346"/>
      <point x="30" y="316" type="curve" smooth="yes"/>
      <point x="30" y="304" type="line"/>
      <point x="91" y="304" type="line"/>
      <point x="91" y="321"/>
      <point x="98" y="334"/>
      <point x="113" y="346" type="curve" smooth="yes"/>
      <point x="127" y="357"/>
      <point x="144" y="364"/>
      <point x="164" y="364" type="curve" smooth="yes"/>
      <point x="190" y="364"/>
      <point x="210" y="352"/>
      <point x="225" y="329" type="curve" smooth="yes"/>
      <point x="241" y="306"/>
      <point x="249" y="275"/>
      <point x="249" y="236" type="curve"/>
      <point x="239" y="246"/>
      <point x="227" y="254"/>
      <point x="213" y="260" type="curve" smooth="yes"/>
      <point x="200" y="265"/>
      <point x="185" y="268"/>
      <point x="170" y="268" type="curve" smooth="yes"/>
      <point x="132" y="268"/>
      <point x="99" y="256"/>
      <point x="71" y="229" type="curve" smooth="yes"/>
      <point x="44" y="203"/>
      <point x="30" y="171"/>
      <point x="30" y="134" type="curve" smooth="yes"/>
      <point x="30" y="97"/>
      <point x="42" y="66"/>
    </contour>
    <contour>
      <point x="215" y="83" type="curve" smooth="yes"/>
      <point x="201" y="68"/>
      <point x="184" y="61"/>
      <point x="164" y="61" type="curve" smooth="yes"/>
      <point x="144" y="61"/>
      <point x="128" y="68"/>
      <point x="113" y="83" type="curve" smooth="yes"/>
      <point x="98" y="98"/>
      <point x="91" y="114"/>
      <point x="91" y="134" type="curve" smooth="yes"/>
      <point x="91" y="154"/>
      <point x="98" y="171"/>
      <point x="113" y="185" type="curve" smooth="yes"/>
      <point x="127" y="199"/>
      <point x="144" y="206"/>
      <point x="164" y="206" type="curve" smooth="yes"/>
      <point x="184" y="206"/>
      <point x="201" y="199"/>
      <point x="215" y="185" type="curve" smooth="yes"/>
      <point x="229" y="171"/>
      <point x="236" y="154"/>
      <point x="236" y="134" type="curve" smooth="yes"/>
      <point x="236" y="114"/>
      <point x="229" y="97"/>
    </contour>
  </outline>
</glyph>
<glyph name="Ga" format="1">
  <advance width="590"/>
  <unicode hex="0C17"/>
  <outline>
    <contour>
      <point x="390" y="474" type="line" smooth="yes" name="hr00"/>
      <point x="390" y="481"/>
      <point x="393" y="486"/>
      <point x="398" y="490" type="curve" smooth="yes"/>
      <point x="403" y="495"/>
      <point x="408" y="498"/>
      <point x="415" y="498" type="curve" smooth="yes"/>
      <point x="573" y="498" type="line"/>
      <point x="573" y="559" type="line"/>
      <point x="390" y="559" type="line" smooth="yes"/>
      <point x="373" y="559"/>
      <point x="359" y="553"/>
      <point x="348" y="541" type="curve" smooth="yes"/>
      <point x="336" y="529"/>
      <point x="330" y="515"/>
      <point x="330" y="498" type="curve" smooth="yes"/>
      <point x="330" y="425" type="line"/>
      <point x="219" y="425" type="line"/>
      <point x="214" y="426"/>
      <point x="209" y="428"/>
      <point x="206" y="431" type="curve" smooth="yes"/>
      <point x="203" y="436"/>
      <point x="201" y="440"/>
      <point x="201" y="444" type="curve" smooth="yes"/>
      <point x="201" y="498" type="line"/>
      <point x="140" y="498" type="line"/>
      <point x="140" y="438" type="line" smooth="yes"/>
      <point x="140" y="424"/>
      <point x="145" y="412"/>
      <point x="155" y="401" type="curve"/>
      <point x="134" y="391"/>
      <point x="115" y="378"/>
      <point x="98" y="361" type="curve" smooth="yes"/>
      <point x="53" y="318"/>
      <point x="30" y="266"/>
      <point x="30" y="206" type="curve" smooth="yes"/>
      <point x="30" y="149"/>
      <point x="45" y="101"/>
      <point x="76" y="60" type="curve" smooth="yes"/>
      <point x="106" y="20"/>
      <point x="143" y="0"/>
      <point x="186" y="0" type="curve"/>
      <point x="186" y="61" type="line"/>
      <point x="159" y="61"/>
      <point x="135" y="75"/>
      <point x="116" y="104" type="curve" smooth="yes"/>
      <point x="97" y="132"/>
      <point x="88" y="166"/>
      <point x="88" y="206" type="curve" smooth="yes"/>
      <point x="88" y="249"/>
      <point x="105" y="287"/>
      <point x="139" y="318" type="curve" smooth="yes"/>
      <point x="173" y="349"/>
      <point x="214" y="364"/>
      <point x="263" y="364" type="curve" smooth="yes"/>
      <point x="311" y="364"/>
      <point x="353" y="349"/>
      <point x="388" y="318" type="curve" smooth="yes"/>
      <point x="422" y="287"/>
      <point x="439" y="249"/>
      <point x="439" y="206" type="curve" smooth="yes"/>
      <point x="439" y="165"/>
      <point x="429" y="129"/>
      <point x="409" y="99" type="curve" smooth="yes"/>
      <point x="390" y="70"/>
      <point x="366" y="55"/>
      <point x="338" y="55" type="curve"/>
      <point x="338" y="0" type="line"/>
      <point x="380" y="0"/>
      <point x="418" y="20"/>
      <point x="448" y="60" type="curve" smooth="yes"/>
      <point x="479" y="101"/>
      <point x="493" y="149"/>
      <point x="493" y="206" type="curve" smooth="yes"/>
      <point x="493" y="266"/>
      <point x="470" y="318"/>
      <point x="425" y="361" type="curve" smooth="yes"/>
      <point x="414" y="372"/>
      <point x="402" y="381"/>
      <point x="390" y="389" type="curve"/>
    </contour>
  </outline>
</glyph>
<glyph name="Gha" format="1">
  <advance width="867"/>
  <unicode hex="0C18"/>
  <outline>
    <contour>
      <point x="291" y="-122" type="line" name="hr00"/>
      <point x="291" y="0" type="line"/>
      <point x="231" y="0" type="line"/>
      <point x="231" y="-122" type="line"/>
    </contour>
    <contour>
      <point x="509" y="77" type="curve"/>
      <point x="521" y="60"/>
      <point x="536" y="44"/>
      <point x="554" y="31" type="curve" smooth="yes"/>
      <point x="585" y="10"/>
      <point x="618" y="0"/>
      <point x="655" y="0" type="curve" smooth="yes"/>
      <point x="709" y="0"/>
      <point x="755" y="21"/>
      <point x="793" y="63" type="curve" smooth="yes"/>
      <point x="831" y="104"/>
      <point x="850" y="154"/>
      <point x="850" y="213" type="curve" smooth="yes"/>
      <point x="850" y="271"/>
      <point x="834" y="321"/>
      <point x="799" y="363" type="curve" smooth="yes"/>
      <point x="765" y="404"/>
      <point x="722" y="425"/>
      <point x="674" y="425" type="curve" smooth="yes"/>
      <point x="656" y="425" type="line"/>
      <point x="656" y="364" type="line"/>
      <point x="680" y="364" type="line" smooth="yes"/>
      <point x="710" y="364"/>
      <point x="737" y="349"/>
      <point x="758" y="320" type="curve" smooth="yes"/>
      <point x="780" y="290"/>
      <point x="789" y="254"/>
      <point x="789" y="213" type="curve" smooth="yes"/>
      <point x="789" y="171"/>
      <point x="777" y="135"/>
      <point x="750" y="105" type="curve" smooth="yes"/>
      <point x="724" y="76"/>
      <point x="692" y="61"/>
      <point x="655" y="61" type="curve" smooth="yes"/>
      <point x="622" y="61"/>
      <point x="594" y="73"/>
      <point x="569" y="96" type="curve" smooth="yes"/>
      <point x="556" y="109"/>
      <point x="546" y="122"/>
      <point x="538" y="137" type="curve"/>
      <point x="543" y="157"/>
      <point x="546" y="178"/>
      <point x="546" y="200" type="curve" smooth="yes"/>
      <point x="546" y="263"/>
      <point x="529" y="316"/>
      <point x="494" y="359" type="curve" smooth="yes"/>
      <point x="458" y="403"/>
      <point x="415" y="425"/>
      <point x="365" y="425" type="curve" smooth="yes"/>
      <point x="285" y="425" type="line"/>
      <point x="285" y="364" type="line"/>
      <point x="359" y="364" type="line" smooth="yes"/>
      <point x="392" y="364"/>
      <point x="422" y="349"/>
      <point x="445" y="320" type="curve" smooth="yes"/>
      <point x="469" y="290"/>
      <point x="480" y="254"/>
      <point x="480" y="213" type="curve" smooth="yes"/>
      <point x="480" y="171"/>
      <point x="469" y="135"/>
      <point x="446" y="105" type="curve" smooth="yes"/>
      <point x="424" y="76"/>
      <point x="397" y="61"/>
      <point x="365" y="61" type="curve" smooth="yes"/>
      <point x="347" y="61"/>
      <point x="331" y="64"/>
      <point x="316" y="71" type="curve" smooth="yes"/>
      <point x="302" y="78"/>
      <point x="292" y="87"/>
      <point x="285" y="98" type="curve"/>
      <point x="289" y="107"/>
      <point x="291" y="119"/>
      <point x="291" y="134" type="curve" smooth="yes"/>
      <point x="291" y="165"/>
      <point x="279" y="192"/>
      <point x="254" y="215" type="curve" smooth="yes"/>
      <point x="229" y="238"/>
      <point x="199" y="249"/>
      <point x="164" y="249" type="curve" smooth="yes"/>
      <point x="127" y="249"/>
      <point x="96" y="238"/>
      <point x="69" y="214" type="curve" smooth="yes"/>
      <point x="43" y="191"/>
      <point x="30" y="161"/>
      <point x="30" y="128" type="curve" smooth="yes"/>
      <point x="30" y="93"/>
      <point x="43" y="63"/>
      <point x="69" y="38" type="curve" smooth="yes"/>
      <point x="96" y="13"/>
      <point x="127" y="0"/>
      <point x="164" y="0" type="curve" smooth="yes"/>
      <point x="182" y="0"/>
      <point x="199" y="4"/>
      <point x="216" y="11" type="curve" smooth="yes"/>
      <point x="233" y="19"/>
      <point x="248" y="30"/>
      <point x="261" y="43" type="curve"/>
      <point x="274" y="30"/>
      <point x="290" y="19"/>
      <point x="309" y="11" type="curve" smooth="yes"/>
      <point x="328" y="4"/>
      <point x="349" y="0"/>
      <point x="370" y="0" type="curve" smooth="yes"/>
      <point x="419" y="0"/>
      <point x="460" y="20"/>
      <point x="495" y="59" type="curve" smooth="yes"/>
      <point x="500" y="65"/>
      <point x="505" y="71"/>
    </contour>
    <contour>
      <point x="165" y="364" type="line"/>
      <point x="165" y="474" type="line" smooth="yes"/>
      <point x="165" y="481"/>
      <point x="168" y="486"/>
      <point x="173" y="490" type="curve"/>
      <point x="177" y="495"/>
      <point x="182" y="498"/>
      <point x="189" y="498" type="curve" smooth="yes"/>
      <point x="333" y="498" type="line"/>
      <point x="333" y="559" type="line"/>
      <point x="165" y="559" type="line" smooth="yes"/>
      <point x="148" y="559"/>
      <point x="134" y="554"/>
      <point x="121" y="541" type="curve" smooth="yes"/>
      <point x="109" y="529"/>
      <point x="104" y="515"/>
      <point x="104" y="498" type="curve" smooth="yes"/>
      <point x="104" y="425" type="line"/>
      <point x="31" y="425" type="line"/>
      <point x="31" y="364" type="line"/>
    </contour>
    <contour>
      <point x="211" y="76" type="curve" smooth="yes"/>
      <point x="198" y="62"/>
      <point x="182" y="55"/>
      <point x="164" y="55" type="curve" smooth="yes"/>
      <point x="144" y="55"/>
      <point x="127" y="62"/>
      <point x="113" y="76" type="curve" smooth="yes"/>
      <point x="98" y="91"/>
      <point x="91" y="108"/>
      <point x="91" y="128" type="curve" smooth="yes"/>
      <point x="91" y="146"/>
      <point x="98" y="161"/>
      <point x="113" y="174" type="curve" smooth="yes"/>
      <point x="127" y="187"/>
      <point x="144" y="194"/>
      <point x="164" y="194" type="curve" smooth="yes"/>
      <point x="182" y="194"/>
      <point x="198" y="187"/>
      <point x="211" y="174" type="curve" smooth="yes"/>
      <point x="224" y="161"/>
      <point x="231" y="146"/>
      <point x="231" y="128" type="curve" smooth="yes"/>
      <point x="231" y="108"/>
      <point x="224" y="91"/>
    </contour>
  </outline>
</glyph>
<glyph name="uni0C19" format="1">
  <advance width="593"/>
  <unicode hex="0C19"/>
  <outline>
    <contour>
      <point x="71" y="41" type="curve" smooth="yes" name="hr00"/>
      <point x="99" y="13"/>
      <point x="132" y="0"/>
      <point x="170" y="0" type="curve" smooth="yes"/>
      <point x="203" y="0"/>
      <point x="231" y="6"/>
      <point x="255" y="15" type="curve" smooth="yes"/>
      <point x="280" y="25"/>
      <point x="299" y="38"/>
      <point x="310" y="55" type="curve"/>
      <point x="322" y="38"/>
      <point x="340" y="24"/>
      <point x="363" y="15" type="curve" smooth="yes"/>
      <point x="386" y="5"/>
      <point x="413" y="0"/>
      <point x="443" y="0" type="curve" smooth="yes"/>
      <point x="481" y="0"/>
      <point x="513" y="13"/>
      <point x="539" y="38" type="curve" smooth="yes"/>
      <point x="564" y="63"/>
      <point x="576" y="95"/>
      <point x="576" y="134" type="curve" smooth="yes"/>
      <point x="576" y="150"/>
      <point x="574" y="164"/>
      <point x="571" y="176" type="curve"/>
      <point x="569" y="189"/>
      <point x="565" y="199"/>
      <point x="559" y="206" type="curve"/>
      <point x="491" y="206" type="line"/>
      <point x="500" y="198"/>
      <point x="506" y="189"/>
      <point x="510" y="179" type="curve" smooth="yes"/>
      <point x="514" y="168"/>
      <point x="516" y="157"/>
      <point x="516" y="146" type="curve" smooth="yes"/>
      <point x="516" y="123"/>
      <point x="508" y="103"/>
      <point x="491" y="86" type="curve" smooth="yes"/>
      <point x="474" y="69"/>
      <point x="454" y="61"/>
      <point x="431" y="61" type="curve" smooth="yes"/>
      <point x="408" y="61"/>
      <point x="388" y="69"/>
      <point x="371" y="86" type="curve" smooth="yes"/>
      <point x="354" y="103"/>
      <point x="346" y="123"/>
      <point x="346" y="146" type="curve" smooth="yes"/>
      <point x="346" y="183" type="line"/>
      <point x="285" y="183" type="line"/>
      <point x="285" y="146" type="line" smooth="yes"/>
      <point x="285" y="123"/>
      <point x="275" y="103"/>
      <point x="256" y="86" type="curve" smooth="yes"/>
      <point x="237" y="69"/>
      <point x="215" y="61"/>
      <point x="188" y="61" type="curve" smooth="yes"/>
      <point x="161" y="61"/>
      <point x="139" y="68"/>
      <point x="120" y="83" type="curve" smooth="yes"/>
      <point x="101" y="97"/>
      <point x="91" y="114"/>
      <point x="91" y="134" type="curve" smooth="yes"/>
      <point x="91" y="153"/>
      <point x="98" y="171"/>
      <point x="111" y="186" type="curve" smooth="yes"/>
      <point x="124" y="202"/>
      <point x="142" y="213"/>
      <point x="164" y="219" type="curve" smooth="yes"/>
      <point x="182" y="224"/>
      <point x="198" y="228"/>
      <point x="209" y="236" type="curve"/>
      <point x="222" y="241"/>
      <point x="231" y="248"/>
      <point x="236" y="255" type="curve"/>
      <point x="504" y="255" type="line"/>
      <point x="504" y="316" type="line"/>
      <point x="406" y="316" type="line"/>
      <point x="406" y="425" type="line"/>
      <point x="346" y="425" type="line"/>
      <point x="346" y="316" type="line"/>
      <point x="261" y="316" type="line"/>
      <point x="261" y="349"/>
      <point x="251" y="375"/>
      <point x="231" y="395" type="curve" smooth="yes"/>
      <point x="211" y="415"/>
      <point x="184" y="425"/>
      <point x="151" y="425" type="curve" smooth="yes"/>
      <point x="121" y="425"/>
      <point x="95" y="415"/>
      <point x="74" y="396" type="curve" smooth="yes"/>
      <point x="53" y="377"/>
      <point x="43" y="355"/>
      <point x="43" y="328" type="curve" smooth="yes"/>
      <point x="43" y="304" type="line"/>
      <point x="103" y="304" type="line"/>
      <point x="103" y="316" type="line" smooth="yes"/>
      <point x="103" y="329"/>
      <point x="108" y="341"/>
      <point x="119" y="350" type="curve" smooth="yes"/>
      <point x="130" y="359"/>
      <point x="143" y="364"/>
      <point x="158" y="364" type="curve" smooth="yes"/>
      <point x="169" y="364"/>
      <point x="179" y="361"/>
      <point x="188" y="354" type="curve" smooth="yes"/>
      <point x="196" y="347"/>
      <point x="200" y="338"/>
      <point x="200" y="328" type="curve" smooth="yes"/>
      <point x="200" y="315"/>
      <point x="195" y="302"/>
      <point x="184" y="291" type="curve" smooth="yes"/>
      <point x="172" y="280"/>
      <point x="157" y="272"/>
      <point x="140" y="268" type="curve" smooth="yes"/>
      <point x="107" y="259"/>
      <point x="81" y="243"/>
      <point x="61" y="220" type="curve" smooth="yes"/>
      <point x="40" y="196"/>
      <point x="30" y="169"/>
      <point x="30" y="140" type="curve" smooth="yes"/>
      <point x="30" y="102"/>
      <point x="43" y="69"/>
    </contour>
  </outline>
</glyph>
<glyph name="Cha" format="1">
  <advance width="655"/>
  <unicode hex="0C1B"/>
  <outline>
    <contour>
      <point x="455" y="474" type="line" smooth="yes" name="hr00"/>
      <point x="455" y="481"/>
      <point x="458" y="486"/>
      <point x="463" y="490" type="curve" smooth="yes"/>
      <point x="468" y="495"/>
      <point x="473" y="498"/>
      <point x="480" y="498" type="curve" smooth="yes"/>
      <point x="638" y="498" type="line"/>
      <point x="638" y="559" type="line"/>
      <point x="455" y="559" type="line" smooth="yes"/>
      <point x="438" y="559"/>
      <point x="424" y="553"/>
      <point x="413" y="541" type="curve" smooth="yes"/>
      <point x="401" y="529"/>
      <point x="395" y="515"/>
      <point x="395" y="498" type="curve" smooth="yes"/>
      <point x="395" y="425" type="line"/>
      <point x="284" y="425" type="line"/>
      <point x="279" y="426"/>
      <point x="274" y="428"/>
      <point x="271" y="431" type="curve" smooth="yes"/>
      <point x="268" y="436"/>
      <point x="266" y="440"/>
      <point x="266" y="444" type="curve" smooth="yes"/>
      <point x="266" y="498" type="line"/>
      <point x="205" y="498" type="line"/>
      <point x="205" y="438" type="line" smooth="yes"/>
      <point x="205" y="423"/>
      <point x="211" y="405"/>
      <point x="223" y="385" type="curve"/>
      <point x="235" y="371"/>
      <point x="249" y="364"/>
      <point x="266" y="364" type="curve" smooth="yes"/>
      <point x="398" y="364" type="line" smooth="yes"/>
      <point x="438" y="364"/>
      <point x="472" y="349"/>
      <point x="501" y="320" type="curve" smooth="yes"/>
      <point x="530" y="290"/>
      <point x="544" y="254"/>
      <point x="544" y="213" type="curve" smooth="yes"/>
      <point x="544" y="171"/>
      <point x="534" y="135"/>
      <point x="514" y="105" type="curve" smooth="yes"/>
      <point x="494" y="76"/>
      <point x="470" y="61"/>
      <point x="441" y="61" type="curve" smooth="yes"/>
      <point x="419" y="61"/>
      <point x="401" y="70"/>
      <point x="385" y="88" type="curve" smooth="yes"/>
      <point x="370" y="105"/>
      <point x="361" y="126"/>
      <point x="361" y="151" type="curve" smooth="yes"/>
      <point x="361" y="183" type="line"/>
      <point x="301" y="183" type="line"/>
      <point x="301" y="151" type="line" smooth="yes"/>
      <point x="301" y="126"/>
      <point x="293" y="105"/>
      <point x="276" y="88" type="curve" smooth="yes"/>
      <point x="259" y="70"/>
      <point x="239" y="61"/>
      <point x="216" y="61" type="curve" smooth="yes"/>
      <point x="193" y="61"/>
      <point x="173" y="69"/>
      <point x="156" y="84" type="curve" smooth="yes"/>
      <point x="139" y="100"/>
      <point x="131" y="119"/>
      <point x="131" y="140" type="curve" smooth="yes"/>
      <point x="131" y="162"/>
      <point x="137" y="181"/>
      <point x="149" y="196" type="curve" smooth="yes"/>
      <point x="160" y="211"/>
      <point x="174" y="219"/>
      <point x="191" y="219" type="curve" smooth="yes"/>
      <point x="253" y="219" type="line"/>
      <point x="253" y="279" type="line"/>
      <point x="10" y="279" type="line"/>
      <point x="10" y="219" type="line"/>
      <point x="101" y="219" type="line"/>
      <point x="91" y="207"/>
      <point x="83" y="194"/>
      <point x="78" y="179" type="curve" smooth="yes"/>
      <point x="73" y="165"/>
      <point x="70" y="150"/>
      <point x="70" y="134" type="curve" smooth="yes"/>
      <point x="70" y="97"/>
      <point x="84" y="65"/>
      <point x="111" y="39" type="curve" smooth="yes"/>
      <point x="139" y="12"/>
      <point x="172" y="0"/>
      <point x="210" y="0" type="curve" smooth="yes"/>
      <point x="234" y="0"/>
      <point x="257" y="5"/>
      <point x="278" y="15" type="curve" smooth="yes"/>
      <point x="298" y="24"/>
      <point x="314" y="38"/>
      <point x="325" y="55" type="curve"/>
      <point x="337" y="38"/>
      <point x="353" y="25"/>
      <point x="374" y="15" type="curve" smooth="yes"/>
      <point x="394" y="6"/>
      <point x="416" y="0"/>
      <point x="441" y="0" type="curve" smooth="yes"/>
      <point x="486" y="0"/>
      <point x="525" y="21"/>
      <point x="558" y="63" type="curve" smooth="yes"/>
      <point x="589" y="104"/>
      <point x="605" y="154"/>
      <point x="605" y="213" type="curve" smooth="yes"/>
      <point x="605" y="271"/>
      <point x="585" y="321"/>
      <point x="544" y="363" type="curve" smooth="yes"/>
      <point x="518" y="390"/>
      <point x="488" y="408"/>
      <point x="455" y="417" type="curve"/>
    </contour>
    <contour>
      <point x="361" y="-122" type="line"/>
      <point x="361" y="0" type="line"/>
      <point x="301" y="0" type="line"/>
      <point x="301" y="-122" type="line"/>
    </contour>
  </outline>
</glyph>
<glyph name="Ja" format="1">
  <advance width="593"/>
  <unicode hex="0C1C"/>
  <outline>
    <contour>
      <point x="78" y="39" type="curve" smooth="yes" name="hr00"/>
      <point x="110" y="13"/>
      <point x="149" y="0"/>
      <point x="194" y="0" type="curve" smooth="yes"/>
      <point x="219" y="0"/>
      <point x="241" y="6"/>
      <point x="261" y="15" type="curve" smooth="yes"/>
      <point x="282" y="25"/>
      <point x="299" y="38"/>
      <point x="310" y="55" type="curve"/>
      <point x="322" y="38"/>
      <point x="339" y="24"/>
      <point x="360" y="15" type="curve" smooth="yes"/>
      <point x="381" y="5"/>
      <point x="404" y="0"/>
      <point x="431" y="0" type="curve" smooth="yes"/>
      <point x="477" y="0"/>
      <point x="513" y="11"/>
      <point x="539" y="36" type="curve" smooth="yes"/>
      <point x="564" y="60"/>
      <point x="576" y="96"/>
      <point x="576" y="140" type="curve" smooth="yes"/>
      <point x="576" y="155"/>
      <point x="574" y="168"/>
      <point x="571" y="179" type="curve" smooth="yes"/>
      <point x="569" y="190"/>
      <point x="565" y="199"/>
      <point x="559" y="206" type="curve"/>
      <point x="491" y="206" type="line"/>
      <point x="500" y="196"/>
      <point x="506" y="186"/>
      <point x="510" y="175" type="curve" smooth="yes"/>
      <point x="514" y="164"/>
      <point x="516" y="152"/>
      <point x="516" y="140" type="curve" smooth="yes"/>
      <point x="516" y="119"/>
      <point x="508" y="100"/>
      <point x="491" y="84" type="curve" smooth="yes"/>
      <point x="474" y="69"/>
      <point x="454" y="61"/>
      <point x="431" y="61" type="curve" smooth="yes"/>
      <point x="408" y="61"/>
      <point x="388" y="68"/>
      <point x="371" y="83" type="curve" smooth="yes"/>
      <point x="354" y="97"/>
      <point x="346" y="114"/>
      <point x="346" y="134" type="curve" smooth="yes"/>
      <point x="346" y="183" type="line"/>
      <point x="285" y="183" type="line"/>
      <point x="285" y="151" type="line" smooth="yes"/>
      <point x="285" y="126"/>
      <point x="275" y="105"/>
      <point x="256" y="88" type="curve" smooth="yes"/>
      <point x="237" y="70"/>
      <point x="215" y="61"/>
      <point x="188" y="61" type="curve" smooth="yes"/>
      <point x="161" y="61"/>
      <point x="139" y="68"/>
      <point x="120" y="83" type="curve" smooth="yes"/>
      <point x="101" y="97"/>
      <point x="91" y="114"/>
      <point x="91" y="134" type="curve" smooth="yes"/>
      <point x="91" y="152"/>
      <point x="99" y="169"/>
      <point x="114" y="185" type="curve" smooth="yes"/>
      <point x="128" y="201"/>
      <point x="147" y="212"/>
      <point x="170" y="219" type="curve" smooth="yes"/>
      <point x="186" y="223"/>
      <point x="200" y="230"/>
      <point x="213" y="239" type="curve" smooth="yes"/>
      <point x="225" y="247"/>
      <point x="235" y="257"/>
      <point x="243" y="268" type="curve"/>
      <point x="262" y="252"/>
      <point x="283" y="239"/>
      <point x="306" y="231" type="curve" smooth="yes"/>
      <point x="331" y="222"/>
      <point x="356" y="219"/>
      <point x="383" y="219" type="curve" smooth="yes"/>
      <point x="420" y="219"/>
      <point x="452" y="228"/>
      <point x="478" y="250" type="curve" smooth="yes"/>
      <point x="504" y="271"/>
      <point x="516" y="298"/>
      <point x="516" y="328" type="curve" smooth="yes"/>
      <point x="516" y="355"/>
      <point x="507" y="377"/>
      <point x="490" y="396" type="curve" smooth="yes"/>
      <point x="472" y="415"/>
      <point x="450" y="425"/>
      <point x="425" y="425" type="curve" smooth="yes"/>
      <point x="383" y="425" type="line"/>
      <point x="383" y="364" type="line"/>
      <point x="413" y="364" type="line" smooth="yes"/>
      <point x="424" y="364"/>
      <point x="434" y="361"/>
      <point x="443" y="354" type="curve" smooth="yes"/>
      <point x="451" y="347"/>
      <point x="455" y="338"/>
      <point x="455" y="328" type="curve" smooth="yes"/>
      <point x="455" y="315"/>
      <point x="447" y="303"/>
      <point x="430" y="293" type="curve" smooth="yes"/>
      <point x="413" y="284"/>
      <point x="393" y="279"/>
      <point x="370" y="279" type="curve" smooth="yes"/>
      <point x="345" y="279"/>
      <point x="323" y="283"/>
      <point x="304" y="291" type="curve" smooth="yes"/>
      <point x="284" y="300"/>
      <point x="270" y="313"/>
      <point x="261" y="328" type="curve"/>
      <point x="261" y="355"/>
      <point x="250" y="377"/>
      <point x="229" y="396" type="curve" smooth="yes"/>
      <point x="207" y="415"/>
      <point x="181" y="425"/>
      <point x="151" y="425" type="curve" smooth="yes"/>
      <point x="121" y="425"/>
      <point x="95" y="415"/>
      <point x="74" y="396" type="curve" smooth="yes"/>
      <point x="53" y="377"/>
      <point x="43" y="355"/>
      <point x="43" y="328" type="curve" smooth="yes"/>
      <point x="43" y="304" type="line"/>
      <point x="103" y="304" type="line"/>
      <point x="103" y="321" type="line" smooth="yes"/>
      <point x="103" y="334"/>
      <point x="107" y="346"/>
      <point x="116" y="356" type="curve"/>
      <point x="126" y="365"/>
      <point x="138" y="370"/>
      <point x="151" y="370" type="curve" smooth="yes"/>
      <point x="164" y="370"/>
      <point x="176" y="366"/>
      <point x="186" y="358" type="curve"/>
      <point x="195" y="349"/>
      <point x="200" y="339"/>
      <point x="200" y="328" type="curve" smooth="yes"/>
      <point x="200" y="312"/>
      <point x="194" y="298"/>
      <point x="181" y="285" type="curve" smooth="yes"/>
      <point x="169" y="272"/>
      <point x="153" y="264"/>
      <point x="134" y="261" type="curve" smooth="yes"/>
      <point x="104" y="256"/>
      <point x="78" y="242"/>
      <point x="59" y="218" type="curve" smooth="yes"/>
      <point x="39" y="193"/>
      <point x="30" y="165"/>
      <point x="30" y="134" type="curve" smooth="yes"/>
      <point x="30" y="97"/>
      <point x="46" y="66"/>
    </contour>
  </outline>
</glyph>
<glyph name="Jha" format="1">
  <advance width="1123"/>
  <unicode hex="0C1D"/>
  <outline>
    <contour>
      <point x="219" y="425" type="line" name="hr00"/>
      <point x="214" y="426"/>
      <point x="209" y="428"/>
      <point x="206" y="431" type="curve" smooth="yes"/>
      <point x="203" y="436"/>
      <point x="201" y="440"/>
      <point x="201" y="444" type="curve" smooth="yes"/>
      <point x="201" y="498" type="line"/>
      <point x="140" y="498" type="line"/>
      <point x="140" y="438" type="line" smooth="yes"/>
      <point x="140" y="423"/>
      <point x="145" y="411"/>
      <point x="156" y="400" type="curve"/>
      <point x="136" y="390"/>
      <point x="117" y="377"/>
      <point x="100" y="361" type="curve" smooth="yes"/>
      <point x="53" y="318"/>
      <point x="30" y="266"/>
      <point x="30" y="206" type="curve" smooth="yes"/>
      <point x="30" y="149"/>
      <point x="53" y="101"/>
      <point x="100" y="60" type="curve" smooth="yes"/>
      <point x="146" y="20"/>
      <point x="202" y="0"/>
      <point x="268" y="0" type="curve" smooth="yes"/>
      <point x="336" y="0"/>
      <point x="392" y="20"/>
      <point x="436" y="60" type="curve" smooth="yes"/>
      <point x="443" y="67"/>
      <point x="450" y="73"/>
      <point x="456" y="80" type="curve"/>
      <point x="467" y="61"/>
      <point x="482" y="47"/>
      <point x="503" y="33" type="curve" smooth="yes"/>
      <point x="535" y="12"/>
      <point x="572" y="0"/>
      <point x="614" y="0" type="curve" smooth="yes"/>
      <point x="667" y="0"/>
      <point x="713" y="19"/>
      <point x="748" y="63" type="curve" smooth="yes"/>
      <point x="763" y="82" type="line"/>
      <point x="775" y="62"/>
      <point x="791" y="45"/>
      <point x="810" y="31" type="curve" smooth="yes"/>
      <point x="841" y="10"/>
      <point x="874" y="0"/>
      <point x="911" y="0" type="curve" smooth="yes"/>
      <point x="966" y="0"/>
      <point x="1011" y="21"/>
      <point x="1049" y="63" type="curve" smooth="yes"/>
      <point x="1086" y="104"/>
      <point x="1106" y="154"/>
      <point x="1106" y="213" type="curve" smooth="yes"/>
      <point x="1106" y="271"/>
      <point x="1090" y="321"/>
      <point x="1055" y="363" type="curve" smooth="yes"/>
      <point x="1021" y="404"/>
      <point x="979" y="425"/>
      <point x="930" y="425" type="curve" smooth="yes"/>
      <point x="913" y="425" type="line"/>
      <point x="913" y="364" type="line"/>
      <point x="936" y="364" type="line" smooth="yes"/>
      <point x="966" y="364"/>
      <point x="993" y="349"/>
      <point x="1014" y="320" type="curve" smooth="yes"/>
      <point x="1036" y="290"/>
      <point x="1045" y="254"/>
      <point x="1045" y="213" type="curve" smooth="yes"/>
      <point x="1045" y="171"/>
      <point x="1033" y="135"/>
      <point x="1006" y="105" type="curve" smooth="yes"/>
      <point x="980" y="76"/>
      <point x="948" y="61"/>
      <point x="911" y="61" type="curve" smooth="yes"/>
      <point x="879" y="61"/>
      <point x="850" y="73"/>
      <point x="825" y="96" type="curve" smooth="yes"/>
      <point x="811" y="109"/>
      <point x="800" y="124"/>
      <point x="792" y="141" type="curve"/>
      <point x="799" y="164"/>
      <point x="803" y="188"/>
      <point x="803" y="213" type="curve" smooth="yes"/>
      <point x="803" y="271"/>
      <point x="788" y="321"/>
      <point x="755" y="363" type="curve" smooth="yes"/>
      <point x="723" y="404"/>
      <point x="684" y="425"/>
      <point x="639" y="425" type="curve" smooth="yes"/>
      <point x="584" y="425" type="line"/>
      <point x="584" y="364" type="line"/>
      <point x="639" y="364" type="line" smooth="yes"/>
      <point x="667" y="364"/>
      <point x="691" y="349"/>
      <point x="711" y="320" type="curve" smooth="yes"/>
      <point x="731" y="290"/>
      <point x="741" y="254"/>
      <point x="741" y="213" type="curve" smooth="yes"/>
      <point x="741" y="171"/>
      <point x="729" y="135"/>
      <point x="703" y="105" type="curve" smooth="yes"/>
      <point x="678" y="76"/>
      <point x="646" y="61"/>
      <point x="610" y="61" type="curve" smooth="yes"/>
      <point x="577" y="61"/>
      <point x="549" y="74"/>
      <point x="523" y="98" type="curve" smooth="yes"/>
      <point x="510" y="111"/>
      <point x="499" y="124"/>
      <point x="492" y="140" type="curve"/>
      <point x="500" y="162"/>
      <point x="504" y="186"/>
      <point x="504" y="213" type="curve" smooth="yes"/>
      <point x="504" y="271"/>
      <point x="481" y="321"/>
      <point x="435" y="363" type="curve" smooth="yes"/>
      <point x="421" y="375"/>
      <point x="406" y="386"/>
      <point x="390" y="395" type="curve"/>
      <point x="390" y="474" type="line" smooth="yes"/>
      <point x="390" y="481"/>
      <point x="393" y="486"/>
      <point x="398" y="490" type="curve" smooth="yes"/>
      <point x="403" y="495"/>
      <point x="408" y="498"/>
      <point x="415" y="498" type="curve" smooth="yes"/>
      <point x="573" y="498" type="line"/>
      <point x="573" y="559" type="line"/>
      <point x="390" y="559" type="line" smooth="yes"/>
      <point x="373" y="559"/>
      <point x="359" y="553"/>
      <point x="348" y="541" type="curve" smooth="yes"/>
      <point x="336" y="529"/>
      <point x="330" y="515"/>
      <point x="330" y="498" type="curve" smooth="yes"/>
      <point x="330" y="425" type="line"/>
    </contour>
    <contour>
      <point x="790" y="-122" type="line"/>
      <point x="790" y="0" type="line"/>
      <point x="729" y="0" type="line"/>
      <point x="729" y="-122" type="line"/>
    </contour>
    <contour>
      <point x="393" y="105" type="curve" smooth="yes"/>
      <point x="358" y="75"/>
      <point x="316" y="61"/>
      <point x="268" y="61" type="curve" smooth="yes"/>
      <point x="219" y="61"/>
      <point x="178" y="76"/>
      <point x="143" y="105" type="curve" smooth="yes"/>
      <point x="108" y="135"/>
      <point x="91" y="171"/>
      <point x="91" y="213" type="curve" smooth="yes"/>
      <point x="91" y="254"/>
      <point x="108" y="290"/>
      <point x="143" y="320" type="curve" smooth="yes"/>
      <point x="178" y="349"/>
      <point x="219" y="364"/>
      <point x="268" y="364" type="curve" smooth="yes"/>
      <point x="316" y="364"/>
      <point x="358" y="350"/>
      <point x="393" y="320" type="curve" smooth="yes"/>
      <point x="427" y="291"/>
      <point x="444" y="254"/>
      <point x="444" y="213" type="curve" smooth="yes"/>
      <point x="444" y="171"/>
      <point x="427" y="134"/>
    </contour>
  </outline>
</glyph>
<glyph name="TTha" format="1">
  <advance width="590"/>
  <unicode hex="0C20"/>
  <outline>
    <contour>
      <point x="390" y="474" type="line" smooth="yes" name="hr00"/>
      <point x="390" y="481"/>
      <point x="393" y="486"/>
      <point x="398" y="490" type="curve" smooth="yes"/>
      <point x="403" y="495"/>
      <point x="408" y="498"/>
      <point x="415" y="498" type="curve" smooth="yes"/>
      <point x="573" y="498" type="line"/>
      <point x="573" y="559" type="line"/>
      <point x="390" y="559" type="line" smooth="yes"/>
      <point x="373" y="559"/>
      <point x="359" y="553"/>
      <point x="348" y="541" type="curve" smooth="yes"/>
      <point x="336" y="529"/>
      <point x="330" y="515"/>
      <point x="330" y="498" type="curve" smooth="yes"/>
      <point x="330" y="425" type="line"/>
      <point x="219" y="425" type="line"/>
      <point x="214" y="426"/>
      <point x="209" y="428"/>
      <point x="206" y="431" type="curve" smooth="yes"/>
      <point x="203" y="436"/>
      <point x="201" y="440"/>
      <point x="201" y="444" type="curve" smooth="yes"/>
      <point x="201" y="498" type="line"/>
      <point x="140" y="498" type="line"/>
      <point x="140" y="438" type="line" smooth="yes"/>
      <point x="140" y="423"/>
      <point x="145" y="411"/>
      <point x="156" y="400" type="curve"/>
      <point x="136" y="390"/>
      <point x="117" y="377"/>
      <point x="100" y="361" type="curve" smooth="yes"/>
      <point x="53" y="318"/>
      <point x="30" y="266"/>
      <point x="30" y="206" type="curve" smooth="yes"/>
      <point x="30" y="149"/>
      <point x="53" y="101"/>
      <point x="100" y="60" type="curve" smooth="yes"/>
      <point x="146" y="20"/>
      <point x="202" y="0"/>
      <point x="268" y="0" type="curve" smooth="yes"/>
      <point x="336" y="0"/>
      <point x="392" y="20"/>
      <point x="436" y="60" type="curve" smooth="yes"/>
      <point x="481" y="100"/>
      <point x="504" y="151"/>
      <point x="504" y="213" type="curve" smooth="yes"/>
      <point x="504" y="271"/>
      <point x="481" y="321"/>
      <point x="435" y="363" type="curve" smooth="yes"/>
      <point x="421" y="375"/>
      <point x="406" y="386"/>
      <point x="390" y="395" type="curve"/>
    </contour>
    <contour>
      <point x="393" y="105" type="curve" smooth="yes"/>
      <point x="358" y="75"/>
      <point x="316" y="61"/>
      <point x="268" y="61" type="curve" smooth="yes"/>
      <point x="219" y="61"/>
      <point x="178" y="76"/>
      <point x="143" y="105" type="curve" smooth="yes"/>
      <point x="108" y="135"/>
      <point x="91" y="171"/>
      <point x="91" y="213" type="curve" smooth="yes"/>
      <point x="91" y="254"/>
      <point x="108" y="290"/>
      <point x="143" y="320" type="curve" smooth="yes"/>
      <point x="178" y="349"/>
      <point x="219" y="364"/>
      <point x="268" y="364" type="curve" smooth="yes"/>
      <point x="316" y="364"/>
      <point x="358" y="350"/>
      <point x="393" y="320" type="curve" smooth="yes"/>
      <point x="427" y="291"/>
      <point x="444" y="254"/>
      <point x="444" y="213" type="curve" smooth="yes"/>
      <point x="444" y="171"/>
      <point x="427" y="134"/>
    </contour>
    <contour>
      <point x="298" y="176" type="line"/>
      <point x="298" y="236" type="line"/>
      <point x="236" y="236" type="line"/>
      <point x="236" y="176" type="line"/>
    </contour>
  </outline>
</glyph>
<glyph name="DDha" format="1">
  <advance width="635"/>
  <unicode hex="0C22"/>
  <outline>
    <contour>
      <point x="435" y="474" type="line" smooth="yes" name="hr00"/>
      <point x="435" y="481"/>
      <point x="438" y="486"/>
      <point x="443" y="490" type="curve" smooth="yes"/>
      <point x="448" y="495"/>
      <point x="453" y="498"/>
      <point x="460" y="498" type="curve" smooth="yes"/>
      <point x="618" y="498" type="line"/>
      <point x="618" y="559" type="line"/>
      <point x="435" y="559" type="line" smooth="yes"/>
      <point x="418" y="559"/>
      <point x="404" y="553"/>
      <point x="393" y="541" type="curve" smooth="yes"/>
      <point x="381" y="529"/>
      <point x="375" y="515"/>
      <point x="375" y="498" type="curve" smooth="yes"/>
      <point x="375" y="425" type="line"/>
      <point x="264" y="425" type="line"/>
      <point x="259" y="426"/>
      <point x="254" y="428"/>
      <point x="251" y="431" type="curve" smooth="yes"/>
      <point x="248" y="436"/>
      <point x="246" y="440"/>
      <point x="246" y="444" type="curve" smooth="yes"/>
      <point x="246" y="498" type="line"/>
      <point x="185" y="498" type="line"/>
      <point x="185" y="438" type="line" smooth="yes"/>
      <point x="185" y="431"/>
      <point x="186" y="424"/>
      <point x="189" y="417" type="curve"/>
      <point x="154" y="407"/>
      <point x="122" y="387"/>
      <point x="94" y="358" type="curve" smooth="yes"/>
      <point x="51" y="313"/>
      <point x="30" y="258"/>
      <point x="30" y="194" type="curve" smooth="yes"/>
      <point x="30" y="141"/>
      <point x="46" y="95"/>
      <point x="79" y="56" type="curve" smooth="yes"/>
      <point x="110" y="19"/>
      <point x="149" y="0"/>
      <point x="195" y="0" type="curve" smooth="yes"/>
      <point x="221" y="0"/>
      <point x="245" y="6"/>
      <point x="266" y="15" type="curve" smooth="yes"/>
      <point x="288" y="25"/>
      <point x="306" y="38"/>
      <point x="319" y="55" type="curve"/>
      <point x="329" y="38"/>
      <point x="345" y="25"/>
      <point x="368" y="15" type="curve" smooth="yes"/>
      <point x="391" y="5"/>
      <point x="418" y="0"/>
      <point x="448" y="0" type="curve" smooth="yes"/>
      <point x="489" y="0"/>
      <point x="524" y="13"/>
      <point x="553" y="39" type="curve" smooth="yes"/>
      <point x="582" y="66"/>
      <point x="596" y="97"/>
      <point x="596" y="134" type="curve" smooth="yes"/>
      <point x="596" y="164"/>
      <point x="585" y="190"/>
      <point x="563" y="211" type="curve" smooth="yes"/>
      <point x="540" y="232"/>
      <point x="513" y="243"/>
      <point x="480" y="243" type="curve" smooth="yes"/>
      <point x="452" y="243"/>
      <point x="427" y="235"/>
      <point x="406" y="218" type="curve" smooth="yes"/>
      <point x="386" y="201"/>
      <point x="376" y="181"/>
      <point x="376" y="158" type="curve"/>
      <point x="441" y="158" type="line"/>
      <point x="441" y="165"/>
      <point x="445" y="170"/>
      <point x="453" y="175" type="curve" smooth="yes"/>
      <point x="460" y="180"/>
      <point x="469" y="183"/>
      <point x="480" y="183" type="curve" smooth="yes"/>
      <point x="495" y="183"/>
      <point x="508" y="178"/>
      <point x="518" y="169" type="curve" smooth="yes"/>
      <point x="529" y="159"/>
      <point x="534" y="147"/>
      <point x="534" y="134" type="curve" smooth="yes"/>
      <point x="534" y="114"/>
      <point x="526" y="97"/>
      <point x="509" y="83" type="curve" smooth="yes"/>
      <point x="492" y="68"/>
      <point x="472" y="61"/>
      <point x="448" y="61" type="curve" smooth="yes"/>
      <point x="420" y="61"/>
      <point x="397" y="69"/>
      <point x="378" y="86" type="curve" smooth="yes"/>
      <point x="359" y="103"/>
      <point x="349" y="123"/>
      <point x="349" y="146" type="curve" smooth="yes"/>
      <point x="349" y="183" type="line"/>
      <point x="289" y="183" type="line"/>
      <point x="289" y="140" type="line" smooth="yes"/>
      <point x="289" y="119"/>
      <point x="280" y="100"/>
      <point x="261" y="84" type="curve" smooth="yes"/>
      <point x="243" y="69"/>
      <point x="221" y="61"/>
      <point x="195" y="61" type="curve" smooth="yes"/>
      <point x="167" y="61"/>
      <point x="142" y="74"/>
      <point x="121" y="100" type="curve" smooth="yes"/>
      <point x="101" y="126"/>
      <point x="91" y="157"/>
      <point x="91" y="194" type="curve" smooth="yes"/>
      <point x="91" y="241"/>
      <point x="107" y="281"/>
      <point x="138" y="314" type="curve" smooth="yes"/>
      <point x="168" y="347"/>
      <point x="205" y="364"/>
      <point x="248" y="364" type="curve" smooth="yes"/>
      <point x="530" y="364" type="line"/>
      <point x="530" y="425" type="line"/>
      <point x="435" y="425" type="line"/>
    </contour>
    <contour>
      <point x="351" y="-122" type="line"/>
      <point x="351" y="0" type="line"/>
      <point x="286" y="0" type="line"/>
      <point x="286" y="-122" type="line"/>
    </contour>
  </outline>
</glyph>
<glyph name="uni0C23" format="1">
  <advance width="606"/>
  <unicode hex="0C23"/>
  <outline>
    <contour>
      <point x="68" y="35" type="curve" smooth="yes" name="hr00"/>
      <point x="93" y="12"/>
      <point x="123" y="0"/>
      <point x="158" y="0" type="curve" smooth="yes"/>
      <point x="191" y="0"/>
      <point x="221" y="8"/>
      <point x="244" y="26" type="curve" smooth="yes"/>
      <point x="268" y="44"/>
      <point x="279" y="66"/>
      <point x="279" y="91" type="curve" smooth="yes"/>
      <point x="279" y="115" type="line"/>
      <point x="218" y="115" type="line"/>
      <point x="218" y="98" type="line" smooth="yes"/>
      <point x="218" y="88"/>
      <point x="212" y="79"/>
      <point x="200" y="71" type="curve" smooth="yes"/>
      <point x="189" y="64"/>
      <point x="175" y="61"/>
      <point x="158" y="61" type="curve" smooth="yes"/>
      <point x="141" y="61"/>
      <point x="127" y="67"/>
      <point x="114" y="79" type="curve" smooth="yes"/>
      <point x="102" y="90"/>
      <point x="96" y="104"/>
      <point x="96" y="121" type="curve" smooth="yes"/>
      <point x="96" y="138"/>
      <point x="103" y="152"/>
      <point x="118" y="165" type="curve" smooth="yes"/>
      <point x="133" y="177"/>
      <point x="150" y="183"/>
      <point x="170" y="183" type="curve" smooth="yes"/>
      <point x="194" y="183" type="line"/>
      <point x="194" y="243" type="line"/>
      <point x="170" y="243" type="line" smooth="yes"/>
      <point x="150" y="243"/>
      <point x="133" y="248"/>
      <point x="118" y="260" type="curve" smooth="yes"/>
      <point x="103" y="272"/>
      <point x="96" y="287"/>
      <point x="96" y="304" type="curve" smooth="yes"/>
      <point x="96" y="321"/>
      <point x="104" y="335"/>
      <point x="119" y="346" type="curve" smooth="yes"/>
      <point x="135" y="358"/>
      <point x="154" y="364"/>
      <point x="175" y="364" type="curve" smooth="yes"/>
      <point x="198" y="364"/>
      <point x="216" y="357"/>
      <point x="231" y="343" type="curve" smooth="yes"/>
      <point x="247" y="328"/>
      <point x="255" y="311"/>
      <point x="255" y="291" type="curve"/>
      <point x="315" y="291" type="line"/>
      <point x="317" y="312"/>
      <point x="327" y="330"/>
      <point x="344" y="343" type="curve" smooth="yes"/>
      <point x="361" y="357"/>
      <point x="382" y="364"/>
      <point x="406" y="364" type="curve" smooth="yes"/>
      <point x="439" y="364"/>
      <point x="469" y="351"/>
      <point x="493" y="323" type="curve" smooth="yes"/>
      <point x="517" y="296"/>
      <point x="528" y="264"/>
      <point x="528" y="225" type="curve" smooth="yes"/>
      <point x="528" y="211"/>
      <point x="526" y="198"/>
      <point x="523" y="186" type="curve" smooth="yes"/>
      <point x="520" y="175"/>
      <point x="516" y="165"/>
      <point x="510" y="158" type="curve"/>
      <point x="503" y="173"/>
      <point x="491" y="184"/>
      <point x="476" y="193" type="curve" smooth="yes"/>
      <point x="461" y="202"/>
      <point x="444" y="206"/>
      <point x="425" y="206" type="curve" smooth="yes"/>
      <point x="395" y="206"/>
      <point x="369" y="196"/>
      <point x="348" y="176" type="curve" smooth="yes"/>
      <point x="326" y="156"/>
      <point x="315" y="132"/>
      <point x="315" y="104" type="curve" smooth="yes"/>
      <point x="315" y="75"/>
      <point x="327" y="50"/>
      <point x="350" y="30" type="curve" smooth="yes"/>
      <point x="374" y="9"/>
      <point x="403" y="0"/>
      <point x="436" y="0" type="curve" smooth="yes"/>
      <point x="479" y="0"/>
      <point x="514" y="22"/>
      <point x="544" y="66" type="curve" smooth="yes"/>
      <point x="573" y="109"/>
      <point x="589" y="162"/>
      <point x="589" y="225" type="curve" smooth="yes"/>
      <point x="589" y="280"/>
      <point x="571" y="327"/>
      <point x="535" y="366" type="curve" smooth="yes"/>
      <point x="499" y="405"/>
      <point x="456" y="425"/>
      <point x="406" y="425" type="curve" smooth="yes"/>
      <point x="379" y="425"/>
      <point x="354" y="420"/>
      <point x="333" y="410" type="curve" smooth="yes"/>
      <point x="311" y="400"/>
      <point x="295" y="387"/>
      <point x="285" y="370" type="curve"/>
      <point x="275" y="387"/>
      <point x="260" y="400"/>
      <point x="241" y="410" type="curve" smooth="yes"/>
      <point x="221" y="420"/>
      <point x="199" y="425"/>
      <point x="175" y="425" type="curve" smooth="yes"/>
      <point x="135" y="425"/>
      <point x="101" y="413"/>
      <point x="73" y="390" type="curve" smooth="yes"/>
      <point x="44" y="366"/>
      <point x="30" y="337"/>
      <point x="30" y="304" type="curve" smooth="yes"/>
      <point x="30" y="282"/>
      <point x="35" y="262"/>
      <point x="45" y="245" type="curve" smooth="yes"/>
      <point x="55" y="228"/>
      <point x="68" y="215"/>
      <point x="85" y="206" type="curve"/>
      <point x="68" y="196"/>
      <point x="55" y="184"/>
      <point x="45" y="169" type="curve" smooth="yes"/>
      <point x="35" y="154"/>
      <point x="30" y="138"/>
      <point x="30" y="121" type="curve" smooth="yes"/>
      <point x="30" y="88"/>
      <point x="43" y="59"/>
    </contour>
    <contour>
      <point x="459" y="69" type="curve" smooth="yes"/>
      <point x="450" y="60"/>
      <point x="438" y="55"/>
      <point x="425" y="55" type="curve" smooth="yes"/>
      <point x="412" y="55"/>
      <point x="400" y="60"/>
      <point x="390" y="69" type="curve"/>
      <point x="381" y="79"/>
      <point x="376" y="91"/>
      <point x="376" y="104" type="curve" smooth="yes"/>
      <point x="376" y="117"/>
      <point x="381" y="129"/>
      <point x="390" y="138" type="curve" smooth="yes"/>
      <point x="400" y="147"/>
      <point x="412" y="151"/>
      <point x="425" y="151" type="curve" smooth="yes"/>
      <point x="438" y="151"/>
      <point x="450" y="147"/>
      <point x="459" y="138" type="curve" smooth="yes"/>
      <point x="468" y="129"/>
      <point x="473" y="117"/>
      <point x="473" y="104" type="curve" smooth="yes"/>
      <point x="473" y="91"/>
      <point x="468" y="79"/>
    </contour>
  </outline>
</glyph>
<glyph name="Ta" format="1">
  <advance width="616"/>
  <unicode hex="0C24"/>
  <outline>
    <contour>
      <point x="333" y="425" type="line" name="hr00"/>
      <point x="333" y="468" type="line" smooth="yes"/>
      <point x="333" y="476"/>
      <point x="336" y="483"/>
      <point x="343" y="489" type="curve" smooth="yes"/>
      <point x="350" y="495"/>
      <point x="359" y="498"/>
      <point x="369" y="498" type="curve" smooth="yes"/>
      <point x="575" y="498" type="line"/>
      <point x="575" y="559" type="line"/>
      <point x="345" y="559" type="line" smooth="yes"/>
      <point x="325" y="559"/>
      <point x="308" y="552"/>
      <point x="293" y="538" type="curve" smooth="yes"/>
      <point x="278" y="523"/>
      <point x="271" y="506"/>
      <point x="271" y="486" type="curve" smooth="yes"/>
      <point x="271" y="425" type="line"/>
      <point x="218" y="425" type="line"/>
      <point x="218" y="364" type="line"/>
      <point x="399" y="364" type="line" smooth="yes"/>
      <point x="419" y="364"/>
      <point x="436" y="357"/>
      <point x="449" y="346" type="curve" smooth="yes"/>
      <point x="463" y="334"/>
      <point x="470" y="321"/>
      <point x="470" y="304" type="curve"/>
      <point x="442" y="304"/>
      <point x="418" y="294"/>
      <point x="398" y="275" type="curve" smooth="yes"/>
      <point x="378" y="256"/>
      <point x="368" y="233"/>
      <point x="368" y="206" type="curve" smooth="yes"/>
      <point x="368" y="179"/>
      <point x="377" y="157"/>
      <point x="396" y="138" type="curve" smooth="yes"/>
      <point x="415" y="119"/>
      <point x="437" y="109"/>
      <point x="464" y="109" type="curve" smooth="yes"/>
      <point x="489" y="109" type="line"/>
      <point x="477" y="94"/>
      <point x="455" y="82"/>
      <point x="424" y="74" type="curve" smooth="yes"/>
      <point x="393" y="65"/>
      <point x="355" y="61"/>
      <point x="310" y="61" type="curve" smooth="yes"/>
      <point x="262" y="61"/>
      <point x="221" y="67"/>
      <point x="186" y="78" type="curve" smooth="yes"/>
      <point x="153" y="89"/>
      <point x="132" y="103"/>
      <point x="123" y="121" type="curve"/>
      <point x="131" y="117"/>
      <point x="143" y="115"/>
      <point x="160" y="115" type="curve" smooth="yes"/>
      <point x="189" y="115"/>
      <point x="214" y="123"/>
      <point x="234" y="141" type="curve" smooth="yes"/>
      <point x="255" y="159"/>
      <point x="264" y="181"/>
      <point x="264" y="206" type="curve" smooth="yes"/>
      <point x="264" y="233"/>
      <point x="254" y="256"/>
      <point x="234" y="275" type="curve" smooth="yes"/>
      <point x="213" y="294"/>
      <point x="189" y="304"/>
      <point x="160" y="304" type="curve" smooth="yes"/>
      <point x="124" y="304"/>
      <point x="93" y="293"/>
      <point x="68" y="270" type="curve" smooth="yes"/>
      <point x="43" y="247"/>
      <point x="30" y="220"/>
      <point x="30" y="189" type="curve" smooth="yes"/>
      <point x="30" y="132"/>
      <point x="55" y="86"/>
      <point x="106" y="51" type="curve" smooth="yes"/>
      <point x="157" y="17"/>
      <point x="225" y="0"/>
      <point x="310" y="0" type="curve" smooth="yes"/>
      <point x="397" y="0"/>
      <point x="467" y="17"/>
      <point x="520" y="50" type="curve" smooth="yes"/>
      <point x="573" y="83"/>
      <point x="599" y="128"/>
      <point x="599" y="183" type="curve" smooth="yes"/>
      <point x="599" y="208"/>
      <point x="593" y="232"/>
      <point x="581" y="253" type="curve" smooth="yes"/>
      <point x="570" y="274"/>
      <point x="554" y="289"/>
      <point x="534" y="298" type="curve"/>
      <point x="534" y="333"/>
      <point x="521" y="363"/>
      <point x="494" y="388" type="curve" smooth="yes"/>
      <point x="468" y="413"/>
      <point x="436" y="425"/>
      <point x="399" y="425" type="curve" smooth="yes"/>
    </contour>
    <contour>
      <point x="513" y="180" type="curve" smooth="yes"/>
      <point x="504" y="173"/>
      <point x="492" y="170"/>
      <point x="478" y="170" type="curve" smooth="yes"/>
      <point x="463" y="170"/>
      <point x="451" y="173"/>
      <point x="441" y="180" type="curve" smooth="yes"/>
      <point x="431" y="187"/>
      <point x="426" y="196"/>
      <point x="426" y="206" type="curve" smooth="yes"/>
      <point x="426" y="216"/>
      <point x="431" y="225"/>
      <point x="441" y="233" type="curve" smooth="yes"/>
      <point x="450" y="240"/>
      <point x="462" y="243"/>
      <point x="476" y="243" type="curve" smooth="yes"/>
      <point x="491" y="243"/>
      <point x="503" y="240"/>
      <point x="513" y="233" type="curve" smooth="yes"/>
      <point x="523" y="225"/>
      <point x="528" y="216"/>
      <point x="528" y="206" type="curve" smooth="yes"/>
      <point x="528" y="196"/>
      <point x="523" y="187"/>
    </contour>
    <contour>
      <point x="188" y="180" type="curve" smooth="yes"/>
      <point x="179" y="173"/>
      <point x="167" y="170"/>
      <point x="154" y="170" type="curve" smooth="yes"/>
      <point x="141" y="170"/>
      <point x="129" y="173"/>
      <point x="119" y="180" type="curve" smooth="yes"/>
      <point x="110" y="187"/>
      <point x="105" y="196"/>
      <point x="105" y="206" type="curve" smooth="yes"/>
      <point x="105" y="216"/>
      <point x="110" y="225"/>
      <point x="119" y="233" type="curve"/>
      <point x="129" y="240"/>
      <point x="141" y="243"/>
      <point x="154" y="243" type="curve" smooth="yes"/>
      <point x="167" y="243"/>
      <point x="179" y="240"/>
      <point x="188" y="233" type="curve" smooth="yes"/>
      <point x="197" y="225"/>
      <point x="201" y="216"/>
      <point x="201" y="206" type="curve" smooth="yes"/>
      <point x="201" y="196"/>
      <point x="197" y="187"/>
    </contour>
  </outline>
</glyph>
<glyph name="Da" format="1">
  <advance width="626"/>
  <unicode hex="0C26"/>
  <outline>
    <contour>
      <point x="426" y="480" type="line" smooth="yes" name="hr00"/>
      <point x="426" y="487"/>
      <point x="429" y="492"/>
      <point x="434" y="496" type="curve" smooth="yes"/>
      <point x="439" y="501"/>
      <point x="444" y="504"/>
      <point x="451" y="504" type="curve" smooth="yes"/>
      <point x="609" y="504" type="line"/>
      <point x="609" y="565" type="line"/>
      <point x="426" y="565" type="line" smooth="yes"/>
      <point x="409" y="565"/>
      <point x="395" y="559"/>
      <point x="384" y="548" type="curve" smooth="yes"/>
      <point x="372" y="535"/>
      <point x="366" y="521"/>
      <point x="366" y="504" type="curve" smooth="yes"/>
      <point x="366" y="431" type="line"/>
      <point x="255" y="431" type="line"/>
      <point x="250" y="432"/>
      <point x="246" y="435"/>
      <point x="243" y="438" type="curve" smooth="yes"/>
      <point x="240" y="442"/>
      <point x="238" y="446"/>
      <point x="238" y="450" type="curve" smooth="yes"/>
      <point x="238" y="504" type="line"/>
      <point x="176" y="504" type="line"/>
      <point x="176" y="444" type="line" smooth="yes"/>
      <point x="176" y="432"/>
      <point x="180" y="421"/>
      <point x="187" y="412" type="curve"/>
      <point x="156" y="401"/>
      <point x="128" y="385"/>
      <point x="105" y="364" type="curve" smooth="yes"/>
      <point x="55" y="318"/>
      <point x="30" y="258"/>
      <point x="30" y="183" type="curve" smooth="yes"/>
      <point x="30" y="133"/>
      <point x="45" y="90"/>
      <point x="76" y="54" type="curve" smooth="yes"/>
      <point x="107" y="18"/>
      <point x="145" y="0"/>
      <point x="188" y="0" type="curve" smooth="yes"/>
      <point x="213" y="0"/>
      <point x="235" y="5"/>
      <point x="256" y="16" type="curve" smooth="yes"/>
      <point x="277" y="27"/>
      <point x="293" y="42"/>
      <point x="304" y="61" type="curve"/>
      <point x="315" y="42"/>
      <point x="332" y="27"/>
      <point x="356" y="16" type="curve" smooth="yes"/>
      <point x="379" y="5"/>
      <point x="407" y="0"/>
      <point x="438" y="0" type="curve" smooth="yes"/>
      <point x="476" y="0"/>
      <point x="508" y="18"/>
      <point x="535" y="54" type="curve" smooth="yes"/>
      <point x="562" y="90"/>
      <point x="576" y="133"/>
      <point x="576" y="183" type="curve" smooth="yes"/>
      <point x="576" y="258"/>
      <point x="553" y="319"/>
      <point x="503" y="364" type="curve" smooth="yes"/>
      <point x="481" y="385"/>
      <point x="455" y="399"/>
      <point x="426" y="410" type="curve"/>
    </contour>
    <contour>
      <point x="248" y="83" type="curve" smooth="yes"/>
      <point x="231" y="68"/>
      <point x="211" y="61"/>
      <point x="188" y="61" type="curve" smooth="yes"/>
      <point x="161" y="61"/>
      <point x="139" y="73"/>
      <point x="120" y="96" type="curve" smooth="yes"/>
      <point x="101" y="121"/>
      <point x="91" y="150"/>
      <point x="91" y="183" type="curve" smooth="yes"/>
      <point x="91" y="238"/>
      <point x="110" y="281"/>
      <point x="149" y="314" type="curve" smooth="yes"/>
      <point x="187" y="347"/>
      <point x="238" y="364"/>
      <point x="303" y="364" type="curve" smooth="yes"/>
      <point x="365" y="364"/>
      <point x="415" y="347"/>
      <point x="454" y="314" type="curve" smooth="yes"/>
      <point x="491" y="281"/>
      <point x="510" y="238"/>
      <point x="510" y="183" type="curve" smooth="yes"/>
      <point x="510" y="150"/>
      <point x="501" y="121"/>
      <point x="484" y="96" type="curve"/>
      <point x="465" y="73"/>
      <point x="444" y="61"/>
      <point x="419" y="61" type="curve" smooth="yes"/>
      <point x="396" y="61"/>
      <point x="376" y="68"/>
      <point x="359" y="83" type="curve" smooth="yes"/>
      <point x="342" y="97"/>
      <point x="334" y="114"/>
      <point x="334" y="134" type="curve" smooth="yes"/>
      <point x="334" y="183" type="line"/>
      <point x="273" y="183" type="line"/>
      <point x="273" y="134" type="line" smooth="yes"/>
      <point x="273" y="114"/>
      <point x="265" y="97"/>
    </contour>
  </outline>
</glyph>
<glyph name="Na" format="1">
  <advance width="563"/>
  <unicode hex="0C28"/>
  <outline>
    <contour>
      <point x="228" y="425" type="line" name="hr00"/>
      <point x="228" y="468" type="line" smooth="yes"/>
      <point x="228" y="476"/>
      <point x="231" y="483"/>
      <point x="238" y="489" type="curve" smooth="yes"/>
      <point x="245" y="495"/>
      <point x="254" y="498"/>
      <point x="264" y="498" type="curve" smooth="yes"/>
      <point x="408" y="498" type="line"/>
      <point x="408" y="559" type="line"/>
      <point x="240" y="559" type="line" smooth="yes"/>
      <point x="220" y="559"/>
      <point x="203" y="552"/>
      <point x="188" y="538" type="curve" smooth="yes"/>
      <point x="173" y="523"/>
      <point x="166" y="506"/>
      <point x="166" y="486" type="curve" smooth="yes"/>
      <point x="166" y="425" type="line"/>
      <point x="56" y="425" type="line"/>
      <point x="56" y="364" type="line"/>
      <point x="365" y="364" type="line" smooth="yes"/>
      <point x="398" y="364"/>
      <point x="427" y="349"/>
      <point x="451" y="318" type="curve" smooth="yes"/>
      <point x="474" y="287"/>
      <point x="486" y="249"/>
      <point x="486" y="206" type="curve" smooth="yes"/>
      <point x="486" y="166"/>
      <point x="476" y="132"/>
      <point x="456" y="104" type="curve" smooth="yes"/>
      <point x="435" y="75"/>
      <point x="411" y="61"/>
      <point x="383" y="61" type="curve" smooth="yes"/>
      <point x="360" y="61"/>
      <point x="340" y="69"/>
      <point x="323" y="86" type="curve" smooth="yes"/>
      <point x="306" y="103"/>
      <point x="298" y="123"/>
      <point x="298" y="146" type="curve" smooth="yes"/>
      <point x="298" y="179"/>
      <point x="286" y="205"/>
      <point x="261" y="225" type="curve" smooth="yes"/>
      <point x="237" y="245"/>
      <point x="205" y="255"/>
      <point x="164" y="255" type="curve" smooth="yes"/>
      <point x="127" y="255"/>
      <point x="96" y="244"/>
      <point x="69" y="220" type="curve" smooth="yes"/>
      <point x="43" y="197"/>
      <point x="30" y="167"/>
      <point x="30" y="134" type="curve" smooth="yes"/>
      <point x="30" y="97"/>
      <point x="42" y="66"/>
      <point x="66" y="39" type="curve" smooth="yes"/>
      <point x="89" y="13"/>
      <point x="118" y="0"/>
      <point x="153" y="0" type="curve"/>
      <point x="153" y="61" type="line"/>
      <point x="136" y="61"/>
      <point x="122" y="68"/>
      <point x="109" y="83" type="curve" smooth="yes"/>
      <point x="97" y="97"/>
      <point x="91" y="114"/>
      <point x="91" y="134" type="curve" smooth="yes"/>
      <point x="91" y="151"/>
      <point x="98" y="164"/>
      <point x="113" y="176" type="curve" smooth="yes"/>
      <point x="127" y="187"/>
      <point x="144" y="194"/>
      <point x="164" y="194" type="curve" smooth="yes"/>
      <point x="184" y="194"/>
      <point x="201" y="187"/>
      <point x="216" y="174" type="curve" smooth="yes"/>
      <point x="231" y="161"/>
      <point x="238" y="146"/>
      <point x="238" y="128" type="curve" smooth="yes"/>
      <point x="238" y="93"/>
      <point x="252" y="63"/>
      <point x="279" y="38" type="curve" smooth="yes"/>
      <point x="306" y="13"/>
      <point x="338" y="0"/>
      <point x="376" y="0" type="curve" smooth="yes"/>
      <point x="423" y="0"/>
      <point x="463" y="20"/>
      <point x="496" y="60" type="curve" smooth="yes"/>
      <point x="529" y="101"/>
      <point x="546" y="149"/>
      <point x="546" y="206" type="curve" smooth="yes"/>
      <point x="546" y="266"/>
      <point x="529" y="318"/>
      <point x="495" y="361" type="curve" smooth="yes"/>
      <point x="460" y="404"/>
      <point x="419" y="425"/>
      <point x="370" y="425" type="curve" smooth="yes"/>
    </contour>
  </outline>
</glyph>
<glyph name="Pa" format="1">
  <advance width="563"/>
  <unicode hex="0C2A"/>
  <outline>
    <contour>
      <point x="69" y="38" type="curve" smooth="yes" name="hr00"/>
      <point x="96" y="13"/>
      <point x="127" y="0"/>
      <point x="164" y="0" type="curve" smooth="yes"/>
      <point x="182" y="0"/>
      <point x="199" y="4"/>
      <point x="216" y="11" type="curve" smooth="yes"/>
      <point x="233" y="19"/>
      <point x="248" y="30"/>
      <point x="261" y="43" type="curve"/>
      <point x="274" y="30"/>
      <point x="290" y="19"/>
      <point x="309" y="11" type="curve" smooth="yes"/>
      <point x="328" y="4"/>
      <point x="349" y="0"/>
      <point x="370" y="0" type="curve" smooth="yes"/>
      <point x="419" y="0"/>
      <point x="460" y="20"/>
      <point x="495" y="59" type="curve" smooth="yes"/>
      <point x="529" y="98"/>
      <point x="546" y="145"/>
      <point x="546" y="200" type="curve" smooth="yes"/>
      <point x="546" y="263"/>
      <point x="529" y="316"/>
      <point x="494" y="359" type="curve" smooth="yes"/>
      <point x="458" y="403"/>
      <point x="415" y="425"/>
      <point x="365" y="425" type="curve" smooth="yes"/>
      <point x="285" y="425" type="line"/>
      <point x="285" y="364" type="line"/>
      <point x="359" y="364" type="line" smooth="yes"/>
      <point x="392" y="364"/>
      <point x="422" y="349"/>
      <point x="445" y="320" type="curve" smooth="yes"/>
      <point x="469" y="290"/>
      <point x="480" y="254"/>
      <point x="480" y="213" type="curve" smooth="yes"/>
      <point x="480" y="171"/>
      <point x="469" y="135"/>
      <point x="446" y="105" type="curve" smooth="yes"/>
      <point x="424" y="76"/>
      <point x="397" y="61"/>
      <point x="365" y="61" type="curve" smooth="yes"/>
      <point x="347" y="61"/>
      <point x="331" y="64"/>
      <point x="316" y="71" type="curve" smooth="yes"/>
      <point x="302" y="78"/>
      <point x="292" y="87"/>
      <point x="285" y="98" type="curve"/>
      <point x="289" y="107"/>
      <point x="291" y="119"/>
      <point x="291" y="134" type="curve" smooth="yes"/>
      <point x="291" y="165"/>
      <point x="279" y="192"/>
      <point x="254" y="215" type="curve" smooth="yes"/>
      <point x="229" y="238"/>
      <point x="199" y="249"/>
      <point x="164" y="249" type="curve" smooth="yes"/>
      <point x="127" y="249"/>
      <point x="96" y="238"/>
      <point x="69" y="214" type="curve" smooth="yes"/>
      <point x="43" y="191"/>
      <point x="30" y="161"/>
      <point x="30" y="128" type="curve" smooth="yes"/>
      <point x="30" y="93"/>
      <point x="43" y="63"/>
    </contour>
    <contour>
      <point x="165" y="364" type="line"/>
      <point x="165" y="474" type="line" smooth="yes"/>
      <point x="165" y="481"/>
      <point x="168" y="486"/>
      <point x="173" y="490" type="curve"/>
      <point x="177" y="495"/>
      <point x="182" y="498"/>
      <point x="189" y="498" type="curve" smooth="yes"/>
      <point x="333" y="498" type="line"/>
      <point x="333" y="559" type="line"/>
      <point x="165" y="559" type="line" smooth="yes"/>
      <point x="148" y="559"/>
      <point x="134" y="554"/>
      <point x="121" y="541" type="curve" smooth="yes"/>
      <point x="109" y="529"/>
      <point x="104" y="515"/>
      <point x="104" y="498" type="curve" smooth="yes"/>
      <point x="104" y="425" type="line"/>
      <point x="31" y="425" type="line"/>
      <point x="31" y="364" type="line"/>
    </contour>
    <contour>
      <point x="211" y="76" type="curve" smooth="yes"/>
      <point x="198" y="62"/>
      <point x="182" y="55"/>
      <point x="164" y="55" type="curve" smooth="yes"/>
      <point x="144" y="55"/>
      <point x="127" y="62"/>
      <point x="113" y="76" type="curve" smooth="yes"/>
      <point x="98" y="91"/>
      <point x="91" y="108"/>
      <point x="91" y="128" type="curve" smooth="yes"/>
      <point x="91" y="146"/>
      <point x="98" y="161"/>
      <point x="113" y="174" type="curve" smooth="yes"/>
      <point x="127" y="187"/>
      <point x="144" y="194"/>
      <point x="164" y="194" type="curve" smooth="yes"/>
      <point x="182" y="194"/>
      <point x="198" y="187"/>
      <point x="211" y="174" type="curve" smooth="yes"/>
      <point x="224" y="161"/>
      <point x="231" y="146"/>
      <point x="231" y="128" type="curve" smooth="yes"/>
      <point x="231" y="108"/>
      <point x="224" y="91"/>
    </contour>
  </outline>
</glyph>
